<svg xmlns="http://www.w3.org/2000/svg" xmlns:xlink="http://www.w3.org/1999/xlink" width="2300" height="2300" enable-background="new 0 0 2300 2300" viewBox="0 0 2300 2300"><linearGradient id="a"><stop offset=".006" stop-color="#c2d0db"/><stop offset="1" stop-color="#8a99ad"/></linearGradient><linearGradient id="b" x1="1352.921" x2="672.225" y1="1730.676" y2="1778.007" gradientUnits="userSpaceOnUse" xlink:href="#a"/><linearGradient id="c" x1="1842.824" x2="488.79" y1="882.639" y2="1290.734" gradientUnits="userSpaceOnUse" xlink:href="#a"/><linearGradient id="d" x1="1815.48" x2="458.249" y1="1110.757" y2="1109.164" gradientUnits="userSpaceOnUse"><stop offset=".201" stop-color="#fff0f7"/><stop offset=".994" stop-color="#c4b2bb"/></linearGradient><linearGradient id="e"><stop offset="0" stop-color="#e2d7dd" stop-opacity=".76"/><stop offset=".994" stop-color="#4d484a" stop-opacity=".3"/></linearGradient><linearGradient id="f" x1="657.006" x2="655.985" y1="1919.408" y2="1455.12" gradientUnits="userSpaceOnUse" xlink:href="#e"/><linearGradient id="g" x1="401.644" x2="400.634" y1="2041.539" y2="1582.316" gradientUnits="userSpaceOnUse" xlink:href="#a"/><linearGradient id="h"><stop offset=".056" stop-color="#8170d6"/><stop offset=".994" stop-color="#cfade9"/></linearGradient><linearGradient id="i" x1="883.099" x2="1234.64" y1="1434.476" y2="1434.476" gradientUnits="userSpaceOnUse" xlink:href="#h"/><linearGradient id="j" x1="883.099" x2="1662.88" y1="715.27" y2="715.27" gradientUnits="userSpaceOnUse" xlink:href="#h"/><linearGradient id="k"><stop offset="0" stop-color="#f9673a"/><stop offset=".994" stop-color="#ff966c"/></linearGradient><linearGradient id="l" x1="883.099" x2="1662.88" y1="1331.732" y2="1331.732" gradientUnits="userSpaceOnUse" xlink:href="#k"/><linearGradient id="m" x1="1422.258" x2="1662.88" y1="1228.988" y2="1228.988" gradientUnits="userSpaceOnUse" xlink:href="#h"/><linearGradient id="n" x1="883.099" x2="1662.88" y1="1023.501" y2="1023.501" gradientUnits="userSpaceOnUse" xlink:href="#h"/><linearGradient id="o" x1="1256.036" x2="1662.88" y1="920.757" y2="920.757" gradientUnits="userSpaceOnUse" xlink:href="#k"/><linearGradient id="p" x1="983.097" x2="1216.037" y1="920.757" y2="920.757" gradientUnits="userSpaceOnUse" xlink:href="#h"/><linearGradient id="q" x1="983.097" x2="1662.88" y1="818.014" y2="818.014" gradientUnits="userSpaceOnUse" xlink:href="#k"/><linearGradient id="r" x1="744.717" x2="656.018" y1="664.8" y2="874.11" gradientUnits="userSpaceOnUse"><stop offset="0" stop-color="#e2d7dd" stop-opacity=".76"/><stop offset=".994" stop-color="#877f82" stop-opacity=".6"/></linearGradient><linearGradient id="s" x1="273.072" x2="958.308" y1="717.975" y2="540.609" gradientUnits="userSpaceOnUse"><stop offset="0" stop-color="#e06eb1"/><stop offset=".994" stop-color="#ffccde"/></linearGradient><linearGradient id="t" x1="1957.088" x2="1756.892" y1="1632.119" y2="1520.8" gradientUnits="userSpaceOnUse" xlink:href="#e"/><linearGradient id="u"><stop offset=".4" stop-color="#9ac460"/><stop offset=".994" stop-color="#76964a"/></linearGradient><linearGradient id="v" x1="2229.571" x2="1700.327" y1="1417.082" y2="1662.627" gradientUnits="userSpaceOnUse" xlink:href="#u"/><linearGradient id="w" x1="1099.51" x2="242.404" y1="1206.828" y2="1218.441" gradientUnits="userSpaceOnUse"><stop offset="0" stop-color="#eef5ff"/><stop offset="1" stop-color="#66a4ed"/></linearGradient><linearGradient id="x" x1="995.595" x2="137.787" y1="889.933" y2="893.633" gradientUnits="userSpaceOnUse"><stop offset=".006" stop-color="#cfade9"/><stop offset=".944" stop-color="#8170d6"/></linearGradient><linearGradient id="y" x1="568.467" x2="261.827" y1="999.199" y2="1253.579" gradientUnits="userSpaceOnUse"><stop offset=".061" stop-color="#d1e3ff"/><stop offset=".967" stop-color="#4f6399" stop-opacity=".6"/></linearGradient><linearGradient id="z" x1="505.083" x2="210.109" y1="1229.76" y2="1514.889" gradientTransform="matrix(1 .00067549 -.00067549 1 -73.0931 -123.297)" gradientUnits="userSpaceOnUse"><stop offset=".061" stop-color="#fff4db"/><stop offset="1" stop-color="#e8d5ae"/></linearGradient><linearGradient id="A" x1="424.654" x2="-1.396" y1="950.494" y2="1124.155" gradientTransform="matrix(.9745 .2244 -.2244 .9745 388.487 182.2489)" gradientUnits="userSpaceOnUse" xlink:href="#u"/><linearGradient id="B" x1="219.729" x2="161.558" y1="876.229" y2="940.869" gradientTransform="matrix(.9745 .2244 -.2244 .9745 388.487 182.2489)" gradientUnits="userSpaceOnUse"><stop offset=".095" stop-color="#fc0"/><stop offset=".818" stop-color="#ebac00"/></linearGradient><linearGradient id="C" x1="1945.842" x2="2021.504" y1="1271.633" y2="1230.134" gradientUnits="userSpaceOnUse" xlink:href="#h"/><linearGradient id="D" x1="2067.86" x2="1883.495" y1="1044.267" y2="1183.705" gradientUnits="userSpaceOnUse"><stop offset=".095" stop-color="#fff200"/><stop offset=".751" stop-color="#ebac00"/><stop offset=".994" stop-color="#b38509"/></linearGradient><path fill="url(#b)" d="m1286.549 1610.468h-388.561l-47.922 249.586c-2.486 12.95 7.437 24.96 20.623 24.96h445.574c13.266 0 23.208-12.148 20.585-25.152z"/><path fill="url(#c)" d="m1799.261 623.615v970.47c0 24.258-19.648 43.922-43.885 43.922h-1326.214c-24.237 0-43.885-19.665-43.885-43.922v-970.47c0-24.258 19.648-43.923 43.885-43.923h1326.214c24.237.001 43.885 19.666 43.885 43.923z"/><path fill="url(#d)" d="m1771.895 1588.576c0 12.104-9.781 21.893-21.875 21.893h-930.676-381.683c-12.094 0-21.875-9.789-21.875-21.893v-957.331c0-12.074 9.781-21.893 21.875-21.893h381.683 931.959c11.601 0 21.005 9.408 21 21.009z"/><path fill="#66768d" d="m385.276 753.949h30.51v72.317h-30.51z"/><path fill="url(#f)" d="m415.786 1494.041h480.751l-.003 47.945c.229 19.211-15.282 34.908-34.495 34.908h-446.253z"/><path fill="url(#g)" d="m385.276 1494.041h30.51v82.852h-30.51z" opacity=".6"/><path fill="url(#i)" d="m1229.64 1439.476h-341.541c-2.761 0-5-2.239-5-5s2.239-5 5-5h341.541c2.761 0 5 2.239 5 5s-2.239 5-5 5z"/><path fill="#66a4ed" d="m1592.256 1439.476h-278.242c-2.761 0-5-2.239-5-5s2.239-5 5-5h278.242c2.761 0 5 2.239 5 5s-2.239 5-5 5z"/><path fill="url(#j)" d="m1657.88 720.27h-769.781c-2.761 0-5-2.239-5-5s2.239-5 5-5h769.781c2.761 0 5 2.239 5 5s-2.239 5-5 5z"/><path fill="url(#l)" d="m1657.88 1336.732h-769.781c-2.761 0-5-2.239-5-5s2.239-5 5-5h769.781c2.761 0 5 2.239 5 5s-2.239 5-5 5z"/><path fill="url(#m)" d="m1657.88 1233.988h-230.622c-2.761 0-5-2.239-5-5s2.239-5 5-5h230.622c2.761 0 5 2.239 5 5s-2.239 5-5 5z"/><path fill="#66a4ed" d="m1342.884 1233.988h-354.787c-2.761 0-5-2.239-5-5s2.239-5 5-5h354.787c2.761 0 5 2.239 5 5s-2.238 5-5 5z"/><path fill="#66a4ed" d="m1655.901 1131.245h-669.783c-2.761 0-5-2.239-5-5s2.239-5 5-5h669.783c2.761 0 5 2.239 5 5s-2.239 5-5 5z"/><path fill="url(#n)" d="m1657.88 1028.501h-769.781c-2.761 0-5-2.239-5-5s2.239-5 5-5h769.781c2.761 0 5 2.239 5 5s-2.239 5-5 5z"/><path fill="url(#o)" d="m1657.88 925.757h-396.844c-2.761 0-5-2.239-5-5s2.239-5 5-5h396.844c2.761 0 5 2.239 5 5s-2.239 5-5 5z"/><path fill="url(#p)" d="m1211.037 925.757h-222.94c-2.761 0-5-2.239-5-5s2.239-5 5-5h222.939c2.761 0 5 2.239 5 5s-2.238 5-4.999 5z"/><path fill="url(#q)" d="m1657.88 823.014h-669.783c-2.761 0-5-2.239-5-5s2.239-5 5-5h669.783c2.761 0 5 2.239 5 5s-2.239 5-5 5z"/><path fill="url(#r)" d="m876.261 722.576-1.534-113.224-458.941 144.41v72.504h403.558l141.691 15.313z"/><path fill="url(#s)" d="m884.301 702.47v-265.591c0-12.09-9.793-21.893-21.875-21.893h-508.391c-12.081 0-21.875 9.803-21.875 21.893v338.784c0 12.091 9.794 21.893 21.875 21.893h463.275l143.725 25.104z"/><ellipse cx="608.236" cy="546.927" fill="#fff4db" rx="56.912" ry="56.961"/><path fill="#fff4db" d="m703.91 722.576h-191.357c-5.338 0-9.656-4.559-9.162-9.879 4.973-53.599 50.007-95.533 104.864-95.533 54.813 0 99.845 41.934 104.818 95.533.493 5.32-3.825 9.879-9.163 9.879z"/><path fill="url(#t)" d="m1772.313 1380.66-157.198.177 85.944 95.154-.832 162.017h72.086z"/><path fill="url(#v)" d="m2216.274 1379.229-568.811 1.557 88.228 95.205v229.49c0 12.09 9.794 21.893 21.875 21.893h458.708c12.081 0 21.875-9.803 21.875-21.893v-304.359c0-12.09-9.794-21.893-21.875-21.893z"/><ellipse cx="1986.916" cy="1499.298" fill="#fff4db" rx="51.791" ry="51.835"/><path fill="#fff4db" d="m1899.851 1659.141h174.138c4.858 0 8.787-4.148 8.338-8.99-4.525-48.776-45.507-86.937-95.428-86.937-49.881 0-90.861 38.161-95.386 86.937-.449 4.842 3.48 8.99 8.338 8.99z"/><path fill="url(#w)" d="m897.336 898.715 22.173 29.56v581.32c0 20.435-15.259 37.017-34.061 37.017h-789.536c-18.802 0-34.061-16.582-34.061-37.017v-581.32c0-20.434 18.98-44.784 37.782-44.784-0 0 797.703-5.21 797.703 15.224z"/><path fill="url(#x)" d="m919.509 889.89v38.385h-857.658v-38.385c0-18.818 15.259-34.09 34.061-34.09h789.536c18.802 0 34.061 15.272 34.061 34.09z"/><ellipse cx="212.489" cy="892.037" fill="#8cc441" rx="17.348" ry="17.362"/><ellipse cx="154.183" cy="892.037" fill="#fcca00" rx="17.348" ry="17.362"/><ellipse cx="99.633" cy="892.037" fill="#ff6260" rx="17.348" ry="17.362"/><path fill="#2b3652" d="m776.923 1461.684h-32c-1.657 0-3-1.343-3-3s1.343-3 3-3h32c3.773 0 7.495-.968 10.764-2.799 1.447-.81 3.274-.294 4.083 1.151.81 1.446.294 3.274-1.151 4.083-4.162 2.333-8.899 3.565-13.696 3.565zm-64 0h-32c-1.657 0-3-1.343-3-3s1.343-3 3-3h32c1.657 0 3 1.343 3 3s-1.343 3-3 3zm-64 0h-32c-1.657 0-3-1.343-3-3s1.343-3 3-3h32c1.657 0 3 1.343 3 3s-1.343 3-3 3zm-64 0h-32c-1.657 0-3-1.343-3-3s1.343-3 3-3h32c1.657 0 3 1.343 3 3s-1.343 3-3 3zm-64 0h-32c-1.657 0-3-1.343-3-3s1.343-3 3-3h32c1.657 0 3 1.343 3 3s-1.343 3-3 3zm-64 0h-32c-1.657 0-3-1.343-3-3s1.343-3 3-3h32c1.657 0 3 1.343 3 3s-1.343 3-3 3zm-61.819-7.837c-.795 0-1.589-.314-2.179-.937-4.962-5.24-7.695-12.104-7.695-19.326v-12.959c0-1.657 1.343-3 3-3s3 1.343 3 3v12.959c0 5.681 2.149 11.079 6.052 15.201 1.139 1.203 1.087 3.102-.115 4.241-.581.549-1.323.821-2.063.821zm406.898-22.616c-1.657 0-3-1.343-3-3v-32c0-1.657 1.343-3 3-3s3 1.343 3 3v32c0 1.657-1.343 3-3 3zm-413.773-39.606c-1.657 0-3-1.343-3-3v-32c0-1.657 1.343-3 3-3s3 1.343 3 3v32c0 1.656-1.343 3-3 3zm413.773-24.394c-1.657 0-3-1.343-3-3v-32c0-1.657 1.343-3 3-3s3 1.343 3 3v32c0 1.657-1.343 3-3 3zm-413.773-39.606c-1.657 0-3-1.343-3-3v-32c0-1.657 1.343-3 3-3s3 1.343 3 3v32c0 1.656-1.343 3-3 3zm413.773-24.394c-1.657 0-3-1.343-3-3v-32c0-1.657 1.343-3 3-3s3 1.343 3 3v32c0 1.657-1.343 3-3 3zm-413.773-39.606c-1.657 0-3-1.343-3-3v-32c0-1.657 1.343-3 3-3s3 1.343 3 3v32c0 1.656-1.343 3-3 3zm413.773-24.394c-1.657 0-3-1.343-3-3v-32c0-1.657 1.343-3 3-3s3 1.343 3 3v32c0 1.657-1.343 3-3 3zm-413.773-39.606c-1.657 0-3-1.343-3-3v-32c0-1.657 1.343-3 3-3s3 1.343 3 3v32c0 1.656-1.343 3-3 3zm413.773-24.394c-1.657 0-3-1.343-3-3v-32c0-1.657 1.343-3 3-3s3 1.343 3 3v32c0 1.657-1.343 3-3 3zm-413.773-39.606c-1.657 0-3-1.343-3-3v-32c0-1.657 1.343-3 3-3s3 1.343 3 3v32c0 1.656-1.343 3-3 3zm413.773-24.394c-1.657 0-3-1.343-3-3v-32c0-1.657 1.343-3 3-3s3 1.343 3 3v32c0 1.657-1.343 3-3 3zm-413.75-39.606c-.041 0-.082-.001-.124-.002-1.656-.067-2.943-1.464-2.876-3.119.497-12.253 9.125-22.963 20.982-26.043 1.603-.417 3.242.546 3.658 2.149.417 1.604-.546 3.241-2.149 3.658-9.321 2.422-16.104 10.843-16.496 20.479-.064 1.614-1.393 2.878-2.995 2.878zm401.945-20.263c-.543 0-1.094-.148-1.588-.457-3.498-2.188-7.538-3.345-11.686-3.345h-18.004c-1.657 0-3-1.343-3-3s1.343-3 3-3h18.004c5.274 0 10.416 1.473 14.868 4.258 1.404.879 1.831 2.73.952 4.134-.569.911-1.547 1.41-2.546 1.41zm-63.279-3.802h-32c-1.657 0-3-1.343-3-3s1.343-3 3-3h32c1.657 0 3 1.343 3 3s-1.343 3-3 3zm-64 0h-32c-1.657 0-3-1.343-3-3s1.343-3 3-3h32c1.657 0 3 1.343 3 3s-1.343 3-3 3zm-64 0h-32c-1.657 0-3-1.343-3-3s1.343-3 3-3h32c1.657 0 3 1.343 3 3s-1.343 3-3 3zm-64 0h-32c-1.657 0-3-1.343-3-3s1.343-3 3-3h32c1.657 0 3 1.343 3 3s-1.343 3-3 3zm-64 0h-32c-1.657 0-3-1.343-3-3s1.343-3 3-3h32c1.657 0 3 1.343 3 3s-1.343 3-3 3z"/><path fill="url(#y)" d="m470.414 1425.013h-349.987c-13.332 0-24.14-10.817-24.14-24.16v-350.285c0-13.343 10.808-24.16 24.14-24.16h349.988c13.332 0 24.14 10.817 24.14 24.16v350.285c-.001 13.344-10.809 24.16-24.141 24.16z"/><path fill="url(#z)" d="m520.655 1399.552-360.371-.244c-13.727-.009-24.848-11.155-24.839-24.894l.243-360.677c.009-13.739 11.145-24.869 24.873-24.86l360.371.244c13.727.009 24.848 11.155 24.839 24.894l-.243 360.677c-.01 13.739-11.145 24.869-24.873 24.86z"/><path fill="url(#A)" d="m513.965 1313.287-73.199-104.932c-5.521-7.919-17.227-7.934-22.769-.029l-53.505 76.405-79.868-139.701c-5.507-9.62-19.369-9.623-24.88-.004l-96.554 168.416c-5.486 9.564 1.407 21.488 12.426 21.495l326.948.221c11.24.007 17.837-12.649 11.401-21.871z"/><ellipse cx="383.357" cy="1101.315" fill="url(#B)" rx="43.464" ry="43.501"/><path fill="#fff4db" d="m1988.462 932.769c-63.155 0-115.873 45.637-115.873 101.866 0 4.371.152 8.535.442 12.511 6.058 83.004 83.21 80.695 83.21 164.862l59.188-3.448c0-83.924 82.582-78.16 88.53-161.416.279-3.902.425-7.984.425-12.265-0-56.473-52.718-102.11-115.922-102.11z"/><path fill="url(#C)" d="m1945.351 1214.985h86.222v52.801c0 12.808-10.375 23.192-23.172 23.192h-39.877c-12.798 0-23.172-10.383-23.172-23.192v-52.801z"/><path fill="url(#D)" d="m1873.029 1047.145c5.65 83.882 72.337 84.565 72.337 169.03h86.223c0-84.221 66.865-84.895 72.404-169.03 0 0-35.793-28.424-115.482-28.424-75.003 0-115.482 28.424-115.482 28.424z"/><g fill="#fcca00"><path d="m1987.633 901.932c-2.761 0-5-2.239-5-5v-94.335c0-2.761 2.239-5 5-5s5 2.239 5 5v94.335c0 2.762-2.239 5-5 5z"/><path d="m2033.685 905.368c-.761 0-1.533-.174-2.258-.542-2.463-1.25-3.446-4.259-2.197-6.721l29.008-57.17c1.25-2.463 4.259-3.446 6.721-2.196 2.463 1.25 3.446 4.259 2.197 6.721l-29.008 57.17c-.882 1.736-2.64 2.738-4.463 2.738z"/><path d="m1941.494 905.612c-1.824 0-3.581-1.001-4.463-2.739l-29.007-57.17c-1.25-2.463-.266-5.472 2.197-6.721 2.462-1.25 5.471-.266 6.721 2.197l29.007 57.17c1.25 2.463.266 5.472-2.197 6.721-.724.368-1.497.542-2.258.542z"/></g></svg>