<svg width="176" height="194" viewBox="0 0 176 194" fill="none" xmlns="http://www.w3.org/2000/svg">
<path d="M24.2083 37.4028C25.9575 36.831 26.9146 34.9411 26.3461 33.1817C25.7775 31.4223 23.8986 30.4597 22.1494 31.0316C20.4002 31.6034 19.4431 33.4932 20.0117 35.2526C20.5802 37.012 22.4591 37.9747 24.2083 37.4028Z" fill="#EAEFF5"/>
<path d="M31.4799 26.4731C32.6694 26.0842 33.3202 24.7992 32.9336 23.6028C32.547 22.4064 31.2693 21.7518 30.0799 22.1406C28.8904 22.5295 28.2396 23.8146 28.6262 25.0109C29.0128 26.2073 30.2905 26.862 31.4799 26.4731Z" fill="#EAEFF5"/>
<path d="M140.657 37.9712C142.721 36.0742 142.865 32.8536 140.979 30.7777C139.093 28.7019 135.891 28.5569 133.827 30.4539C131.763 32.3509 131.619 35.5716 133.505 37.6474C135.391 39.7233 138.593 39.8683 140.657 37.9712Z" fill="#EAEFF5"/>
<path d="M156.826 28.6881C157.695 27.8893 157.756 26.5333 156.962 25.6592C156.168 24.7852 154.819 24.7241 153.95 25.5229C153.081 26.3216 153.021 27.6777 153.815 28.5517C154.609 29.4257 155.957 29.4868 156.826 28.6881Z" fill="#EAEFF5"/>
<path d="M30.0605 147.71C30.9295 146.911 30.9902 145.555 30.1961 144.681C29.402 143.807 28.0538 143.746 27.1848 144.545C26.3158 145.344 26.2551 146.7 27.0492 147.574C27.8433 148.448 29.1915 148.509 30.0605 147.71Z" fill="#EAEFF5"/>
<path d="M83.8081 154.795C120.374 154.795 150.017 124.979 150.017 88.2009C150.017 51.4222 120.374 21.6072 83.8081 21.6072C47.2422 21.6072 17.5996 51.4222 17.5996 88.2009C17.5996 124.979 47.2422 154.795 83.8081 154.795Z" fill="#EAEFF5"/>
<path d="M43.0423 79.7594L34.3832 42.7777C33.7171 39.9639 35.4489 37.2841 38.1133 36.6141L95.263 22.947L127.635 45.0556L147.883 126.388C148.55 129.202 146.818 131.882 144.153 132.552L65.2894 151.311C62.4918 151.981 59.8275 150.239 59.1614 147.559L42.3762 76.9455" fill="white"/>
<path d="M142.822 77.2137L112.315 155.197C111.249 157.876 108.319 159.082 105.654 158.01L30.6536 127.192C27.9892 126.12 26.7903 123.173 27.856 120.493L68.2205 20.8033C69.2863 18.1235 72.217 16.9176 74.8813 17.9895L129.367 40.3661L142.822 77.2137Z" fill="white"/>
<path d="M129.234 40.3658L120.575 61.8044C119.376 64.7522 120.975 68.37 123.905 69.5759L142.822 77.2134" fill="white"/>
<g filter="url(#filter0_d_1251_3581)">
<path d="M134.964 140.189C134.964 143.003 132.699 145.281 129.901 145.281H48.9059C46.1083 145.281 43.8438 143.003 43.8438 140.189V32.4605C43.8438 29.6467 46.1083 27.3689 48.9059 27.3689H107.654L134.031 56.445L134.564 105.218L134.964 140.189Z" fill="white"/>
</g>
<path d="M120.044 114.463H71.4205C70.6212 114.463 69.9551 113.793 69.9551 112.989C69.9551 112.185 70.6212 111.515 71.4205 111.515H120.044C120.844 111.515 121.51 112.185 121.51 112.989C121.377 113.793 120.844 114.463 120.044 114.463Z" fill="#EAEFF5"/>
<path d="M65.4248 114.463H56.899C56.0997 114.463 55.4336 113.793 55.4336 112.989C55.4336 112.185 56.0997 111.515 56.899 111.515H65.4248C66.2241 111.515 66.8902 112.185 66.8902 112.989C66.8902 113.793 66.2241 114.463 65.4248 114.463Z" fill="#625DF5"/>
<path d="M119.91 101.198H98.1958C97.3965 101.198 96.7305 100.528 96.7305 99.7241C96.7305 98.9201 97.3965 98.2502 98.1958 98.2502H119.91C120.709 98.2502 121.375 98.9201 121.375 99.7241C121.242 100.662 120.709 101.198 119.91 101.198Z" fill="#EAEFF5"/>
<path d="M89.0048 101.198H57.2994C56.5001 101.198 55.834 100.528 55.834 99.7241C55.834 98.9201 56.5001 98.2502 57.2994 98.2502H89.0048C89.8041 98.2502 90.4702 98.9201 90.4702 99.7241C90.4702 100.662 89.8041 101.198 89.0048 101.198Z" fill="#EAEFF5"/>
<path d="M120.311 88.0672H111.919C111.119 88.0672 110.453 87.3972 110.453 86.5933C110.453 85.7893 111.119 85.1194 111.919 85.1194H120.311C121.11 85.1194 121.777 85.7893 121.777 86.5933C121.777 87.3972 121.11 88.0672 120.311 88.0672Z" fill="#625DF5"/>
<path d="M104.057 88.0672H57.6978C56.8985 88.0672 56.2324 87.3972 56.2324 86.5933C56.2324 85.7893 56.8985 85.1194 57.6978 85.1194H104.057C104.856 85.1194 105.522 85.7893 105.522 86.5933C105.522 87.3972 104.856 88.0672 104.057 88.0672Z" fill="#EAEFF5"/>
<path d="M83.277 128.934H80.3462C79.5469 128.934 78.8809 128.264 78.8809 127.46C78.8809 126.656 79.5469 125.986 80.3462 125.986H83.277C84.0763 125.986 84.7424 126.656 84.7424 127.46C84.6092 128.264 83.9431 128.934 83.277 128.934Z" fill="#EAEFF5"/>
<path d="M75.0159 128.934H57.6978C56.8985 128.934 56.2324 128.264 56.2324 127.46C56.2324 126.656 56.8985 125.986 57.6978 125.986H74.8827C75.682 125.986 76.3481 126.656 76.3481 127.46C76.4813 128.264 75.8152 128.934 75.0159 128.934Z" fill="#EAEFF5"/>
<path d="M120.71 74.9358H90.8697C90.0704 74.9358 89.4043 74.2659 89.4043 73.4619C89.4043 72.658 90.0704 71.988 90.8697 71.988H120.71C121.509 71.988 122.175 72.658 122.175 73.4619C122.175 74.2659 121.509 74.9358 120.71 74.9358Z" fill="#EAEFF5"/>
<path d="M81.2778 74.9358H58.0982C57.2989 74.9358 56.6328 74.2659 56.6328 73.4619C56.6328 72.658 57.2989 71.988 58.0982 71.988H81.1446C81.9439 71.988 82.61 72.658 82.61 73.4619C82.61 74.2659 82.0771 74.9358 81.2778 74.9358Z" fill="#EAEFF5"/>
<path d="M97.5298 45.1897H58.6307C57.5649 45.1897 56.7656 44.3858 56.7656 43.3138C56.7656 42.2419 57.5649 41.438 58.6307 41.438H97.5298C98.5955 41.438 99.3948 42.2419 99.3948 43.3138C99.3948 44.2518 98.4623 45.1897 97.5298 45.1897Z" fill="#625DF5"/>
<path d="M73.4177 54.5692H58.6307C57.5649 54.5692 56.7656 53.7652 56.7656 52.6933C56.7656 51.6214 57.5649 50.8174 58.6307 50.8174H73.5509C74.6166 50.8174 75.4159 51.6214 75.4159 52.6933C75.2827 53.6313 74.4834 54.5692 73.4177 54.5692Z" fill="#625DF5"/>
<path d="M107.654 27.3689V50.4154C107.654 53.6312 110.452 56.3111 113.649 56.3111H134.031" fill="#EAEFF5"/>
<g filter="url(#filter1_d_1251_3581)">
<path d="M152.125 137.683C151.818 139.013 151.408 140.242 150.896 141.471C150.794 141.778 150.691 141.982 150.486 142.289C148.745 145.668 145.979 148.432 142.599 150.07C142.189 150.275 141.78 150.479 141.472 150.582C138.195 151.913 134.507 152.425 130.82 151.606C121.089 149.558 114.84 140.037 116.889 130.311C118.938 120.586 128.464 114.341 138.195 116.389C141.677 117.105 144.75 118.846 147.311 121.303C151.511 125.602 153.354 131.745 152.125 137.683Z" fill="#625DF5"/>
<path fill-rule="evenodd" clip-rule="evenodd" d="M134.5 143.167C139.562 143.167 143.666 139.063 143.666 134C143.666 128.938 139.562 124.834 134.5 124.834C129.437 124.834 125.333 128.938 125.333 134C125.333 139.063 129.437 143.167 134.5 143.167ZM137.25 134C137.756 134 138.166 133.385 138.166 132.625C138.166 131.866 137.756 131.25 137.25 131.25C136.743 131.25 136.333 131.866 136.333 132.625C136.333 133.385 136.743 134 137.25 134ZM132.666 132.625C132.666 133.385 132.256 134 131.75 134C131.243 134 130.833 133.385 130.833 132.625C130.833 131.866 131.243 131.25 131.75 131.25C132.256 131.25 132.666 131.866 132.666 132.625ZM131.197 138.993C131.423 139.298 131.854 139.362 132.159 139.136C132.827 138.641 133.633 138.354 134.5 138.354C135.367 138.354 136.173 138.641 136.84 139.136C137.145 139.362 137.576 139.298 137.802 138.993C138.028 138.688 137.964 138.257 137.659 138.031C136.768 137.371 135.678 136.979 134.5 136.979C133.322 136.979 132.232 137.371 131.34 138.031C131.035 138.257 130.971 138.688 131.197 138.993Z" fill="white"/>
</g>
<defs>
<filter id="filter0_d_1251_3581" x="11.5771" y="11.2356" width="155.653" height="182.445" filterUnits="userSpaceOnUse" color-interpolation-filters="sRGB">
<feFlood flood-opacity="0" result="BackgroundImageFix"/>
<feColorMatrix in="SourceAlpha" type="matrix" values="0 0 0 0 0 0 0 0 0 0 0 0 0 0 0 0 0 0 127 0" result="hardAlpha"/>
<feOffset dy="16.1333"/>
<feGaussianBlur stdDeviation="16.1333"/>
<feColorMatrix type="matrix" values="0 0 0 0 0.397708 0 0 0 0 0.47749 0 0 0 0 0.575 0 0 0 0.18 0"/>
<feBlend mode="normal" in2="BackgroundImageFix" result="effect1_dropShadow_1251_3581"/>
<feBlend mode="normal" in="SourceGraphic" in2="effect1_dropShadow_1251_3581" result="shape"/>
</filter>
<filter id="filter1_d_1251_3581" x="108.5" y="113" width="52" height="52.0002" filterUnits="userSpaceOnUse" color-interpolation-filters="sRGB">
<feFlood flood-opacity="0" result="BackgroundImageFix"/>
<feColorMatrix in="SourceAlpha" type="matrix" values="0 0 0 0 0 0 0 0 0 0 0 0 0 0 0 0 0 0 127 0" result="hardAlpha"/>
<feOffset dy="5"/>
<feGaussianBlur stdDeviation="4"/>
<feColorMatrix type="matrix" values="0 0 0 0 0.1125 0 0 0 0 0.295916 0 0 0 0 1 0 0 0 0.22 0"/>
<feBlend mode="normal" in2="BackgroundImageFix" result="effect1_dropShadow_1251_3581"/>
<feBlend mode="normal" in="SourceGraphic" in2="effect1_dropShadow_1251_3581" result="shape"/>
</filter>
</defs>
</svg>
