<?xml version="1.0" encoding="utf-8"?>
<!-- Generator: Adobe Illustrator 27.5.0, SVG Export Plug-In . SVG Version: 6.00 Build 0)  -->
<svg version="1.1" xmlns="http://www.w3.org/2000/svg" xmlns:xlink="http://www.w3.org/1999/xlink" x="0px" y="0px"
	 viewBox="0 0 750 500" style="enable-background:new 0 0 750 500;" xml:space="preserve">
<g id="BACKGROUND">
	<g>
		<rect style="fill:transparent;" width="750" height="500"/>
	</g>
</g>
<g id="OBJECT">
	<g>
		<rect x="532.18" y="147.713" style="fill:#EFEFEF;" width="107.523" height="272.145"/>
		<g>
			<g>
				<rect x="539.966" y="158.836" style="fill:#FEFEFE;" width="26.325" height="26.325"/>
				<rect x="572.266" y="158.836" style="fill:#FEFEFE;" width="26.325" height="26.325"/>
				<rect x="603.753" y="158.836" style="fill:#FEFEFE;" width="26.325" height="26.325"/>
			</g>
			<g>
				<rect x="539.966" y="190.723" style="fill:#FEFEFE;" width="26.325" height="26.325"/>
				<rect x="572.266" y="190.723" style="fill:#FEFEFE;" width="26.325" height="26.325"/>
				<rect x="603.753" y="190.723" style="fill:#FEFEFE;" width="26.325" height="26.325"/>
			</g>
			<g>
				<rect x="539.966" y="222.238" style="fill:#FEFEFE;" width="26.325" height="26.325"/>
				<rect x="572.266" y="222.238" style="fill:#FEFEFE;" width="26.325" height="26.325"/>
				<rect x="603.753" y="222.238" style="fill:#FEFEFE;" width="26.325" height="26.325"/>
			</g>
			<g>
				<rect x="539.966" y="254.124" style="fill:#FEFEFE;" width="26.325" height="26.325"/>
				<rect x="572.266" y="254.124" style="fill:#FEFEFE;" width="26.325" height="26.325"/>
				<rect x="603.753" y="254.124" style="fill:#FEFEFE;" width="26.325" height="26.325"/>
			</g>
			<g>
				<rect x="539.966" y="286.01" style="fill:#FEFEFE;" width="26.325" height="26.325"/>
				<rect x="572.266" y="286.01" style="fill:#FEFEFE;" width="26.325" height="26.325"/>
				<rect x="603.753" y="286.01" style="fill:#FEFEFE;" width="26.325" height="26.325"/>
			</g>
			<g>
				<rect x="539.966" y="317.526" style="fill:#FEFEFE;" width="26.325" height="26.325"/>
				<rect x="572.266" y="317.526" style="fill:#FEFEFE;" width="26.325" height="26.325"/>
				<rect x="603.753" y="317.526" style="fill:#FEFEFE;" width="26.325" height="26.325"/>
			</g>
		</g>
	</g>
	<g>
		<path style="fill:#613235;" d="M394.578,89.228c0,0-10.728,34.272-20.251,38.329c-9.523,4.056-13.977-6.18-6.769-15.842
			l21.954-24.571C389.511,87.144,391.883,88.281,394.578,89.228z"/>
		<path style="fill:#613235;" d="M362.626,127.135c-18.487-4.173-48.456-23.087-43.011-30.98c5.343-7.744,12.654-1.271,12.654-1.271
			l37.416,16.032C387.643,120.791,376.835,131.268,362.626,127.135z"/>
		<path style="fill:#FFB200;" d="M370.805,111.566c-0.366-0.217-0.728-0.433-1.121-0.649c1.193,0.405-34.694-15.37-36.397-16.423
			c-1.703-1.054-8.33-6.082-13.673,1.662c-5.446,7.893,24.524,26.808,43.011,30.98c1.682,0.489,3.314,0.767,4.859,0.872
			C368.666,122.504,370.023,116.996,370.805,111.566z"/>
		<path style="fill:#FFDA08;" d="M341.525,120.061c0.186,1.748,0.361,3.548,0.525,5.368c0.041,0.434,0.083,0.869,0.124,1.303
			c-0.172,1.193-0.611,2.287-1.817,3.115c-0.063,0.04-0.105,0.09-0.158,0.141l-21.929,0.426l-0.001,0.021l0.288,1.379
			c-3.321-0.511-6.657-0.868-10.013-1.194l-7.981,0.164l-1.108,1.935l0.451-2.941c-0.731-0.069-1.462-0.148-2.203-0.217
			c-5.724-5.418-3.745-15.464-3.134-22.632c1.21-6.267,4.094-12.216,10.777-13.36l0.002-0.072l4.834-1.053l0.931-0.081
			c0.233,0.614,0.769,1.081,1.627,1.019c3.597-0.246,8.483,1.757,11.703-0.438c0.398-0.269,0.585-0.76,0.576-1.225l0.496-0.019
			l0.503,0.094l1.696,0.298c0,0,5.46,2.181,9.352,9.146l4.34,12.537C341.404,113.774,347.385,118.341,341.525,120.061z"/>
		<path style="fill:#FFB200;" d="M320.938,87c-0.197,0.014-5.563-0.75-10,0.313s-8,4.125-8,4.125l9.625,6.313L309,101.5
			l20.688,7.438l3.188-10.688l-3.688-1.125l2.5-8.25C331.688,88.875,321.813,86.938,320.938,87z"/>
		<polygon style="fill:#784346;" points="324.555,83.36 323.485,90 322.985,93.12 322.525,95.94 314.505,93.63 319.375,78.45 		"/>
		<g>
			<g>
				<path style="fill:#784346;" d="M313.962,77.455c-1.544,4.836,1.136,10.006,5.972,11.55c5.305,1.688,7.512,1.969,8.93,0.382
					c0.486-0.537,0.883-1.312,1.273-2.315c0.422-1.073,0.835-2.403,1.347-4.04c1.527-4.83-1.136-10.006-5.978-11.538
					C320.67,69.95,315.505,72.619,313.962,77.455z"/>
				<path style="fill:none;stroke:#1B193B;stroke-width:0.75;stroke-miterlimit:10;" d="M325.286,79.237
					c0,0-1.418-1.765-4.669-0.559"/>
				<path style="fill:none;stroke:#1B193B;stroke-width:0.75;stroke-miterlimit:10;" d="M328.369,79.857c0,0,1.488-0.747,3.46,0.583
					"/>
				<path style="fill:none;stroke:#47222C;stroke-width:0.5;stroke-miterlimit:10;" d="M325.386,85.442l2.471,0.145
					c0,0-1.2-1.614-0.092-5.165"/>
			</g>
			<g>
				<g>
					<path style="fill:#1B193B;" d="M329.728,83.939c0.965,0,0.967-1.5,0-1.5C328.763,82.439,328.761,83.939,329.728,83.939
						L329.728,83.939z"/>
				</g>
			</g>
			<g>
				<g>
					<path style="fill:#1B193B;" d="M323.557,82.648c0.965,0,0.967-1.5,0-1.5C322.592,81.148,322.591,82.648,323.557,82.648
						L323.557,82.648z"/>
				</g>
			</g>
		</g>
		<path style="fill:#784346;" d="M327.295,104.16c-0.74,0.26-16.35-9.84-17.11-11.73l5.34-0.47l6.5-0.17l1.07-0.03l2.17-0.05h0.25
			l0.47,0.07l0.03,0.01C328.685,94.33,327.295,104.16,327.295,104.16z"/>
		<g>
			<path style="fill:#1B193B;" d="M322.197,72.003c2.515-0.451,5.148,0.338,6.991,2.096c1.843,1.758,2.861,4.452,2.703,7.151
				c1.052-1.859,1.393-4.136,0.928-6.18c-0.465-2.044-1.732-3.83-3.438-4.848c-0.68-0.406-1.42-0.692-2.162-0.96
				c-2.124-0.769-4.387-1.414-6.644-0.984c-2.258,0.43-4.494,2.22-4.863,4.631"/>
		</g>
		<g>
			<path style="fill:#613235;" d="M394.392,88.047c0.446-0.848,0.998-1.647,1.469-2.501c0.501-0.909,0.879-1.641,1.524-2.279
				c0.029-0.032,0.058-0.063,0.088-0.095c-0.409,0.256-0.657,0.426-0.657,0.426s5.54-6.855,4.539-7.45
				c-1.002-0.595-5.114,5.459-5.114,5.459s2.941-8.675,1.815-9.124c-1.125-0.449-4.189,8.372-4.189,8.372s0.849-7.683-0.377-7.716
				c-1.226-0.033-4.421,15.324-4.386,15.729C389.134,89.226,393.396,88.274,394.392,88.047z"/>
			<path style="fill:#613235;" d="M396.646,83.138c0,0,4.654-3.99,4.835-3.448c0.181,0.541-6.25,12.521-8.769,12.033
				c-2.519-0.488-3.608-2.855-3.608-2.855l3.134-4.113l4.338-1.753"/>
			<path style="fill:#613235;" d="M389.104,88.869c0.119-0.173-1.452-3.711-1.452-3.711s-0.747-0.908-0.169-3.068
				c0.578-2.16,2.697-3.902,2.943-4.713c0.246-0.811,1.522,0.716,0.179,2.957c-1.343,2.241,0.652,4.05,0.652,4.05L389.104,88.869z"
				/>
		</g>
		<path style="fill:#FFB200;" d="M342.049,125.43c-7.265-0.872-6.447-6.302-6.447-6.302c2.271,1.281,4.293,1.741,5.922,0.933
			C341.711,121.81,341.885,123.609,342.049,125.43z"/>
		<path style="fill:#FFDA08;" d="M369.323,108.017c0,0,9.175,17.336,8.821,18.446c-0.354,1.11-2.993,1.342-2.993,1.342
			s-1.309,1.671-3.008,2.322c-1.699,0.651-6.035-1.001-6.035-1.001l0.446-21.216l1.736,1.479L369.323,108.017z"/>
		<path style="fill:#FEFEFE;" d="M322.302,85.799l4.831,1.761c0,0-1.858,1.501-3.172,1.181
			C322.646,88.421,322.302,85.799,322.302,85.799z"/>
		<g>
			<path style="fill:#1B193B;" d="M326.289,69.966c1.062,0.351,1.805,1.411,1.996,2.448c0.191,1.037-0.072,2.051-0.425,2.989
				c-0.489,1.301-1.22,2.59-2.506,3.204c-1.279,0.611-2.88,0.452-4.381,0.193c-1.715-0.296-3.453-0.718-5.007-1.582
				c-1.003-0.558-1.988-1.317-3.096-1.378c1.01-2.394,2.262-4.675,3.734-6.805c0.29-0.419,0.598-0.842,1.044-1.109
				c0.983-0.589,2.348-0.287,3.56,0.033c1.3,0.343,2.6,0.688,3.9,1.034"/>
		</g>
		<path style="fill:#1B193B;" d="M320.494,75.3l-2.729,5.392c0,0,0.284-2.917-2.473-1.953c-2.757,0.964-0.389,4.318,0.709,4.387
			c1.098,0.069,0.52,4.425,0.52,4.425s-5.047-2.012-6.903-8.132s2.973-14.706,13.745-11.215c10.772,3.49-3.962,8.012-3.962,8.012"/>
		<polygon style="fill:#66393B;" points="325.985,91.78 322.065,96.94 323.095,91.76 325.265,91.71 325.515,91.71 		"/>
		<path style="fill:#66393B;" d="M323.485,90l-0.5,3.12c-1.21-0.82-3.68-2.78-4.92-5.87C317.975,87.05,320.305,89.25,323.485,90z"/>
		<g>
			<g>
				<path style="fill:#FFB200;" d="M326.748,105.643c4.354,9.526,6.333,19.635,5.968,30.1c-0.045,1.287,1.955,1.285,2,0
					c0.378-10.828-1.738-21.257-6.241-31.109C327.941,103.464,326.217,104.479,326.748,105.643L326.748,105.643z"/>
			</g>
		</g>
		<g>
			<path style="fill:#1B193B;" d="M316.413,70.47c-3.507-0.365-7.112-0.759-10.231-2.403c-3.119-1.644-5.678-4.858-5.472-8.377
				c0.196-3.359,2.859-6.171,5.93-7.545c3.071-1.374,6.517-1.585,9.876-1.777c1.306-0.074,2.654-0.143,3.884,0.301
				c1.743,0.629,2.987,2.202,3.789,3.872c3.098,6.45-0.035,15.149-6.533,18.143"/>
		</g>
	</g>
	<g>
		<g>
			<path style="fill:#EFEFEF;" d="M233.294,229.397c0,35.272-27.546,64.106-62.301,66.187c-0.184,0.012-0.368,0.023-0.552,0.034
				c-1.15,0.046-2.288,0.081-3.449,0.081c-0.954,0-1.908-0.023-2.851-0.057c-0.196-0.012-0.402-0.012-0.598-0.023
				c-35.007-1.805-62.853-30.765-62.853-66.221c0-36.617,29.685-66.301,66.302-66.301S233.294,192.78,233.294,229.397z"/>
		</g>
		<polygon style="fill:#e2e8f0;" points="167.32,208.891 172.541,436.525 161.443,436.525 166.665,208.891 		"/>
		<polygon style="fill:#e2e8f0;" points="117.269,235.525 169.376,284.919 165.515,284.875 216.554,238.52 216.877,238.852 
			169.332,288.783 167.374,290.839 165.47,288.738 		"/>
		<polygon style="fill:#e2e8f0;" points="145.148,222.591 168.702,243.299 165.857,243.299 188.744,223.074 188.928,223.258 
			168.702,246.145 167.276,247.759 165.857,246.145 		"/>
	</g>
	<path style="fill:#FE6B75;" d="M577.325,139.979l-4.218-4.369c3.93-5.455,6.527-11.591,7.778-17.946l6.094,0.107
		c3.596,0.067,6.565-2.799,6.623-6.396l0.06-3.405c0.067-3.597-2.799-6.565-6.396-6.623l-6.094-0.107
		c-1.028-6.396-3.408-12.618-7.145-18.207l4.369-4.218c2.587-2.498,2.659-6.617,0.161-9.204l-2.37-2.455
		c-2.498-2.587-6.617-2.659-9.204-0.161l-4.369,4.218c-5.455-3.93-11.59-6.527-17.946-7.778l0.107-6.094
		c0.067-3.596-2.799-6.565-6.396-6.623l-3.404-0.06c-3.596-0.067-6.565,2.799-6.623,6.396l-0.107,6.094
		c-6.395,1.028-12.618,3.408-18.207,7.145l-4.218-4.369c-2.498-2.587-6.617-2.659-9.204-0.161l-2.455,2.37
		c-2.587,2.498-2.659,6.617-0.161,9.204l4.218,4.369c-3.93,5.455-6.527,11.59-7.777,17.946l-6.094-0.107
		c-3.596-0.067-6.565,2.799-6.624,6.396l-0.059,3.404c-0.068,3.596,2.799,6.565,6.396,6.623l6.094,0.107
		c1.028,6.395,3.408,12.618,7.145,18.207l-4.369,4.218c-2.587,2.498-2.659,6.617-0.161,9.204l2.37,2.455
		c2.498,2.587,6.617,2.659,9.204,0.161l4.369-4.218c5.455,3.93,11.59,6.527,17.946,7.777l-0.107,6.094
		c-0.067,3.596,2.799,6.565,6.396,6.623l3.404,0.06c3.596,0.067,6.565-2.799,6.624-6.396l0.107-6.094
		c6.396-1.028,12.618-3.408,18.207-7.145l4.218,4.369c2.498,2.587,6.617,2.659,9.204,0.161l2.455-2.37
		C579.75,146.685,579.822,142.566,577.325,139.979z M550.251,134.731c-2.376,1.325-4.895,2.309-7.483,2.934
		c-5.005,1.217-10.264,1.125-15.224-0.266c-2.564-0.716-5.048-1.787-7.376-3.195c-2.152-1.301-4.171-2.902-5.997-4.794
		c-1.827-1.892-3.357-3.965-4.582-6.162c-1.326-2.376-2.309-4.896-2.935-7.483c-1.217-5.005-1.125-10.264,0.266-15.224
		c0.716-2.564,1.787-5.048,3.195-7.376c1.301-2.152,2.902-4.171,4.794-5.998c1.892-1.827,3.965-3.357,6.162-4.582
		c2.376-1.326,4.896-2.309,7.483-2.935c5.005-1.217,10.264-1.125,15.224,0.266c2.564,0.716,5.048,1.787,7.376,3.195
		c2.152,1.301,4.171,2.902,5.997,4.794s3.357,3.965,4.582,6.162c1.326,2.376,2.309,4.896,2.935,7.483
		c1.217,5.005,1.125,10.264-0.266,15.224c-0.716,2.564-1.787,5.048-3.195,7.376c-1.301,2.152-2.902,4.171-4.794,5.997
		C554.521,131.976,552.448,133.506,550.251,134.731z"/>
	<g>
		<g>
			<g>
				<path style="fill:#e2e8f0;" d="M639.71,418.172v31.611H161.737v-42.788H636.59C638.082,410.512,639.146,414.259,639.71,418.172z
					"/>
				<path style="fill:#e2e8f0;" d="M311.318,408.738c0,15.153-4.508,29.263-12.262,41.045H173.999
					c-7.754-11.782-12.262-25.892-12.262-41.045c0-0.584,0.01-1.169,0.021-1.743c0.929-40.503,34.042-73.053,74.764-73.053
					c40.722,0,73.846,32.55,74.775,73.053C311.307,407.569,311.318,408.154,311.318,408.738z"/>
				<path style="fill:#e2e8f0;" d="M465.38,395.673c0,19.977-5.944,38.578-16.166,54.111H284.351
					c-10.222-15.533-16.166-34.134-16.166-54.111c0-0.77,0.014-1.541,0.027-2.298c1.224-53.395,44.879-96.307,98.563-96.307
					c53.684,0,97.352,42.911,98.577,96.307C465.366,394.132,465.38,394.902,465.38,395.673z"/>
				<path style="fill:#e2e8f0;" d="M580.872,415.887c0,12.514-3.723,24.166-10.127,33.896H467.472
					c-6.404-9.73-10.127-21.382-10.127-33.896c0-0.483,0.009-0.965,0.017-1.439c0.767-33.448,28.113-60.329,61.742-60.329
					c33.629,0,60.984,26.881,61.751,60.329C580.864,414.922,580.872,415.404,580.872,415.887z"/>
				<path style="fill:#e2e8f0;" d="M640.18,424.757c0,2.233-0.157,4.415-0.47,6.564c-0.971,6.742-3.413,13.014-7.003,18.462h-76.236
					c-4.727-7.18-7.472-15.779-7.472-25.026c0-0.355,0.01-0.71,0.01-1.054c0.136-5.917,1.398-11.553,3.58-16.708
					c6.929-16.353,23.126-27.833,41.995-27.833c18.879,0,35.076,11.48,42.005,27.833c1.492,3.517,2.557,7.263,3.12,11.177
					c0.261,1.805,0.417,3.653,0.459,5.531C640.18,424.048,640.18,424.403,640.18,424.757z"/>
			</g>
			<g>
				<path style="fill:#e2e8f0;" d="M278.08,434.01v15.77H39.63v-21.34h236.89c0.36,0.84,0.66,1.71,0.92,2.6
					c0.19,0.65,0.35,1.32,0.47,2C277.98,433.36,278.03,433.68,278.08,434.01z"/>
				<path style="fill:#e2e8f0;" d="M114.25,429.31c0,0.58-0.01,1.16-0.05,1.73c-0.02,0.67-0.07,1.34-0.14,2
					c-0.17,1.83-0.49,3.61-0.92,5.35c-0.34,1.37-0.76,2.7-1.24,4c-0.98,2.62-2.24,5.09-3.76,7.39H45.75
					c-1.51-2.3-2.78-4.77-3.76-7.39c-0.49-1.3-0.9-2.63-1.24-4c-0.44-1.74-0.75-3.52-0.93-5.35c-0.07-0.66-0.12-1.33-0.14-2
					c-0.04-0.57-0.05-1.15-0.05-1.73c0-0.29,0.01-0.59,0.02-0.87c0.04-1.8,0.21-3.56,0.5-5.29c0.05-0.33,0.11-0.67,0.18-1
					c3.33-17.19,18.46-30.16,36.61-30.16c8.18,0,15.74,2.63,21.88,7.09c7.51,5.44,12.91,13.62,14.74,23.07
					c0.07,0.33,0.13,0.67,0.18,1c0.29,1.73,0.46,3.49,0.5,5.29C114.25,428.72,114.25,429.02,114.25,429.31z"/>
				<path style="fill:#e2e8f0;" d="M191.11,422.789c0,9.966-2.965,19.245-8.064,26.994h-82.244
					c-5.1-7.749-8.064-17.028-8.064-26.994c0-0.384,0.007-0.769,0.014-1.146c0.611-26.637,22.388-48.044,49.169-48.044
					c26.781,0,48.565,21.407,49.176,48.044C191.104,422.021,191.11,422.405,191.11,422.789z"/>
				<path style="fill:#e2e8f0;" d="M248.725,432.874c0,6.243-1.857,12.055-5.052,16.91h-51.52
					c-3.194-4.854-5.052-10.667-5.052-16.91c0-0.241,0.004-0.481,0.008-0.718c0.383-16.686,14.025-30.096,30.801-30.096
					c16.776,0,30.422,13.41,30.805,30.096C248.721,432.392,248.725,432.633,248.725,432.874z"/>
				<path style="fill:#e2e8f0;" d="M278.311,437.299c0,1.114-0.078,2.202-0.234,3.275c-0.484,3.363-1.702,6.492-3.493,9.21h-38.031
					c-2.358-3.582-3.728-7.872-3.728-12.484c0-0.177,0.005-0.354,0.005-0.526c0.068-2.952,0.698-5.763,1.786-8.335
					c3.457-8.158,11.537-13.885,20.95-13.885c9.418,0,17.498,5.727,20.955,13.885c0.745,1.755,1.276,3.624,1.557,5.576
					c0.13,0.901,0.208,1.822,0.229,2.759C278.311,436.945,278.311,437.122,278.311,437.299z"/>
			</g>
			<g>
				<path style="fill:#e2e8f0;" d="M709.32,428.44v21.34H470.88v-15.77c0.05-0.33,0.1-0.65,0.17-0.97c0.12-0.68,0.28-1.35,0.46-2
					c0.26-0.89,0.57-1.76,0.93-2.6H709.32z"/>
				<path style="fill:#e2e8f0;" d="M709.32,429.31c0,0.58-0.01,1.16-0.05,1.73c-0.02,0.67-0.07,1.34-0.14,2
					c-0.18,1.83-0.49,3.61-0.93,5.35c-0.34,1.37-0.75,2.7-1.24,4c-0.98,2.62-2.24,5.09-3.76,7.39h-62.38
					c-0.39-0.59-0.76-1.19-1.11-1.8c-1.04-1.78-1.92-3.64-2.65-5.59c-0.07-0.18-0.13-0.36-0.19-0.54c-0.41-1.13-0.76-2.28-1.05-3.46
					c-0.44-1.74-0.75-3.52-0.93-5.35c-0.07-0.66-0.12-1.33-0.14-2c-0.04-0.57-0.05-1.15-0.05-1.73c0-0.29,0.01-0.59,0.01-0.87
					c0.04-1.8,0.21-3.56,0.5-5.29c0.05-0.33,0.11-0.67,0.18-1c0.64-3.32,1.73-6.48,3.19-9.42c2.7-5.43,6.68-10.12,11.56-13.65
					c6.14-4.46,13.7-7.09,21.87-7.09c18.16,0,33.29,12.97,36.62,30.16c0.07,0.33,0.13,0.67,0.18,1c0.29,1.73,0.46,3.49,0.5,5.29
					C709.32,428.72,709.32,429.02,709.32,429.31z"/>
				<path style="fill:#e2e8f0;" d="M557.846,422.789c0,9.966,2.965,19.245,8.064,26.994h82.244
					c5.099-7.749,8.065-17.028,8.065-26.994c0-0.384-0.007-0.769-0.014-1.146c-0.611-26.637-22.388-48.044-49.169-48.044
					c-26.781,0-48.565,21.407-49.176,48.044C557.853,422.021,557.846,422.405,557.846,422.789z"/>
				<path style="fill:#e2e8f0;" d="M500.231,432.874c0,6.243,1.857,12.055,5.052,16.91h51.52c3.194-4.854,5.052-10.667,5.052-16.91
					c0-0.241-0.004-0.481-0.008-0.718c-0.383-16.686-14.025-30.096-30.801-30.096c-16.776,0-30.422,13.41-30.805,30.096
					C500.236,432.392,500.231,432.633,500.231,432.874z"/>
				<path style="fill:#e2e8f0;" d="M470.645,437.299c0,1.114,0.078,2.202,0.234,3.275c0.484,3.363,1.702,6.492,3.493,9.21h38.031
					c2.358-3.582,3.728-7.872,3.728-12.484c0-0.177-0.005-0.354-0.005-0.526c-0.068-2.952-0.698-5.763-1.786-8.335
					c-3.457-8.158-11.537-13.885-20.95-13.885c-9.418,0-17.498,5.727-20.955,13.885c-0.745,1.755-1.276,3.624-1.557,5.576
					c-0.13,0.901-0.208,1.822-0.229,2.759C470.645,436.945,470.645,437.122,470.645,437.299z"/>
			</g>
		</g>
		<g>
			<rect x="39.63" y="438.39" style="fill:#FEFEFE;" width="669.69" height="4"/>
		</g>
		<g>
			<rect x="39.63" y="431.04" style="opacity:0.5;fill:#FEFEFE;" width="669.69" height="2"/>
		</g>
		<g>
			<path style="opacity:0.25;fill:#FEFEFE;" d="M708.81,423.15H40.15c0.05-0.33,0.11-0.67,0.18-1h668.3
				C708.7,422.48,708.76,422.82,708.81,423.15z"/>
		</g>
	</g>
	<g>
		<g>
			<rect x="345.222" y="351.994" style="fill:#2D3AAD;" width="51.975" height="62.012"/>
			<path style="fill:#23204D;" d="M397.197,361.436v30.382c-10.387-5.242-49.968-25.393-49.968-28.287L397.197,361.436z"/>
			<path style="fill:#4150D9;" d="M541.913,365.188H208.087c-2.856,0-5.171-2.315-5.171-5.171V130.279
				c0-2.856,2.315-5.171,5.171-5.171h333.826c2.856,0,5.171,2.315,5.171,5.171v229.737
				C547.084,362.873,544.769,365.188,541.913,365.188z"/>
			<path style="fill:#FEFEFE;" d="M534.56,140.32v191.19c0,1.22-1,2.21-2.22,2.21H217.66c-1.22,0-2.22-0.99-2.22-2.21V140.32
				c0-1.22,1-2.22,2.22-2.22h314.68C533.56,138.1,534.56,139.1,534.56,140.32z"/>
			<path style="fill:#2D3AAD;" d="M544.854,412.383H205.146c-1.232,0-2.23,0.999-2.23,2.23v12.867c0,1.232,0.999,2.23,2.23,2.23
				h339.708c1.232,0,2.23-0.999,2.23-2.23v-12.867C547.084,413.382,546.086,412.383,544.854,412.383z"/>
		</g>
		<path style="fill:#f1f5f9;" d="M501.667,337.208l16.267-0.384l8.132-0.192l4.066-0.096c1.384-0.014,2.662-0.071,3.82-0.417
			c0.564-0.187,1.089-0.431,1.501-0.755c0.403-0.333,0.713-0.714,0.922-1.176c0.411-0.943,0.498-2.077,0.47-3.424l0.229-8.147
			c0.175-5.43,0.418-10.859,0.802-16.283c0.005-0.069,0.065-0.121,0.134-0.116c0.063,0.004,0.112,0.055,0.116,0.116
			c0.383,5.423,0.627,10.84,0.802,16.257l0.229,8.124c0.065,1.338,0.067,3.025-0.79,4.515c-0.412,0.743-1.027,1.402-1.739,1.843
			c-0.713,0.444-1.474,0.678-2.213,0.853c-1.484,0.317-2.945,0.235-4.266,0.206l-4.069-0.096l-8.138-0.192l-16.273-0.384
			c-0.069-0.002-0.124-0.059-0.122-0.128C501.546,337.263,501.6,337.21,501.667,337.208z"/>
	</g>
	<g>
		<path style="fill:#06b6d4;" d="M526.415,281.119l0.827,8.533c-9.134,2.579-17.392,7.081-24.356,13.008l-6.643-5.469
			c-3.916-3.233-9.714-2.671-12.938,1.253l-3.055,3.711c-3.233,3.916-2.671,9.715,1.253,12.938l6.643,5.469
			c-4.48,7.972-7.313,16.94-8.09,26.4l-8.533,0.827c-5.052,0.49-8.749,4.98-8.26,10.032l0.465,4.795
			c0.49,5.052,4.979,8.749,10.032,8.26l8.533-0.827c2.579,9.134,7.081,17.392,13.007,24.356l-5.469,6.643
			c-3.233,3.916-2.671,9.715,1.253,12.937l3.711,3.055c3.916,3.233,9.715,2.671,12.938-1.253l5.469-6.642
			c7.972,4.48,16.94,7.313,26.4,8.09l0.827,8.533c0.49,5.052,4.979,8.749,10.032,8.26l4.795-0.465
			c5.053-0.49,8.749-4.98,8.26-10.032l-0.827-8.533c9.134-2.579,17.392-7.081,24.356-13.008l6.643,5.469
			c3.916,3.233,9.715,2.671,12.938-1.253l3.055-3.711c3.233-3.916,2.671-9.715-1.253-12.938l-6.643-5.469
			c4.48-7.972,7.313-16.94,8.09-26.4l8.533-0.827c5.052-0.49,8.749-4.98,8.26-10.032l-0.465-4.795
			c-0.49-5.052-4.979-8.749-10.032-8.26l-8.533,0.827c-2.579-9.134-7.081-17.392-13.008-24.356l5.469-6.642
			c3.233-3.916,2.671-9.715-1.253-12.937l-3.711-3.055c-3.916-3.233-9.715-2.671-12.938,1.253l-5.469,6.643
			c-7.972-4.48-16.94-7.313-26.4-8.09l-0.827-8.533c-0.49-5.052-4.979-8.749-10.032-8.26l-4.795,0.464
			C529.623,271.577,525.926,276.067,526.415,281.119z M551.733,310.694c3.79,0.621,7.439,1.747,10.849,3.327
			c6.601,3.049,12.334,7.769,16.594,13.663c2.206,3.043,4.01,6.408,5.348,10.008c1.236,3.328,2.061,6.87,2.419,10.566
			c0.358,3.696,0.228,7.331-0.346,10.834c-0.621,3.79-1.747,7.439-3.327,10.849c-3.049,6.601-7.769,12.334-13.663,16.594
			c-3.043,2.206-6.407,4.01-10.008,5.348c-3.328,1.236-6.87,2.061-10.566,2.419s-7.331,0.228-10.834-0.346
			c-3.791-0.621-7.439-1.747-10.849-3.327c-6.601-3.049-12.334-7.769-16.594-13.663c-2.206-3.043-4.01-6.408-5.348-10.008
			c-1.236-3.328-2.061-6.871-2.419-10.566c-0.358-3.696-0.228-7.331,0.346-10.834c0.621-3.79,1.747-7.439,3.327-10.849
			c3.049-6.601,7.769-12.334,13.663-16.594c3.043-2.206,6.407-4.01,10.008-5.348c3.328-1.236,6.87-2.061,10.566-2.419
			S548.229,310.119,551.733,310.694z"/>
		<g>
			<path style="fill:#FEFEFE;" d="M505.257,304.773c2.969-3.024,6.362-5.623,10.029-7.743c3.666-2.124,7.596-3.774,11.639-5.024
				l0.066,0.213c-1.906,0.976-3.783,1.924-5.649,2.852c-0.922,0.49-1.857,0.941-2.762,1.449c-0.921,0.477-1.82,0.991-2.718,1.504
				c-1.804,1.017-3.538,2.141-5.288,3.27l-1.297,0.875c-0.425,0.303-0.839,0.62-1.274,0.916l-1.294,0.91
				c-0.415,0.324-0.849,0.632-1.294,0.933L505.257,304.773z"/>
			<path style="fill:#FEFEFE;" d="M482.039,303.294c0.424-0.9,0.963-1.734,1.574-2.52c0.614-0.782,1.311-1.513,2.115-2.131
				c0.802-0.608,1.687-1.178,2.713-1.415c1.01-0.251,2.108-0.206,3.035,0.209l-0.06,0.215c-0.974-0.059-1.876,0.055-2.735,0.363
				c-0.862,0.295-1.654,0.795-2.41,1.34c-0.753,0.556-1.458,1.198-2.121,1.888c-0.666,0.686-1.313,1.409-1.92,2.165L482.039,303.294
				z"/>
		</g>
		<path style="fill:#FEFEFE;" d="M563.255,394.076c-0.005-0.029-0.034-0.058-0.063-0.063c-0.005-0.004,0.011-0.007,0.011-0.007
			s0.042-0.006,0.068-0.01c0.053-0.005,0.132-0.034,0.196-0.049c0.14-0.046,0.281-0.1,0.423-0.159
			c0.283-0.123,0.563-0.258,0.84-0.404c0.557-0.284,1.104-0.594,1.64-0.923c1.073-0.656,2.109-1.376,3.111-2.136
			c2.017-1.503,3.909-3.165,5.685-4.931c3.531-3.552,6.573-7.576,8.867-11.996c2.313-4.409,3.871-9.199,4.675-14.134
			c0.783-4.942,0.842-10.017,0.358-15.082l0.44-0.072c1.14,4.995,1.543,10.223,0.942,15.392c-0.285,2.584-0.83,5.143-1.58,7.64
			c-0.774,2.491-1.769,4.916-2.978,7.229c-2.434,4.619-5.694,8.784-9.539,12.268c-1.917,1.749-3.985,3.325-6.171,4.708
			c-1.1,0.681-2.229,1.315-3.392,1.883c-0.582,0.283-1.171,0.552-1.78,0.785c-0.305,0.114-0.616,0.218-0.933,0.31
			c-0.16,0.044-0.323,0.084-0.492,0.116c-0.093,0.01-0.168,0.03-0.275,0.03c-0.053,0-0.091,0.008-0.17-0.008
			c-0.037-0.008-0.065-0.01-0.106-0.025c-0.061-0.028-0.123-0.08-0.16-0.132L563.255,394.076z"/>
	</g>
	<g>
		<g>
			<path style="fill:#FFDA08;" d="M122.013,238.726c-0.638-0.351-4.138-7.726-3.638-17.226s6.25-17.5,20.5-16s19.25,32,19.25,32"/>
			<g>
				<polyline style="fill:#1B193B;" points="144.042,428.235 156.584,407.656 169.753,413.475 153.216,432.463 				"/>
				<polygon style="fill:#1B193B;" points="45.747,427.318 57.053,415.925 74.509,415.006 54.909,430.625 				"/>
				<path style="fill:#F58C62;" d="M217.87,213.296c0,0-24.258,20.244-33.235,18.71c-8.977-1.535-7.397-11.228,2.537-14.943
					l27.942-7.721C215.115,209.341,216.328,211.312,217.87,213.296z"/>
				<path style="fill:#FFB200;" d="M157.418,276.597c-5.422-3.014-11.395-6.295-15.454-11.084c-0.27-0.319-0.512-0.655-0.738-0.997
					l-24.453,1.652c0,0-11.804,76.718-19.6,86.363c-6.34,7.843-55.245,38.169-44.821,63.176c5.279,1.328,17.316,4.555,17.316,4.555
					c6.566,3.458,49.793-45.719,60.58-61.607c9.507-14.001,22.13-58.577,28.236-81.555
					C158.129,276.957,157.773,276.795,157.418,276.597z"/>
				<g>
					<path style="fill:#1B193B;" d="M144.042,428.235l9.5,1.647c0,0,15.355,4.675,15.728,6.499
						c0.393,1.92-26.525-0.273-26.525-0.273C139.736,434.151,141.324,431.303,144.042,428.235z"/>
				</g>
				<path style="fill:#F58C62;" d="M180.29,231.347c-16.337-1.425-44.367-14.108-40.716-21.476
					c3.582-7.229,10.656-2.548,10.656-2.548l34.03,9.361C200.871,223.038,192.964,233.232,180.29,231.347z"/>
				<path style="fill:#FFB200;" d="M185.818,216.945c-0.346-0.143-0.688-0.287-1.057-0.427l-34.577-9.331
					c0,0-7.17-4.733-10.864,2.674c-3.766,7.55,24.681,20.314,41.301,21.659c1.526,0.218,2.982,0.258,4.34,0.158
					C185.309,226.738,185.809,221.772,185.818,216.945z"/>
				<g>
					<path style="fill:#FFDA08;" d="M129.987,236.73c-0.037-0.052-0.072-0.1-0.108-0.151c-3.683,0.013-7.066-0.047-9.489-0.109
						c0.429,0.819,0.967,1.573,1.623,2.256c0.882-0.014,4.55-0.072,9.311-0.135C130.856,237.934,130.407,237.309,129.987,236.73z"/>
					<path style="fill:#FFDA08;" d="M149.478,235.255c-0.133,0.029-0.279,0.056-0.417,0.083c0.648,1.034,1.283,2.061,1.897,3.076
						c4.516-0.01,8.034,0.022,9.09,0.129c1.002-0.75,1.355-1.706,1.479-2.741c-0.223-1.986-0.456-3.96-0.705-5.857
						c5.121-1.629-0.233-5.525-0.233-5.525l-4.079-10.939c-3.565-6.039-8.416-7.852-8.416-7.852l-1.494-0.22l-0.441-0.074
						l-0.443,0.022c0.023,0.407-0.131,0.843-0.48,1.094c-2.781,1.998-7.121,0.334-10.279,0.629c-0.753,0.07-1.238-0.329-1.456-0.871
						l-0.535,0.061c0.019,0.022,0.024,0.047,0.045,0.069C140.428,213.956,146.167,224.499,149.478,235.255z"/>
					<path style="fill:#FFDA08;" d="M157.697,250.13c0.16-0.09,0.32-0.19,0.48-0.29c0.04,0.28-0.04,0.56-0.21,0.78
						c0.05,0.09,0.1,0.18,0.15,0.27c0.43,0.08,0.91,0,1.35,0.09c0.56,0.11,1.06,0.85,0.61,1.21l0.2,0.85
						c-0.26,0.16-0.5,0.32-0.75,0.48c0.46,0.88,0.72,1.38,0.72,1.38l4.48,4.06c-0.5-0.8-0.77-1.23-0.77-1.23l-2.383-9.61
						l-5.001-0.023C156.975,248.818,157.352,249.501,157.697,250.13z"/>
					<path style="fill:#FFDA08;" d="M215.377,348.25c-4.18-12.42-23.97-45.85-37.74-68.42c-8.07-4.66-25.03-14.6-29.34-18.42
						c-0.44,0.31-0.93,0.55-1.43,0.39c-0.9-0.3-0.85-1.59-0.63-2.51c-0.57,0.05-1.19,0.1-1.7-0.16c-0.52-0.27-0.84-0.98-0.5-1.45
						c0.17-0.24,0.46-0.34,0.75-0.41c-1.949-2.54-4.35-5.866-6.771-9.258l-20.766-0.095l-0.003,0.003c0,0-15.18,17.03-5.38,34.18
						c9.8,17.15,64.05,58.42,63.7,64.92c-0.22,4.22-37.54,61.93-23.89,66.77l5.39,2.57l4.46,2.14l4.24,2.02
						C172.847,424.41,222.087,368.17,215.377,348.25z"/>
					<path style="fill:#FFB200;" d="M132.035,239.917l-7.019,0.306l-0.299,0.555l8.291,0.181c-0.247-0.347-0.488-0.687-0.726-1.022
						C132.199,239.931,132.117,239.924,132.035,239.917z"/>
					<path style="fill:#FFB200;" d="M124.235,240.768l0.18-1.414c-0.646-0.045-1.292-0.1-1.938-0.149
						c-0.168-0.152-0.31-0.319-0.464-0.48c-0.132,0.002-0.225,0.004-0.225,0.004c-3.072,1.172-3.588,5.447-4.543,9.188h0.005
						l6.157-7.167L124.235,240.768z"/>
					<path style="fill:#FFB200;" d="M159.863,238.704l-8.506,0.368c0.472,0.786,0.935,1.565,1.381,2.328l7.21,0.16l1.627,6.56
						l0.114,0.001c0.122-3.364,0.689-6.886-1.295-9.503c0-0.028-0.133-0.052-0.346-0.074c-0.018,0.013-0.031,0.027-0.049,0.04
						C159.947,238.621,159.907,238.664,159.863,238.704z"/>
					<path style="fill:#FFB200;" d="M124.415,239.354l-0.18,1.414l0.481,0.01l0.299-0.555l7.019-0.306
						c0.083,0.006,0.165,0.014,0.247,0.02c-0.328-0.463-0.647-0.911-0.958-1.347c-4.761,0.063-8.429,0.12-9.311,0.135
						c0.154,0.16,0.296,0.328,0.464,0.48C123.123,239.254,123.769,239.309,124.415,239.354z"/>
					<path style="fill:#FFB200;" d="M150.958,238.415c0.133,0.219,0.268,0.44,0.399,0.658l8.506-0.368
						c0.044-0.041,0.085-0.083,0.136-0.12c0.018-0.013,0.032-0.027,0.049-0.04C158.992,238.436,155.474,238.405,150.958,238.415z"/>
					<path style="fill:#FFB200;" d="M152.737,241.4c1.442,2.445,2.738,4.727,3.836,6.697l5.001,0.023l-1.627-6.56L152.737,241.4z"/>
					<path style="fill:#FFB200;" d="M136.447,245.81c-1.18-1.67-2.35-3.31-3.44-4.85l-8.291-0.181l-0.632,1.172l0.151-1.183
						l-0.828-0.018l-6.157,7.167l20.766,0.095C137.493,247.278,136.968,246.543,136.447,245.81z"/>
					<polygon style="fill:#FFB200;" points="124.085,241.951 124.716,240.779 124.235,240.768 					"/>
					<g>
						<path style="fill:#FFDA08;" d="M149.061,235.339c-4.699,0.949-12.437,1.217-19.182,1.24c0.037,0.051,0.071,0.099,0.108,0.151
							c0.42,0.579,0.868,1.204,1.337,1.861c5.988-0.079,13.665-0.164,19.634-0.177C150.344,237.4,149.709,236.373,149.061,235.339z"
							/>
					</g>
					<g>
						<path style="fill:#FFDA08;" d="M146.377,231.15c-0.01-0.01-0.01-0.02-0.02-0.04c-0.37-0.55-0.74-1.1-1.11-1.65
							c-0.04-0.06-0.08-0.12-0.12-0.18c-0.36-0.54-0.73-1.07-1.1-1.6c-0.02-0.03-0.04-0.06-0.06-0.09c-0.35-0.51-0.7-1.01-1.06-1.5
							c-0.04-0.06-0.08-0.12-0.13-0.18c-0.35-0.48-0.69-0.96-1.04-1.43c-0.07-0.1-0.15-0.19-0.22-0.29
							c-0.34-0.46-0.69-0.91-1.03-1.36c-0.06-0.07-0.11-0.14-0.17-0.21c-0.33-0.42-0.65-0.84-0.98-1.24
							c-0.04-0.05-0.09-0.11-0.13-0.16c-0.34-0.42-0.68-0.83-1.02-1.23c-0.08-0.08-0.15-0.17-0.23-0.26
							c-0.33-0.39-0.66-0.76-0.99-1.13c-0.07-0.07-0.13-0.14-0.2-0.21c-0.33-0.35-0.66-0.7-0.98-1.03
							c-0.02-0.02-0.04-0.05-0.06-0.07c-0.34-0.34-0.67-0.66-1-0.97c-0.06-0.06-0.13-0.12-0.19-0.18c-0.32-0.29-0.64-0.57-0.95-0.83
							l-0.18-0.15c-0.32-0.26-0.64-0.51-0.96-0.74c-0.01-0.01-0.03-0.02-0.05-0.03c-0.3-0.22-0.6-0.41-0.9-0.59
							c-0.05-0.03-0.1-0.06-0.14-0.09c-0.3-0.17-0.59-0.32-0.87-0.45c-0.06-0.02-0.11-0.05-0.16-0.07c-0.29-0.12-0.57-0.23-0.85-0.3
							c-0.02-0.01-0.05-0.01-0.07-0.02c-0.27-0.07-0.53-0.11-0.79-0.13c-0.03-0.01-0.06-0.01-0.09-0.01
							c-0.26-0.02-0.51-0.01-0.75,0.03c-0.04,0.01-0.09,0.01-0.13,0.02c-0.24,0.05-0.48,0.12-0.7,0.22c-0.01,0-0.02,0.01-0.03,0.01
							c-0.13,0.05-0.24,0.11-0.35,0.18c-0.77,0.52-1.41,1.07-1.95,1.65c-0.06,0.06-0.11,0.13-0.17,0.19
							c-0.07,0.08-0.14,0.15-0.2,0.22c-0.03,0.04-0.05,0.07-0.08,0.11c-0.08,0.1-0.16,0.2-0.23,0.3c-0.07,0.09-0.14,0.19-0.21,0.29
							c-0.07,0.1-0.13,0.19-0.19,0.29c-0.07,0.11-0.13,0.21-0.19,0.31c-0.05,0.1-0.11,0.2-0.16,0.29c-0.06,0.12-0.11,0.23-0.16,0.35
							c-0.04,0.09-0.09,0.18-0.12,0.27c-0.07,0.14-0.12,0.29-0.17,0.44c-0.02,0.06-0.05,0.12-0.07,0.18
							c-0.06,0.21-0.12,0.42-0.17,0.64c-0.02,0.05-0.02,0.11-0.04,0.16c-0.03,0.16-0.07,0.33-0.09,0.49
							c-0.01,0.07-0.02,0.14-0.03,0.22c-0.02,0.15-0.04,0.3-0.05,0.45c-0.01,0.07-0.01,0.15-0.01,0.22
							c-0.01,0.15-0.02,0.31-0.02,0.46v0.21c0,0.16,0,0.33,0.01,0.49c0.01,0.06,0.01,0.12,0.01,0.19c0.02,0.18,0.03,0.35,0.05,0.53
							c0.01,0.05,0.01,0.1,0.02,0.14c0.03,0.22,0.06,0.43,0.1,0.65v0.03c0.18,0.95,0.46,1.9,0.81,2.84c0,0.01,0.01,0.02,0.01,0.04
							c0.09,0.22,0.17,0.44,0.26,0.66c0.01,0.01,0.02,0.03,0.02,0.04c0.1,0.22,0.19,0.44,0.29,0.66c0.01,0.01,0.01,0.02,0.02,0.03
							c0.52,1.16,1.14,2.28,1.8,3.34c0.01,0.03,0.02,0.05,0.04,0.07c0.11,0.18,0.22,0.35,0.33,0.53c0.04,0.05,0.07,0.11,0.11,0.17
							c0.09,0.13,0.17,0.27,0.26,0.4c0.06,0.08,0.11,0.16,0.17,0.24c0.06,0.1,0.12,0.19,0.19,0.28c0.07,0.12,0.15,0.23,0.23,0.34
							c0.03,0.04,0.06,0.09,0.09,0.14c0.35,0.48,0.69,0.96,1.02,1.4c0.503,0.664,1.107,1.494,1.782,2.439
							c6.745-0.023,14.483-0.291,19.182-1.24C148.186,233.944,147.293,232.541,146.377,231.15z"/>
					</g>
					<g>
						<path style="fill:#FFB200;" d="M159.527,253.52c0.25-0.16,0.49-0.32,0.75-0.48l-0.2-0.85c0.45-0.36-0.05-1.1-0.61-1.21
							c-0.44-0.09-0.92-0.01-1.35-0.09c-0.05-0.09-0.1-0.18-0.15-0.27c0.17-0.22,0.25-0.5,0.21-0.78c-0.16,0.1-0.32,0.2-0.48,0.29
							c-0.346-0.629-0.723-1.312-1.124-2.033l-18.557-0.085c2.421,3.392,4.822,6.717,6.771,9.258c-0.29,0.07-0.58,0.17-0.75,0.41
							c-0.34,0.47-0.02,1.18,0.5,1.45c0.51,0.26,1.13,0.21,1.7,0.16c-0.22,0.92-0.27,2.21,0.63,2.51c0.5,0.16,0.99-0.08,1.43-0.39
							c4.31,3.82,21.27,13.76,29.34,18.42c-6.12-10.03-11.05-17.92-12.9-20.86l-0.01-0.01l-4.48-4.06
							C160.247,254.9,159.987,254.4,159.527,253.52z"/>
					</g>
					<g>
						<path style="fill:#FF8C00;" d="M151.357,239.072l-10.771,0.465v0.012l0.282,1.213c-2.858-0.369-5.716-0.609-8.585-0.825
							c0.238,0.335,0.479,0.675,0.726,1.022l19.73,0.44C152.292,240.637,151.829,239.858,151.357,239.072z"/>
					</g>
					<g>
						<path style="fill:#FF8C00;" d="M140.585,239.55v-0.012l10.771-0.465c-0.131-0.218-0.266-0.438-0.399-0.658
							c-5.969,0.013-13.646,0.098-19.634,0.177c0.31,0.435,0.629,0.884,0.958,1.347c2.869,0.216,5.728,0.456,8.585,0.825
							L140.585,239.55z"/>
					</g>
					<g>
						<path style="fill:#FF8C00;" d="M152.737,241.4l-19.73-0.44c1.09,1.54,2.26,3.18,3.44,4.85
							c0.521,0.733,1.045,1.468,1.569,2.202l18.557,0.085C155.475,246.127,154.18,243.845,152.737,241.4z"/>
					</g>
				</g>
				<path style="fill:#FFB200;" d="M136.917,201.583c-0.249,0.026-10.083,2.083-10.083,2.083l6,5.333l-3,2.917l21.333,7.917
					l2.5-11.5L150.5,208.5l1.583-5.917C152.083,202.583,144.167,200.833,136.917,201.583z"/>
				<path style="fill:#FEA574;" d="M132.687,206.298c1.272,1.429,15.893,9.136,15.893,9.136s0.413-7.853-1.984-10.025l-0.439-0.068
					l-8.778,0.428L132.687,206.298z"/>
				<polygon style="fill:#FEA574;" points="143.197,206.52 135.867,206.78 135.777,192.76 141.447,195.45 142.377,201.31 
					142.827,204.18 				"/>
				<g>
					<g>
						<path style="fill:#FEA574;" d="M129.984,193.412c0.036,4.466,4.691,8.053,9.155,8.018c4.894-0.043,6.815-0.414,7.565-2.129
							c0.258-0.582,0.378-1.339,0.429-2.284c0.059-1.013,0.039-2.238,0.018-3.747c-0.048-4.456-3.691-8.054-8.156-8.007
							C134.532,185.299,129.948,188.945,129.984,193.412z"/>
						<path style="fill:none;stroke:#1B193B;stroke-width:0.75;stroke-miterlimit:10;" d="M140.933,191.796
							c0,0-1.669-1.086-4.054,0.813"/>
						<path style="fill:none;stroke:#1B193B;stroke-width:0.75;stroke-miterlimit:10;" d="M143.678,191.469
							c0,0,1.038-1.032,3.05-0.462"/>
						<path style="fill:none;stroke:#F05E4A;stroke-width:0.5;stroke-miterlimit:10;" d="M142.717,196.956l2.104-0.557
							c-0.542-1.248-1.445-1.021-1.492-4.293"/>
					</g>
					<g>
						<g>
							<path style="fill:#1B193B;" d="M145.727,194.632c0.965,0,0.967-1.5,0-1.5C144.762,193.132,144.76,194.632,145.727,194.632
								L145.727,194.632z"/>
						</g>
					</g>
					<g>
						<g>
							<path style="fill:#1B193B;" d="M140.218,195.244c0.965,0,0.967-1.5,0-1.5C139.253,193.744,139.251,195.244,140.218,195.244
								L140.218,195.244z"/>
						</g>
					</g>
				</g>
				<g>
					<path style="fill:#1B193B;" d="M45.747,427.318l8.544,1.15c1.235,0.492,16.023,5.33,16.383,7.156
						c0.379,1.923-26.251-0.442-26.251-0.442C42.032,433.625,43.119,430.761,45.747,427.318z"/>
				</g>
				<g>
					<path style="fill:#F58C62;" d="M218.295,212.334c0.733-0.415,1.523-0.743,2.278-1.151c0.803-0.434,1.431-0.795,2.213-0.96
						c0.036-0.01,0.073-0.019,0.11-0.028c-0.424-0.006-0.689,0.002-0.689,0.002s7.363-2.432,6.906-3.35
						c-0.457-0.918-6.383,1.603-6.383,1.603s6.307-5.017,5.688-5.885c-0.619-0.868-7.086,4.198-7.086,4.198s4.287-5.279,3.396-5.888
						c-0.891-0.608-10.568,9.231-10.736,9.547C213.844,210.702,217.45,212.028,218.295,212.334z"/>
					<path style="fill:#F58C62;" d="M222.301,209.776c0,0,5.343-0.735,5.219-0.249c-0.124,0.486-10.587,6.287-12.218,4.726
						c-1.631-1.561-1.31-3.83-1.31-3.83l4.277-1.55l4.044,0.769"/>
					<path style="fill:#F58C62;" d="M213.992,210.423c0.17-0.071,0.694-3.437,0.694-3.437s-0.12-1.027,1.336-2.35
						c1.456-1.322,3.853-1.602,4.421-2.085c0.568-0.483,0.785,1.255-1.276,2.273c-2.061,1.018-1.446,3.307-1.446,3.307
						L213.992,210.423z"/>
				</g>
				<g>
					<path style="fill:#FFDA08;" d="M181.066,233.201c0.553-5.762,1.105-11.525,1.658-17.287c0.032-0.331,0.076-0.69,0.309-0.927
						c0.233-0.237,0.723-0.227,0.827,0.089c0.067,0.203-0.051,0.424-0.019,0.636c0.059,0.389,0.607,0.522,0.946,0.323
						c0.339-0.199,0.51-0.587,0.659-0.951c0.928,1.194,0.738,2.878,0.533,4.376c-0.655,4.771-1.01,9.583-1.062,14.399
						c-0.544-0.164-0.976-0.654-1.07-1.215c-0.243,0.616-1.08,0.906-1.653,0.574"/>
				</g>
				<path style="fill:#F58C62;" d="M142.827,204.18c-1.29-0.15-3.16-0.89-5.13-3.4c0,0,2.48,0.67,4.68,0.53L142.827,204.18z"/>
				<path style="fill:#FEFEFE;" d="M140.734,197.785l3.833,0.375c0,0-0.208,2.208-2.333,2.125S140.734,197.785,140.734,197.785z"/>
			</g>
			<g>
				<path style="fill:#1B193B;" d="M136.029,200.701c-0.406-0.771-0.812-1.543-1.217-2.314c-0.131-0.25-0.284-0.52-0.538-0.613
					c-0.254-0.093-0.528,0.019-0.795,0.056c-1.046,0.145-1.918-0.889-2.301-1.936c-0.227-0.619-0.357-1.307-0.195-1.948
					c0.162-0.641,0.676-1.213,1.298-1.249c0.876-0.051,1.504,0.883,1.831,1.751c0.327,0.868,0.598,1.87,1.36,2.334
					c0.172-2.254-0.103-4.546-0.802-6.681c1.14,0.415,2.51-0.691,2.444-1.974c0.419,0.843,1.412,1.307,2.278,1.066
					c0.865-0.241,1.518-1.164,1.498-2.118c0.545,0.104,0.985,0.516,1.408,0.897s0.9,0.763,1.453,0.785
					c0.553,0.023,1.149-0.502,1.018-1.076c0.342,0.636,1.193,0.803,1.821,0.505c0.628-0.298,1.053-0.947,1.313-1.626
					c0.374-0.974,0.45-2.156-0.099-3.03c-0.549-0.875-1.852-1.207-2.556-0.469c-0.936-1.929-3.62-2.082-5.375-0.98
					c-0.283,0.177-0.566,0.384-0.892,0.42c-0.345,0.038-0.679-0.121-0.997-0.27c-1.932-0.91-3.99-1.611-6.101-1.635
					c-2.111-0.025-4.292,0.691-5.784,2.285c-1.492,1.594-2.153,4.137-1.321,6.207c-1.608,0.898-2.219,3.17-1.749,5.04
					c0.47,1.87,1.791,3.368,3.245,4.526c0.98,0.781,2.052,1.451,3.221,1.837c2.033,0.67,4.22,0.441,6.334,0.183"/>
			</g>
			<g>
				<path style="fill:#1B193B;" d="M124.662,192.515c-0.797,1.814-2.411,3.186-4.222,3.99s-3.813,1.087-5.792,1.163
					c-0.745,0.029-1.599-0.019-2.069-0.597c-0.401-0.493-0.366-1.238-0.064-1.797c0.302-0.559,0.824-0.965,1.358-1.31
					c1.308-0.846,2.787-1.427,4.321-1.699c-3.648,1.014-7.783,0.055-10.613-2.46c-0.757-0.673-1.469-1.583-1.346-2.589
					c0.125-1.017,1.063-1.737,2.007-2.135c2.023-0.854,4.429-0.744,6.367,0.289c-1.819-0.589-3.232-2.011-4.496-3.445
					c-1.199-1.359-2.376-2.867-2.651-4.659c-0.275-1.791,0.7-3.896,2.477-4.254c1.465-0.295,2.876,0.631,4.047,1.56
					c1.797,1.425,3.498,2.97,5.089,4.622c-0.395-1.498-1.093-2.927-1.246-4.47c-0.153-1.542,0.431-3.323,1.864-3.914
					c1.626-0.669,3.478,0.525,4.401,2.021c0.923,1.496,1.274,3.28,2.117,4.823c-0.155-1.165-0.31-2.358-0.055-3.506
					c0.255-1.147,1.008-2.257,2.131-2.602c1.066-0.327,2.262,0.11,3.062,0.887c0.799,0.777,1.255,1.844,1.544,2.922
					c0.972,3.63,0.161,7.693-2.13,10.671"/>
			</g>
			<g>
				<g>
					<path style="fill:#FFB200;" d="M148.477,218.5c5.622,8.217,8.362,17.539,8.056,27.493c-0.04,1.287,1.961,1.286,2,0
						c0.316-10.27-2.525-20.02-8.329-28.503C149.481,216.435,147.747,217.434,148.477,218.5L148.477,218.5z"/>
				</g>
			</g>
		</g>
		<g>
			<path style="fill:#FC542D;" d="M320.45,274.333h-9.61c-1.89-10.47-6.02-20.17-11.88-28.58l6.82-6.82
				c4.03-4.02,4.03-10.55,0-14.57l-3.81-3.81c-4.02-4.03-10.55-4.03-14.57,0l-6.82,6.82c-8.41-5.86-18.11-9.99-28.58-11.88v-9.61
				c0-5.69-4.61-10.3-10.3-10.3h-5.4c-5.69,0-10.3,4.61-10.3,10.3v9.61c-10.47,1.89-20.17,6.02-28.58,11.88l-6.82-6.82
				c-4.02-4.03-10.55-4.03-14.57,0l-3.81,3.81c-4.03,4.02-4.03,10.55,0,14.57l6.82,6.82c-5.86,8.41-9.99,18.11-11.88,28.58h-9.61
				c-5.69,0-10.3,4.61-10.3,10.3v5.4c0,5.69,4.61,10.3,10.3,10.3h9.61c1.89,10.47,6.02,20.17,11.88,28.58l-6.82,6.82
				c-4.03,4.02-4.03,10.55,0,14.57l3.81,3.81c4.02,4.03,10.55,4.03,14.57,0l6.82-6.82c8.41,5.86,18.11,9.99,28.58,11.88v9.61
				c0,5.69,4.61,10.3,10.3,10.3h5.4c5.69,0,10.3-4.61,10.3-10.3v-9.61c10.47-1.89,20.17-6.02,28.58-11.88l6.82,6.82
				c4.02,4.03,10.55,4.03,14.57,0l3.81-3.81c4.03-4.02,4.03-10.55,0-14.57l-6.82-6.82c5.86-8.41,9.99-18.11,11.88-28.58h9.61
				c5.69,0,10.3-4.61,10.3-10.3v-5.4C330.75,278.943,326.14,274.333,320.45,274.333z M284.717,299.384
				c-1.103,4.162-2.753,8.111-4.885,11.744c-4.116,7.035-10.002,12.922-17.037,17.037c-3.634,2.132-7.582,3.782-11.744,4.885
				c-3.847,1.02-7.888,1.557-12.05,1.557s-8.203-0.538-12.05-1.557c-4.162-1.103-8.111-2.753-11.744-4.885
				c-7.035-4.116-12.921-10.002-17.037-17.037c-2.132-3.634-3.782-7.582-4.885-11.744c-1.02-3.847-1.557-7.888-1.557-12.05
				c0-4.162,0.538-8.204,1.557-12.05c1.103-4.162,2.753-8.111,4.885-11.744c4.116-7.035,10.002-12.921,17.037-17.037
				c3.634-2.132,7.582-3.782,11.744-4.885c3.847-1.02,7.888-1.557,12.05-1.557s8.203,0.538,12.05,1.557
				c4.162,1.103,8.111,2.753,11.744,4.885c7.036,4.116,12.922,10.002,17.037,17.037c2.132,3.634,3.782,7.582,4.885,11.744
				c1.02,3.847,1.557,7.888,1.557,12.05C286.274,291.495,285.736,295.537,284.717,299.384z"/>
			<g>
				<g>
					<path style="fill:#FEFEFE;" d="M296.346,248.17c3.052,3.639,5.586,7.706,7.555,12.026c1.973,4.32,3.389,8.883,4.347,13.529
						l-0.245,0.05c-0.883-2.232-1.737-4.429-2.572-6.611c-0.447-1.081-0.849-2.173-1.318-3.238
						c-0.432-1.079-0.909-2.137-1.384-3.195c-0.939-2.123-2.006-4.179-3.077-6.253l-0.836-1.541c-0.292-0.507-0.6-1.004-0.884-1.521
						l-0.876-1.543c-0.317-0.498-0.613-1.015-0.901-1.544L296.346,248.17z"/>
				</g>
				<g>
					<path style="fill:#FEFEFE;" d="M300.506,222.425c0.958,0.571,1.83,1.262,2.641,2.029c0.806,0.77,1.546,1.626,2.149,2.59
						c0.591,0.961,1.132,2.01,1.286,3.18c0.171,1.154,0.002,2.374-0.561,3.363l-0.233-0.09c0.171-1.08,0.142-2.099-0.11-3.091
						c-0.236-0.993-0.708-1.931-1.235-2.834c-0.539-0.9-1.179-1.756-1.877-2.571c-0.694-0.817-1.43-1.618-2.208-2.376
						L300.506,222.425z"/>
				</g>
			</g>
			<g>
				<path style="fill:#FEFEFE;" d="M190.441,303.226c0.033-0.002,0.068-0.032,0.077-0.063c0.005-0.005,0.006,0.013,0.006,0.013
					s0.002,0.047,0.004,0.077c-0.001,0.06,0.024,0.151,0.033,0.224c0.036,0.162,0.081,0.325,0.132,0.489
					c0.106,0.329,0.226,0.656,0.359,0.981c0.257,0.652,0.543,1.296,0.852,1.93c0.616,1.268,1.307,2.502,2.047,3.702
					c1.459,2.413,3.108,4.704,4.887,6.876c3.581,4.324,7.742,8.153,12.426,11.19c4.669,3.057,9.845,5.313,15.264,6.744
					c5.429,1.408,11.085,2.022,16.789,2.029l0.032,0.499c-5.697,0.732-11.573,0.617-17.275-0.612
					c-2.852-0.597-5.648-1.482-8.354-2.589c-2.695-1.133-5.293-2.506-7.743-4.104c-4.89-3.215-9.185-7.302-12.656-11.969
					c-1.744-2.328-3.279-4.805-4.586-7.394c-0.641-1.301-1.227-2.629-1.734-3.988c-0.253-0.68-0.489-1.367-0.683-2.071
					c-0.094-0.353-0.176-0.711-0.244-1.075c-0.032-0.183-0.059-0.37-0.076-0.562c-0.001-0.105-0.016-0.191-0.004-0.31
					c0.006-0.059,0.001-0.103,0.027-0.189c0.012-0.04,0.018-0.071,0.04-0.116c0.038-0.065,0.103-0.128,0.165-0.165L190.441,303.226z
					"/>
			</g>
		</g>
		<g>
			<g>
				<path style="fill:#FEA574;" d="M187.456,271.161c0,0,9.07,3.662,9.195,4.345c0.125,0.683-1.536,0.385-1.488,0.853
					c0.048,0.468,1.527,1.002,1.267,1.897c-0.259,0.895-1.953,0.438-1.953,0.438s1.64,0.913,1.431,1.813
					c-0.209,0.9-2.228,0.149-2.228,0.149s1.378,0.522,1.309,1.542c-0.069,1.02-2.74,0.14-4.685-0.809
					c-1.944-0.948-5.504-3.886-4.916-5.821C185.976,273.632,187.456,271.161,187.456,271.161z"/>
				<path style="fill:#FEA574;" d="M150.522,257.276c-4.173-4.14-16.299-20.319-20.795-25.782
					c-4.496-5.463-10.59-14.815-2.478-20.85c8.944-6.168,35.535,40.13,35.535,40.13l24.671,20.387l-1.744,6.01
					C185.712,277.17,154.695,261.416,150.522,257.276z"/>
				<path style="fill:#FFE524;" d="M161.317,248.29c-1.53,1.28-3.1,2.54-4.73,3.74c-2.12,1.54-4.4,3.11-6.3,5
					c-4.38-4.49-16.15-20.17-20.56-25.54c-3.99-4.84-9.24-12.75-4.7-18.69c0.57-0.76,1.3-1.48,2.22-2.16
					c0.11-0.08,0.22-0.14,0.34-0.2C135.527,206.3,155.717,238.9,161.317,248.29z"/>
				<path style="fill:#FEA574;" d="M186.903,271.221c1.991-0.766,3.879-1.735,5.053-0.408c1.174,1.327,3.369,1.582,3.369,1.582
					s-0.153,1.072-1.429,1.072c-1.276,0-2.144-1.123-2.144-1.123l-2.756,1.48L186.903,271.221z"/>
				<g>
					<path style="fill:#FFDA08;" d="M162.727,248.919c-3.931,2.658-7.703,5.551-11.289,8.658c-0.485,0.42-1.087,0.874-1.704,0.698
						c-0.918-0.262-0.929-1.547-0.743-2.483c-0.573,0.083-1.185,0.161-1.711-0.082c-0.526-0.242-0.885-0.938-0.565-1.421
						c0.237-0.358,0.712-0.446,1.128-0.554c1.176-0.304,2.212-0.987,3.224-1.659c3.139-2.086,6.279-4.172,9.418-6.258
						c0.075,0.355-0.067,0.747-0.352,0.971c0.524,0.221,1.129,0.022,1.691,0.105c0.563,0.083,1.099,0.805,0.67,1.179"/>
				</g>
			</g>
		</g>
	</g>
	<g>
		<g>
			<g>
				<g>
					<path style="fill:#66393B;" d="M543.248,216.325l-37.075-21.843l-2.637,4.613c0,0,27.126,33.33,39.979,33.703
						C547.733,230.525,543.248,216.325,543.248,216.325z"/>
					<path style="fill:#FFB200;" d="M536.431,211.071c-8.721-5.585-19.442-11.937-19.442-11.937l-6.409,11.107
						c0,0,25.85,25.014,36.312,25.675c0.796-0.219,1.431-0.609,1.959-1.054C545.687,229.161,536.124,209.686,536.431,211.071z"/>
				</g>
				<g>
					<polygon style="fill:#784346;" points="667.602,326.89 684.137,307.182 692.436,310.628 677.798,332.918 					"/>
					<polygon style="fill:#784346;" points="532.977,407.642 527.206,432.892 518.188,433.614 521.074,406.921 					"/>
					<path style="fill:#FFB200;" d="M520.413,415.45c-1.5-0.111-2.997-0.257-4.493-0.417c0.15-13.319,1.119-32.479,4.931-47.38
						c6.507-25.437,46.142-84.594,46.142-84.594s46.734,14.198,42.593,23.071c-46.206,36.274-67.19,86.096-75.155,110.361
						C529.768,416.029,525.075,415.794,520.413,415.45z"/>
					<path style="fill:#FFDA08;" d="M616.684,283.06l21.888,62.706l33.525-30.979c1.445,1.521,2.906,3.026,4.393,4.507
						c2.882,2.869,5.826,5.68,8.812,8.446c-9.733,18.555-28.699,47.605-52.054,47.605c-34.311,0-66.255-92.284-66.255-92.284
						H616.684z"/>
					<path style="fill:#1B193B;" d="M679.538,310.124l8.726-12.275c0,0,22.479,18.93,20.705,20.113
						c-1.686,1.124-15.11-4.69-16.447-5.273l-2.261,3.572L679.538,310.124z"/>
					<path style="fill:#1B193B;" d="M528.854,429.006l-1.199,15.012c0,0-29.005-4.729-28.088-6.655
						c0.871-1.83,15.378-3.72,16.825-3.904l0.11-4.227L528.854,429.006z"/>
				</g>
				<path style="fill:#FFB200;" d="M546.892,235.916c4.042,0.271,32.042-0.104,32.042-0.104l0.625-20.25l-33.5,1.75l-9.628-6.241
					l3.753,15.241L546.892,235.916z"/>
				<path style="fill:#FFDA08;" d="M615.102,279.02c0.05,1.72,0.11,3.42,0.18,5.11h-48.69c0.12-1.89,0.22-3.79,0.33-5.69
					c0.04-0.67,0.08-1.33,0.12-1.99c0.06-1.14,0.13-2.27,0.19-3.4c0.04-0.72,0.08-1.43,0.12-2.14c0.04-0.65,0.08-1.28,0.11-1.91
					v-0.07c0.19-3.23,0.39-6.45,0.62-9.61c0.04-0.66,0.09-1.33,0.14-1.99c0.18-2.49,0.38-4.94,0.62-7.33
					c0.06-0.67,0.12-1.33,0.19-1.99c0.24-2.29,0.49-4.51,0.79-6.66c0.09-0.67,0.19-1.33,0.29-1.99c0.41-2.71,0.88-5.3,1.43-7.71
					c0.15-0.69,0.31-1.34,0.46-2c0.56-2.17,1.18-4.18,1.89-6.02c0.26-0.69,0.54-1.37,0.83-2.02c1.14-2.51,2.47-4.6,4.04-6.18h23.77
					c12.802-0.097,11.79,34.02,11.82,34.69c0.14,2.45,0.23,4.96,0.3,7.5c0.03,0.66,0.04,1.33,0.06,1.99
					c0.08,3.17,0.13,6.38,0.19,9.59v0.11c0.01,0.61,0.02,1.25,0.04,1.88c0.01,0.69,0.02,1.39,0.04,2.08
					c0.01,1.25,0.04,2.5,0.07,3.75C615.072,277.68,615.082,278.35,615.102,279.02z"/>
				<path style="fill:#FFB200;" d="M596.335,212.667c0,0,5.333,2.667,5.583,2.667s-5.583,4.167-5.583,4.167l3.667,1.333
					l-17.25,8.833c0,0-2.833-9.167-3.083-9.333c-0.25-0.167,2.5-1.083,2.5-1.083s-2-3.583-2.25-3.75s3.955-3.125,3.955-3.125
					L596.335,212.667z"/>
				<path style="fill:#784346;" d="M585.481,224.419c0,0,11.504-7.17,11.53-9.044h-13.138
					C583.29,218.64,585.481,224.419,585.481,224.419z"/>
				<polyline style="fill:#784346;" points="594.43,203.836 594.864,217.894 587.039,217.894 588.488,206.735 				"/>
				<path style="fill:#784346;" d="M600.225,204.197c0,4.76-3.87,8.62-8.62,8.62c-4.96,0-7.06-0.33-7.96-1.92
					c-0.08-0.13-0.15-0.28-0.21-0.43c-0.13-0.32-0.22-0.68-0.28-1.1c-0.04-0.23-0.06-0.47-0.09-0.73c-0.1-1.15-0.08-2.61-0.08-4.44
					c0-4.75,3.86-8.62,8.62-8.62C596.355,195.577,600.225,199.447,600.225,204.197z"/>
				<g style="display:none;">
					<path style="display:inline;fill:#EDCA02;" d="M526.051,165.633l11.552,35.309l9.275-11.594l-9.804-25.676
						C534.673,164.301,526.051,165.633,526.051,165.633z"/>
					<path style="display:inline;fill:#EDCA02;" d="M537.603,200.941l9.275-11.594c0,0,27.754,22.707,33.35,26.215l3.646-0.126
						l-9.087,50.465c-0.109,0.818-0.188,1.269-0.228,1.269c-0.435,0-17.68-1.739-17.68-1.739l8.34-33.474L537.603,200.941z"/>
				</g>
				<path style="fill:#784346;" d="M579.628,207.156l5.895,1.17l0.452-4.748l-2.727-1.079
					C582.303,204.634,581.201,206.42,579.628,207.156z"/>
				<path style="fill:#784346;" d="M593.56,203.836c0.081,0,2.31-2.337,3.315,0.353c1.005,2.69-1.359,4.918-3.668,3.967"/>
				<g>
					<path style="fill:#1B193B;" d="M586.293,204.982c0.014,0.014,0.028,0.028,0.042,0.042c0.607,0.607-0.335,1.55-0.942,0.942
						c-0.014-0.014-0.028-0.028-0.042-0.042C584.743,205.317,585.685,204.375,586.293,204.982L586.293,204.982z"/>
				</g>
				<path style="fill:#FEFEFE;" d="M587.245,208.007c-0.16,0.05-0.59,2.3-3.81,2.46c-0.13-0.32-0.22-0.68-0.28-1.1
					c-0.04-0.23-0.06-0.47-0.09-0.73C584.595,208.407,587.145,208.007,587.245,208.007z"/>
				<g>
					<path style="fill:#66393B;" d="M505.792,199.73c0,0,2.237-1.979,2.112-3.558c-0.125-1.578-2.435-2.666-3.289-4.242
						c-0.854-1.577-0.796-2.609-0.796-2.609s-1.697,1.401-0.965,2.795c0.732,1.395,1.768,2.85,1.768,2.85s-2.547,1.524-1.811,4.194
						C503.545,201.829,505.792,199.73,505.792,199.73z"/>
					<g>
						<path style="fill:#66393B;" d="M495.037,190.775c0.223,0.007,5.133,0.153,5.076,1.335c-0.057,1.182-4.791,0.349-5.478,0.172
							C493.948,192.106,493.698,190.736,495.037,190.775z"/>
						<path style="fill:#66393B;" d="M494.935,192.693c0.222-0.025,3.951,0.096,4.13,0.838c0.179,0.742-2.928,0.806-4.218,0.634
							S494.151,192.782,494.935,192.693z"/>
						<path style="fill:#66393B;" d="M495.43,194.429c0,0,2.989-0.404,3.102,0.193c0.112,0.597-2.774,1.282-3.607,0.896
							C494.093,195.131,494.577,194.422,495.43,194.429z"/>
						<path style="fill:#66393B;" d="M495.662,195.877c0,0,2.53-0.342,2.625,0.163c0.095,0.505-2.348,1.085-3.052,0.758
							C494.529,196.472,494.94,195.871,495.662,195.877z"/>
					</g>
				</g>
				<g>
					<g>
						<path style="fill:#FFB200;" d="M575.975,272.208c0.627-16.002,1.984-32.113,8.468-46.952c0.51-1.168-1.212-2.187-1.727-1.009
							c-6.639,15.192-8.099,31.573-8.741,47.961C573.924,273.495,575.924,273.493,575.975,272.208L575.975,272.208z"/>
					</g>
				</g>
				<g>
					<g>
						<path style="fill:#FFB200;" d="M586.818,273.216c11.094,27.514,22.413,55.532,40.701,79.194
							c1.964,2.542,4.001,5.026,6.12,7.441c1.099,1.253,2.334,3.203,4.163,3.447c2.434,0.325,5.115-2.258,6.895-3.446
							c2.311-1.543,4.563-3.174,6.754-4.882c11.159-8.695,20.507-19.418,27.809-31.517c0.667-1.105-1.062-2.111-1.727-1.009
							c-6.517,10.799-14.675,20.471-24.354,28.572c-2.619,2.192-5.34,4.266-8.154,6.202c-1.252,0.861-2.679,2.004-4.052,2.662
							c-2.327,1.115-3.321,0.816-5.357-0.801c-4.962-3.94-8.825-10.75-12.368-15.94c-14.81-21.69-24.728-46.218-34.501-70.455
							C588.272,271.506,586.336,272.021,586.818,273.216L586.818,273.216z"/>
					</g>
				</g>
				<g>
					<path style="fill:#FFB200;" d="M614.982,273.27c-16,1.43-32,3.04-47.75-0.22c0.04-0.72,0.08-1.43,0.12-2.14
						c0.04-0.65,0.08-1.28,0.11-1.91c15.62,3.38,31.54,1.76,47.44,0.31c0.01,0.61,0.02,1.25,0.04,1.88
						C614.952,271.88,614.962,272.58,614.982,273.27z"/>
				</g>
				<path style="fill:none;stroke:#1B193B;stroke-width:0.75;stroke-miterlimit:10;" d="M584.835,201.917c0,0,2.833-0.583,3.833,1.5
					"/>
				<g>
					<path style="fill:#1B193B;" d="M592.066,201.824c-0.826,1.726-1.653,3.451-2.479,5.177c0.633,0.442,1.365,0.741,2.126,0.869
						c0.113-0.771,0.23-1.556,0.569-2.257c0.339-0.702,0.94-1.32,1.702-1.482c0.762-0.161,1.661,0.261,1.859,1.014
						c0.124,0.471-0.031,0.977-0.28,1.395c-0.485,0.811-1.341,1.39-2.274,1.537c0.444,1.219,0.888,2.438,1.332,3.656
						c0.034,0.094,0.07,0.191,0.143,0.259c0.162,0.154,0.423,0.102,0.635,0.032c2.795-0.916,5.061-3.301,5.834-6.138
						c1.843,0.129,3.718-0.893,4.609-2.512c0.243-0.442,0.419-0.967,0.262-1.447c-0.157-0.48-0.769-0.819-1.191-0.543
						c0.888-1.401,1.245-3.131,0.982-4.769c-0.118-0.736-0.415-1.524-1.078-1.866c-0.663-0.341-1.692,0.123-1.609,0.864
						c0.243-1.384-0.312-2.88-1.399-3.77c-1.057-0.866-2.891-0.994-3.617,0.164c-0.463-1.032-1.193-1.942-2.099-2.618
						c-0.619-0.461-1.37-0.824-2.136-0.735c-0.766,0.089-1.494,0.773-1.402,1.539c-0.876-0.368-1.755-0.726-2.639-1.075
						c-0.764-0.302-1.597-0.6-2.389-0.384c-0.792,0.217-1.409,1.2-0.954,1.883c-0.782-0.336-1.634-0.509-2.486-0.506
						c-0.694,0.003-1.447,0.155-1.898,0.682c-0.451,0.528-0.373,1.508,0.275,1.756c-0.49-0.127-1.018,0.143-1.322,0.548
						s-0.422,0.918-0.484,1.42c-0.087,0.712-0.056,1.498,0.396,2.056c0.583,0.719,1.63,0.804,2.555,0.832
						c0.677,0.02,1.399,0.029,1.97-0.334c-0.642,0.086-0.895,0.989-0.555,1.54c0.341,0.551,1.029,0.78,1.673,0.844
						c1.101,0.11,2.235-0.151,3.177-0.731c-0.133,0.717-0.265,1.435-0.398,2.152c-0.039,0.21-0.077,0.432-0.006,0.633
						c0.141,0.401,0.628,0.54,1.045,0.622c0.964,0.189,1.929,0.378,2.893,0.568"/>
				</g>
			</g>
			<g>
				<g>
					<polygon style="fill:#e2e8f0;" points="622.163,314.121 606.91,325.414 522.172,211.113 505.619,188.792 515.152,188.676 
						520.472,176.943 537.217,199.53 					"/>
				</g>
				<path style="fill:#FC542D;" d="M631.305,311.666l-32.506-43.331l0.001-0.001l-24.935-33.236l-6.166-8.217
					c-2.259,1.628-4.715,3.4-7.265,5.224c-4.717,3.388-9.769,7.016-14.554,10.464c-2.608,1.87-5.146,3.692-7.51,5.387l6.609,8.805
					l24.935,33.236l0,0l32.509,43.335L631.305,311.666z"/>
				<path style="fill:#FE6B75;" d="M624.141,317.033l-8.056,6.041l-64.076-84.913c2.839-2.044,5.689-4.09,8.424-6.055l11.591,15.453
					L624.141,317.033z"/>
				<g>
					<path style="fill:#e2e8f0;" d="M537.217,199.53c-2.675,3.273-5.899,6.191-9.641,8.621c-1.755,1.134-3.556,2.122-5.404,2.962
						c-18.523,8.465-40.949,2.303-52.352-15.312c-8.409-12.97-8.686-28.872-2.142-41.701l22.587,34.865l15.354-0.173l9.533-0.117
						l5.32-11.733l4.845-10.68l-22.588-34.878c14.395-0.713,28.788,6.041,37.184,19.012
						C550.033,166.023,548.395,185.856,537.217,199.53z"/>
				</g>
				<path style="fill:#FEFEFE;" d="M509.071,135.868c3.467,0.055,6.772,0.986,9.922,2.265c3.134,1.313,6.111,3.028,8.759,5.164
					c0.689,0.5,1.287,1.11,1.934,1.659l0.954,0.846l0.882,0.92l1.75,1.854l1.588,1.993l0.794,0.997l0.708,1.059l1.411,2.122
					c0.887,1.446,1.655,2.965,2.488,4.444l-0.266,0.132c-1.227-1.27-2.208-2.636-3.31-3.903l-1.644-1.881
					c-0.279-0.306-0.522-0.637-0.789-0.949l-0.857-0.886c-0.578-0.583-1.131-1.179-1.664-1.79l-1.768-1.664l-0.857-0.851
					l-0.918-0.78c-0.62-0.509-1.202-1.066-1.847-1.538l-1.896-1.473c-0.654-0.46-1.348-0.857-1.991-1.339
					c-1.331-0.893-2.736-1.669-4.157-2.445c-2.864-1.483-5.92-2.788-9.185-3.66L509.071,135.868z"/>
				<path style="fill:#FEFEFE;" d="M482.121,204.13c4.362,1.747,8.533,3.395,12.839,4.627c2.14,0.646,4.306,1.167,6.503,1.627
					c2.202,0.509,4.431,0.769,6.78,1.243l0.025,0.296c-2.321,0.124-4.659,0.178-6.967-0.144c-2.31-0.264-4.598-0.736-6.82-1.42
					c-2.226-0.667-4.405-1.498-6.502-2.5c-2.097-1.004-4.127-2.143-6.035-3.491L482.121,204.13z"/>
			</g>
		</g>
		<g>
			<g>
				<path style="fill:#784346;" d="M624.272,261.412l-42.631-5.855l-1.576,5.658c0,0,38.804,19.906,50.806,15.293
					C633.886,272.784,624.272,261.412,624.272,261.412z"/>
				<path style="fill:#FFE419;" d="M600.909,215.713c-8.551,3.107-5.577,16.215-2.892,22.646c2.685,6.43,9.286,15.942,12.987,20.774
					c-10.264-1.379-22.665-2.609-22.665-2.609l-1.118,12.774c0,0,33.996,11.755,43.758,7.937c1.954-1.662,1.951-4.149,2.02-5.086
					C633.633,263.56,613.467,210.778,600.909,215.713z"/>
			</g>
			<g>
				<path style="fill:#784346;" d="M577.924,251.204c-0.572-0.349-1.296-0.506-2.397-0.143c-0.744,0.245-4.065,2.501-4.247,3.248
					c-0.182,0.747,2.859,5.59,4.476,4.475c1.242-0.288,1.625-0.81,1.739-1.055c-0.131,0.386-0.476,1.61,0.083,2.508
					c0.67,1.078,3.144,1.138,3.144,1.138l2.137-4.138C582.859,257.237,578.496,251.553,577.924,251.204z"/>
				<path style="fill:#784346;" d="M576.811,255.925c0,0-2.814,2.717-2.36,3.443c0.454,0.726,1.624,2.061,2.517,1.813
					c0.893-0.248-0.098-1.112-0.098-1.112l-0.879-0.709l2.201-2.107L576.811,255.925z"/>
				<g>
					<g>
						<path style="fill:#47222C;" d="M575.082,258.743c0.918-0.683,1.836-1.366,2.754-2.049c0.511-0.38,0.012-1.248-0.505-0.863
							c-0.918,0.683-1.836,1.366-2.754,2.049C574.067,258.259,574.565,259.128,575.082,258.743L575.082,258.743z"/>
					</g>
				</g>
				<g>
					<g>
						<path style="fill:#47222C;" d="M573.926,257.062c1.005-0.684,2.01-1.369,3.015-2.053c0.529-0.36,0.029-1.227-0.505-0.863
							c-1.005,0.684-2.01,1.369-3.015,2.053C572.893,256.559,573.393,257.426,573.926,257.062L573.926,257.062z"/>
					</g>
				</g>
				<g>
					<g>
						<path style="fill:#47222C;" d="M572.823,255.522c1.005-0.684,2.01-1.369,3.015-2.053c0.529-0.36,0.029-1.227-0.505-0.863
							c-1.005,0.684-2.01,1.369-3.015,2.053C571.789,255.018,572.289,255.885,572.823,255.522L572.823,255.522z"/>
					</g>
				</g>
			</g>
		</g>
	</g>
	<g>
		<polygon style="fill:none;stroke:gold;stroke-miterlimit:10;" points="124.859,91.327 128.695,98.341 135.708,102.177 
			128.695,106.012 124.859,113.026 121.023,106.012 114.01,102.177 121.023,98.341 		"/>
		<polygon style="fill:gold;" points="147.131,63.052 150.967,70.065 157.98,73.901 150.967,77.737 147.131,84.75 
			143.295,77.737 136.282,73.901 143.295,70.065 		"/>
		<polygon style="fill:gold;" points="173.289,90.737 178.477,100.222 187.962,105.41 178.477,110.598 173.289,120.084 
			168.101,110.598 158.615,105.41 168.101,100.222 		"/>
	</g>
	<g>
		<path style="fill:#EFEFEF;" d="M370.758,257.473l-2.396-2.482c2.232-3.099,3.707-6.584,4.418-10.194l3.462,0.061
			c2.043,0.038,3.729-1.59,3.762-3.633l0.034-1.934c0.038-2.043-1.59-3.729-3.633-3.762l-3.462-0.061
			c-0.584-3.633-1.936-7.167-4.059-10.342l2.482-2.396c1.469-1.419,1.51-3.759,0.091-5.228l-1.346-1.394
			c-1.419-1.469-3.759-1.51-5.228-0.091l-2.482,2.396c-3.099-2.232-6.584-3.707-10.194-4.418l0.061-3.462
			c0.038-2.043-1.59-3.729-3.633-3.762l-1.934-0.034c-2.043-0.038-3.729,1.59-3.762,3.633l-0.061,3.462
			c-3.633,0.584-7.167,1.936-10.342,4.058l-2.396-2.481c-1.419-1.469-3.759-1.51-5.228-0.092l-1.394,1.346
			c-1.469,1.419-1.51,3.759-0.091,5.228l2.396,2.482c-2.232,3.099-3.707,6.584-4.418,10.194l-3.462-0.061
			c-2.043-0.038-3.729,1.59-3.762,3.633l-0.034,1.934c-0.038,2.043,1.59,3.729,3.633,3.762l3.462,0.061
			c0.584,3.633,1.936,7.167,4.059,10.342l-2.482,2.396c-1.469,1.419-1.51,3.759-0.091,5.228l1.346,1.394
			c1.419,1.469,3.759,1.51,5.228,0.091l2.482-2.396c3.099,2.232,6.584,3.707,10.194,4.418l-0.061,3.462
			c-0.038,2.043,1.59,3.729,3.633,3.762l1.934,0.034c2.043,0.038,3.729-1.59,3.762-3.633l0.061-3.462
			c3.633-0.584,7.167-1.936,10.342-4.059l2.396,2.482c1.419,1.469,3.759,1.51,5.228,0.091l1.394-1.346
			C372.135,261.283,372.176,258.943,370.758,257.473z M355.379,254.492c-1.35,0.753-2.781,1.312-4.251,1.667
			c-2.843,0.691-5.831,0.639-8.648-0.151c-1.457-0.407-2.867-1.015-4.19-1.815c-1.223-0.739-2.369-1.649-3.407-2.723
			c-1.038-1.075-1.907-2.252-2.603-3.5c-0.753-1.35-1.311-2.781-1.667-4.251c-0.691-2.843-0.639-5.831,0.151-8.648
			c0.407-1.457,1.015-2.867,1.815-4.19c0.739-1.223,1.649-2.369,2.723-3.407c1.075-1.038,2.252-1.907,3.5-2.602
			c1.35-0.753,2.781-1.311,4.251-1.667c2.843-0.692,5.83-0.639,8.647,0.151c1.457,0.407,2.867,1.015,4.19,1.815
			c1.223,0.739,2.369,1.649,3.407,2.723c1.038,1.075,1.907,2.252,2.603,3.5c0.753,1.35,1.311,2.781,1.667,4.251
			c0.691,2.843,0.639,5.831-0.151,8.648c-0.407,1.456-1.015,2.867-1.815,4.19c-0.739,1.223-1.649,2.369-2.723,3.407
			C357.804,252.927,356.627,253.796,355.379,254.492z"/>
		<path style="fill:#EFEFEF;" d="M424.056,229.496l-2.022-2.795c2.647-2.753,4.599-5.995,5.811-9.469l3.418,0.548
			c2.017,0.326,3.916-1.048,4.237-3.066l0.306-1.91c0.326-2.017-1.048-3.916-3.066-4.237l-3.418-0.548
			c-0.066-3.679-0.906-7.369-2.56-10.811l2.795-2.022c1.655-1.197,2.025-3.508,0.828-5.163l-1.136-1.57
			c-1.197-1.655-3.508-2.025-5.163-0.828l-2.795,2.022c-2.753-2.647-5.995-4.599-9.469-5.811l0.548-3.418
			c0.326-2.017-1.048-3.916-3.066-4.237l-1.91-0.306c-2.017-0.326-3.916,1.048-4.237,3.066l-0.548,3.419
			c-3.679,0.066-7.369,0.906-10.811,2.56l-2.022-2.795c-1.197-1.655-3.508-2.025-5.163-0.828l-1.57,1.136
			c-1.655,1.197-2.025,3.508-0.828,5.163l2.022,2.795c-2.647,2.753-4.599,5.995-5.811,9.469l-3.418-0.548
			c-2.017-0.326-3.916,1.048-4.237,3.066l-0.306,1.91c-0.326,2.017,1.048,3.916,3.066,4.237l3.419,0.548
			c0.066,3.679,0.906,7.369,2.559,10.811l-2.795,2.022c-1.655,1.197-2.025,3.508-0.828,5.163l1.136,1.57
			c1.197,1.655,3.508,2.025,5.163,0.828l2.795-2.022c2.753,2.647,5.995,4.599,9.469,5.811l-0.548,3.419
			c-0.326,2.017,1.048,3.916,3.066,4.237l1.91,0.306c2.017,0.326,3.916-1.048,4.237-3.066l0.548-3.419
			c3.679-0.066,7.369-0.906,10.811-2.559l2.022,2.795c1.197,1.655,3.508,2.025,5.163,0.828l1.57-1.136
			C424.883,233.461,425.254,231.151,424.056,229.496z M409.252,224.376c-1.442,0.555-2.938,0.906-4.443,1.051
			c-2.912,0.284-5.862-0.189-8.54-1.369c-1.385-0.608-2.695-1.409-3.892-2.387c-1.106-0.904-2.113-1.966-2.989-3.176
			c-0.876-1.21-1.57-2.499-2.083-3.832c-0.555-1.442-0.906-2.938-1.051-4.443c-0.284-2.912,0.189-5.862,1.369-8.54
			c0.608-1.385,1.409-2.695,2.387-3.892c0.904-1.106,1.966-2.113,3.177-2.989c1.21-0.876,2.499-1.57,3.832-2.083
			c1.442-0.555,2.938-0.906,4.443-1.051c2.912-0.284,5.862,0.189,8.54,1.369c1.385,0.608,2.695,1.409,3.892,2.387
			c1.106,0.904,2.113,1.966,2.989,3.177c0.876,1.21,1.57,2.499,2.083,3.832c0.555,1.442,0.906,2.938,1.051,4.443
			c0.284,2.912-0.189,5.862-1.369,8.54c-0.608,1.385-1.409,2.695-2.387,3.892c-0.904,1.106-1.966,2.113-3.177,2.989
			C411.873,223.169,410.585,223.863,409.252,224.376z"/>
		<path style="fill:#EFEFEF;" d="M421.083,288.923l-1.819-2.179c2.016-2.411,3.434-5.183,4.232-8.104l2.837,0.256
			c1.674,0.153,3.155-1.083,3.304-2.758l0.143-1.585c0.153-1.674-1.083-3.155-2.758-3.304l-2.837-0.255
			c-0.263-3.016-1.163-5.998-2.716-8.73l2.179-1.819c1.29-1.077,1.463-2.995,0.386-4.285l-1.022-1.224
			c-1.077-1.29-2.995-1.463-4.285-0.386l-2.179,1.819c-2.41-2.016-5.183-3.434-8.104-4.232l0.255-2.838
			c0.153-1.674-1.083-3.155-2.758-3.304l-1.585-0.143c-1.674-0.153-3.155,1.083-3.304,2.758l-0.255,2.838
			c-3.016,0.263-5.998,1.163-8.73,2.716l-1.819-2.179c-1.077-1.29-2.995-1.463-4.285-0.386l-1.224,1.022
			c-1.29,1.077-1.463,2.995-0.386,4.285l1.819,2.179c-2.016,2.411-3.434,5.183-4.232,8.104l-2.837-0.255
			c-1.674-0.153-3.155,1.083-3.304,2.758l-0.143,1.585c-0.153,1.674,1.083,3.155,2.758,3.304l2.837,0.256
			c0.263,3.016,1.163,5.998,2.716,8.73l-2.179,1.819c-1.29,1.077-1.463,2.995-0.386,4.285l1.022,1.225
			c1.077,1.29,2.995,1.463,4.285,0.386l2.179-1.819c2.41,2.016,5.183,3.434,8.104,4.232l-0.256,2.837
			c-0.153,1.674,1.083,3.155,2.758,3.304l1.585,0.143c1.674,0.153,3.155-1.083,3.304-2.758l0.255-2.838
			c3.016-0.263,5.998-1.163,8.73-2.716l1.819,2.179c1.077,1.29,2.995,1.463,4.285,0.386l1.225-1.022
			C421.987,292.132,422.16,290.214,421.083,288.923z M408.638,285.562c-1.153,0.538-2.36,0.911-3.588,1.115
			c-2.374,0.398-4.823,0.178-7.088-0.638c-1.171-0.42-2.293-1.004-3.331-1.739c-0.959-0.679-1.846-1.494-2.634-2.438
			c-0.788-0.944-1.431-1.962-1.928-3.027c-0.538-1.153-0.911-2.36-1.115-3.588c-0.398-2.375-0.178-4.823,0.638-7.089
			c0.42-1.171,1.004-2.293,1.738-3.331c0.679-0.959,1.494-1.846,2.438-2.634c0.944-0.788,1.962-1.431,3.027-1.928
			c1.153-0.538,2.36-0.911,3.588-1.115c2.374-0.398,4.823-0.178,7.088,0.638c1.171,0.42,2.293,1.004,3.331,1.738
			c0.959,0.679,1.846,1.494,2.634,2.438c0.788,0.944,1.431,1.962,1.928,3.027c0.538,1.153,0.911,2.36,1.115,3.588
			c0.398,2.375,0.178,4.823-0.638,7.089c-0.42,1.171-1.004,2.293-1.738,3.331c-0.679,0.959-1.494,1.846-2.438,2.634
			C410.722,284.422,409.704,285.065,408.638,285.562z"/>
	</g>
	<g>
		<g>
			<g>
				
					<line style="fill:none;stroke:#e2e8f0;stroke-width:21;stroke-miterlimit:10;" x1="385.449" y1="116.665" x2="260.635" y2="180.081"/>
				<g>
					<path style="fill:#1B193B;" d="M344.029,119.763l-90.196,45.827c-4.449,2.26-7.009,6.758-7.019,11.418
						c-0.01,1.968,0.441,3.96,1.393,5.832l2.872,5.652c3.207,6.312,10.929,8.838,17.25,5.627l90.196-45.827L344.029,119.763z"/>
				</g>
				<g>
					<path style="fill:#58B2BD;" d="M415.612,156.301c-0.316-8.68-2.553-15.991-9.965-19.614l16.939-8.606
						c-0.504,6.859,3.95,13.302,9.965,19.613L415.612,156.301z"/>
					<path style="fill:#06b6d4;" d="M373.116,99.154l19.204,37.797c1.451,2.857,4.944,3.996,7.801,2.544l20.858-10.598
						c2.857-1.451,3.996-4.944,2.544-7.801l-19.204-37.797c-1.451-2.857-4.944-3.996-7.801-2.545L375.66,91.353
						C372.804,92.804,371.665,96.297,373.116,99.154z"/>
					<path style="fill:#06b6d4;" d="M411.524,156.766l2.812,5.534c1.475,2.903,5.024,4.061,7.927,2.586l13.3-6.758
						c2.903-1.475,4.061-5.024,2.586-7.927l-2.812-5.534c-1.475-2.903-5.024-4.061-7.927-2.586l-13.3,6.758
						C411.207,150.314,410.049,153.863,411.524,156.766z"/>
					<path style="fill:#06b6d4;" d="M406.129,86.931c-9.617-19.815-25.933-32.182-42.362-38.89
						c-1.385-0.566-2.509,1.237-1.366,2.203c14.43,12.19,21.837,29.145,24.742,49.157"/>
				</g>
			</g>
			<path style="fill:#2D3AAD;" d="M347.2,126.003l-100.386,51.005c-0.01,1.968,0.441,3.96,1.393,5.832l0.983,1.935l101.634-51.639
				L347.2,126.003z"/>
			<g>
				<path style="fill:#FEFEFE;" d="M396.698,133.009l-16.609-32.689l0.223-0.113c1.825,2.5,3.505,5.074,5.032,7.726
					c0.794,1.31,1.505,2.663,2.261,3.992l2.122,4.063c1.362,2.736,2.693,5.486,3.899,8.301c1.234,2.8,2.335,5.668,3.295,8.608
					L396.698,133.009z"/>
			</g>
		</g>
		<g>
			<g>
				<g>
					<path style="fill:#784346;" d="M292.202,139.628c-0.755,1.164-1.493,2.348-2.177,3.583c-1.946,3.513-3.548,7.174-5.371,10.734
						c0.381,0.166,0.739,0.317,1.054,0.44c6.225,2.427,45.694,4.811,45.694,4.811l-0.903-7.055l-34.951-10.085
						C295.548,142.056,294.307,141.133,292.202,139.628z"/>
					<path style="fill:#FFE419;" d="M286.277,145.773c1.908-0.705,3.801-1.416,5.677-2.205c2.205-0.928,4.858-2.353,7.247-2.438
						c0.012,0,0.025,0,0.037-0.001c7.366-16.312,17.749-42.552,9.944-45.751c-10.783-3.973-15.9,7.636-18.308,15.309
						c-2.365,7.535-9.99,28.476-11.542,35.428c1.491,0.318,2.966,0.778,4.416,1.289C284.456,146.702,285.3,146.134,286.277,145.773z
						"/>
					<g>
						<path style="fill:#784346;" d="M330.321,152.444c0,0,6.34,9.132,6.034,9.86c-0.307,0.727-1.699-0.592-1.946-0.117
							c-0.247,0.475,0.827,1.904,0.023,2.592c-0.804,0.689-2.13-0.801-2.13-0.801s0.991,1.889,0.231,2.615
							c-0.76,0.726-2.21-1.247-2.21-1.247s0.984,1.355,0.284,2.281c-0.701,0.927-2.692-1.575-3.949-3.688
							c-1.257-2.113-2.811-7.124-1.046-8.597C327.375,153.87,330.321,152.444,330.321,152.444z"/>
						<path style="fill:#784346;" d="M329.758,152.158c2.369,0.513,4.769,0.768,5.058,2.76c0.289,1.993,2.216,3.603,2.216,3.603
							s-0.813,0.924-2.026,0.128c-1.213-0.795-1.338-2.403-1.338-2.403l-3.542-0.31L329.758,152.158z"/>
					</g>
				</g>
			</g>
			<path style="fill:#FFB200;" d="M277.937,145.422l21.637-4.531l-0.481,1.611l2.667,0.611l-17.053,12.373
				c0,0-3.518,0.167-3.658-1.268c-0.139-1.435-0.686-2.889-0.686-2.889S275.243,148.117,277.937,145.422z"/>
		</g>
	</g>
</g>
</svg>
