<svg xmlns="http://www.w3.org/2000/svg" width="344" height="328" fill="none" viewBox="0 0 344 328"><path stroke="#000" stroke-linecap="round" stroke-linejoin="round" stroke-width="2" d="M172 191.333C187.832 191.333 200.667 179.096 200.667 164C200.667 148.904 187.832 136.667 172 136.667C156.168 136.667 143.333 148.904 143.333 164C143.333 179.096 156.168 191.333 172 191.333Z"/><path stroke="#000" stroke-linecap="round" stroke-linejoin="round" stroke-width="2" d="M215 205H222.167C265.711 205 301 186.646 301 164C301 141.354 265.711 123 222.167 123C195.851 123 172.545 129.697 158.24 140.015"/><path stroke="#000" stroke-linecap="round" stroke-linejoin="round" stroke-width="2" d="M129 123H121.833C78.2887 123 43 141.354 43 164C43 186.646 78.2887 205 121.833 205C148.264 205 171.656 198.235 185.961 187.848"/><path stroke="#000" stroke-linecap="round" stroke-linejoin="round" stroke-width="2" d="M215 123V116.167C215 74.6473 195.75 41 172 41C148.25 41 129 74.6473 129 116.167C129 141.218 136.023 163.412 146.788 177.065"/><path stroke="#000" stroke-linecap="round" stroke-linejoin="round" stroke-width="2" d="M129 205V211.833C129 253.353 148.25 287 172 287C195.75 287 215 253.353 215 211.833C215 186.659 207.919 164.383 197.055 150.743"/></svg>