<svg xmlns="http://www.w3.org/2000/svg" width="266" height="70" fill="none" viewBox="0 0 266 70"><path fill="#001C25" stroke="#09495C" stroke-miterlimit="2" stroke-width=".4" d="M27.4341 48.6626L24.5471 57.0001H23.5669L21.217 50.0876L18.8672 57.0001H17.8735L15 48.6626H16.0205L18.4375 55.7751L20.7336 48.6626H21.7004L24.0369 55.7751L26.4136 48.6626H27.4341Z"/><path fill="#001C25" stroke="#09495C" stroke-miterlimit="2" stroke-width=".4" d="M32.2656 50.65C33.1071 50.65 33.7472 50.8708 34.1858 51.3125C34.6244 51.7458 34.8437 52.4083 34.8437 53.3V57H33.877V53.3C33.877 52.7167 33.7293 52.2667 33.4338 51.95C33.1474 51.6333 32.7222 51.475 32.1582 51.475C31.5316 51.475 30.8915 51.6417 30.238 51.975V57H29.2712V48H30.238V51.175C30.5693 51.0083 30.9094 50.8792 31.2585 50.7875C31.6166 50.6958 31.9523 50.65 32.2656 50.65Z"/><path fill="#001C25" stroke="#09495C" stroke-miterlimit="2" stroke-width=".4" d="M40.0061 50.6499C41.0266 50.6499 41.7741 50.9582 42.2485 51.5749C42.723 52.1916 42.9512 53.0124 42.9333 54.0374H38.0457C38.0457 54.7874 38.2336 55.3624 38.6096 55.7624C38.9856 56.1624 39.5227 56.3624 40.2209 56.3624C41.1161 56.3624 41.8815 56.1832 42.5171 55.8249V56.7499C41.8636 57.0416 41.0803 57.1874 40.1672 57.1874C39.1915 57.1874 38.4306 56.9082 37.8845 56.3499C37.3385 55.7832 37.0654 54.9582 37.0654 53.8749C37.0654 52.8166 37.3206 52.0166 37.8308 51.4749C38.35 50.9249 39.0751 50.6499 40.0061 50.6499ZM40.0061 51.4749C39.4153 51.4749 38.9677 51.6041 38.6633 51.8624C38.359 52.1124 38.1665 52.5624 38.0859 53.2124H41.9128C41.8681 52.6291 41.689 52.1957 41.3757 51.9124C41.0714 51.6207 40.6148 51.4749 40.0061 51.4749Z"/><path fill="#001C25" stroke="#09495C" stroke-miterlimit="2" stroke-width=".4" d="M45.1641 51.2624C45.5042 51.1291 45.9518 50.9957 46.5068 50.8624C47.0708 50.7207 47.6527 50.6499 48.2524 50.6499C48.342 50.6499 48.4852 50.6749 48.6821 50.7249V51.5249C48.4673 51.4999 48.2524 51.4874 48.0376 51.4874C47.7422 51.4874 47.4692 51.5041 47.2185 51.5374C46.9679 51.5707 46.6053 51.6249 46.1309 51.6999V56.9999H45.1641V51.2624Z"/><path fill="#001C25" stroke="#09495C" stroke-miterlimit="2" stroke-width=".4" d="M52.7783 50.6499C53.7988 50.6499 54.5463 50.9582 55.0207 51.5749C55.4952 52.1916 55.7235 53.0124 55.7056 54.0374H50.8179C50.8179 54.7874 51.0059 55.3624 51.3818 55.7624C51.7578 56.1624 52.2949 56.3624 52.9932 56.3624C53.8883 56.3624 54.6537 56.1832 55.2893 55.8249V56.7499C54.6358 57.0416 53.8525 57.1874 52.9395 57.1874C51.9637 57.1874 51.2028 56.9082 50.6567 56.3499C50.1107 55.7832 49.8376 54.9582 49.8376 53.8749C49.8376 52.8166 50.0928 52.0166 50.603 51.4749C51.1222 50.9249 51.8473 50.6499 52.7783 50.6499ZM52.7783 51.4749C52.1875 51.4749 51.7399 51.6041 51.4355 51.8624C51.1312 52.1124 50.9387 52.5624 50.8581 53.2124H54.6851C54.6403 52.6291 54.4613 52.1957 54.148 51.9124C53.8436 51.6207 53.387 51.4749 52.7783 51.4749Z"/><path fill="#001C25" stroke="#09495C" stroke-miterlimit="2" stroke-width=".4" d="M61.8176 48.6626H62.8918V49.6501H61.8176V48.6626ZM61.8713 50.7626H62.8381V57.0001H61.8713V50.7626Z"/><path fill="#001C25" stroke="#09495C" stroke-miterlimit="2" stroke-width=".4" d="M65.4631 51.2624C66.3315 50.8541 67.2759 50.6499 68.2964 50.6499C69.2363 50.6499 69.9122 50.8416 70.324 51.2249C70.7447 51.6082 70.9551 52.1791 70.9551 52.9374V56.9999H69.9883V52.9374C69.9883 51.9541 69.3885 51.4624 68.189 51.4624C67.634 51.4624 67.0476 51.5457 66.4299 51.7124V56.9999H65.4631V51.2624Z"/><path fill="#001C25" stroke="#09495C" stroke-miterlimit="2" stroke-width=".4" d="M73.5144 51.2624C74.3827 50.8541 75.3272 50.6499 76.3477 50.6499C77.2876 50.6499 77.9635 50.8416 78.3753 51.2249C78.796 51.6082 79.0064 52.1791 79.0064 52.9374V56.9999H78.0395V52.9374C78.0395 51.9541 77.4398 51.4624 76.2402 51.4624C75.6852 51.4624 75.0989 51.5457 74.4812 51.7124V56.9999H73.5144V51.2624Z"/><path fill="#001C25" stroke="#09495C" stroke-miterlimit="2" stroke-width=".4" d="M84.3186 57.1874C83.2891 57.1874 82.5148 56.9041 81.9956 56.3374C81.4854 55.7707 81.2302 54.9582 81.2302 53.8999C81.2302 52.8249 81.4898 52.0166 82.009 51.4749C82.5372 50.9249 83.2981 50.6499 84.2917 50.6499C85.3391 50.6499 86.1179 50.9416 86.6282 51.5249C87.1384 52.0999 87.3935 52.8916 87.3935 53.8999C87.3935 54.9332 87.125 55.7416 86.5879 56.3249C86.0508 56.8999 85.2943 57.1874 84.3186 57.1874ZM84.3052 56.3624C85.7196 56.3624 86.4268 55.5416 86.4268 53.8999C86.4268 53.1166 86.2611 52.5166 85.9299 52.0999C85.5987 51.6832 85.0571 51.4749 84.3052 51.4749C82.8997 51.4749 82.197 52.2832 82.197 53.8999C82.197 55.5416 82.8997 56.3624 84.3052 56.3624Z"/><path fill="#001C25" stroke="#09495C" stroke-miterlimit="2" stroke-width=".4" d="M95.2012 50.7625L92.3545 57H91.3743L88.541 50.7625H89.575L91.9517 56.0125L94.2344 50.7625H95.2012Z"/><path fill="#001C25" stroke="#09495C" stroke-miterlimit="2" stroke-width=".4" d="M99.7683 50.6499C100.52 50.6499 101.111 50.8207 101.541 51.1624C101.979 51.5041 102.199 51.9999 102.199 52.6499V55.6749C102.199 56.2749 101.935 56.6791 101.406 56.8874C100.878 57.0874 100.149 57.1874 99.2178 57.1874C98.5106 57.1874 97.9019 57.0416 97.3916 56.7499C96.8903 56.4582 96.6396 55.9707 96.6396 55.2874C96.6396 54.5457 96.859 54.0082 97.2976 53.6749C97.7362 53.3332 98.3405 53.1624 99.1104 53.1624C99.9787 53.1624 100.681 53.3082 101.219 53.5999V52.8624C101.219 51.9291 100.632 51.4624 99.4595 51.4624C99.0745 51.4624 98.6851 51.5124 98.2912 51.6124C97.8974 51.7124 97.5662 51.8624 97.2976 52.0624V51.1624C97.5662 51.0041 97.9287 50.8791 98.3852 50.7874C98.8507 50.6957 99.3118 50.6499 99.7683 50.6499ZM99.446 56.3874C100.073 56.3874 100.525 56.3457 100.802 56.2624C101.08 56.1707 101.219 55.9916 101.219 55.7249V54.3249C100.977 54.2166 100.695 54.1332 100.373 54.0749C100.05 54.0082 99.7146 53.9749 99.3655 53.9749C98.8015 53.9749 98.3673 54.0749 98.063 54.2749C97.7586 54.4749 97.6064 54.7666 97.6064 55.1499C97.6064 55.5832 97.7855 55.8999 98.1435 56.0999C98.5016 56.2916 98.9358 56.3874 99.446 56.3874Z"/><path fill="#001C25" stroke="#09495C" stroke-miterlimit="2" stroke-width=".4" d="M106.884 57.1C106.392 57.1 105.989 56.9625 105.676 56.6875C105.362 56.4042 105.206 56.0042 105.206 55.4875V51.5875H104.037V50.7625H105.206V49H106.172V50.7625H107.905V51.5875H106.172V55.2C106.172 55.5667 106.235 55.8333 106.36 56C106.486 56.1667 106.718 56.25 107.059 56.25C107.39 56.25 107.672 56.2 107.905 56.1V56.95C107.779 56.9917 107.618 57.025 107.421 57.05C107.233 57.0833 107.054 57.1 106.884 57.1Z"/><path fill="#001C25" stroke="#09495C" stroke-miterlimit="2" stroke-width=".4" d="M110.074 48.6626H111.148V49.6501H110.074V48.6626ZM110.127 50.7626H111.094V57.0001H110.127V50.7626Z"/><path fill="#001C25" stroke="#09495C" stroke-miterlimit="2" stroke-width=".4" d="M116.472 57.1874C115.442 57.1874 114.668 56.9041 114.149 56.3374C113.638 55.7707 113.383 54.9582 113.383 53.8999C113.383 52.8249 113.643 52.0166 114.162 51.4749C114.69 50.9249 115.451 50.6499 116.445 50.6499C117.492 50.6499 118.271 50.9416 118.781 51.5249C119.291 52.0999 119.547 52.8916 119.547 53.8999C119.547 54.9332 119.278 55.7416 118.741 56.3249C118.204 56.8999 117.447 57.1874 116.472 57.1874ZM116.458 56.3624C117.873 56.3624 118.58 55.5416 118.58 53.8999C118.58 53.1166 118.414 52.5166 118.083 52.0999C117.752 51.6832 117.21 51.4749 116.458 51.4749C115.053 51.4749 114.35 52.2832 114.35 53.8999C114.35 55.5416 115.053 56.3624 116.458 56.3624Z"/><path fill="#001C25" stroke="#09495C" stroke-miterlimit="2" stroke-width=".4" d="M121.771 51.2624C122.639 50.8541 123.583 50.6499 124.604 50.6499C125.544 50.6499 126.22 50.8416 126.631 51.2249C127.052 51.6082 127.262 52.1791 127.262 52.9374V56.9999H126.296V52.9374C126.296 51.9541 125.696 51.4624 124.496 51.4624C123.941 51.4624 123.355 51.5457 122.737 51.7124V56.9999H121.771V51.2624Z"/><path fill="#001C25" stroke="#09495C" stroke-miterlimit="2" stroke-width=".4" d="M140.753 50.6499C141.693 50.6499 142.369 50.8416 142.781 51.2249C143.201 51.6082 143.412 52.1791 143.412 52.9374V56.9999H142.445V52.9374C142.445 51.9541 141.845 51.4624 140.646 51.4624C140.073 51.4624 139.531 51.6041 139.021 51.8874C139.137 52.1791 139.195 52.5291 139.195 52.9374V56.9999H138.229V52.9374C138.229 51.9541 137.629 51.4624 136.429 51.4624C135.874 51.4624 135.288 51.5457 134.67 51.7124V56.9999H133.703V51.2624C134.572 50.8541 135.516 50.6499 136.537 50.6499C137.405 50.6499 138.058 50.8207 138.497 51.1624C139.168 50.8207 139.92 50.6499 140.753 50.6499Z"/><path fill="#001C25" stroke="#09495C" stroke-miterlimit="2" stroke-width=".4" d="M148.582 50.6499C149.603 50.6499 150.35 50.9582 150.824 51.5749C151.299 52.1916 151.527 53.0124 151.509 54.0374H146.622C146.622 54.7874 146.81 55.3624 147.186 55.7624C147.562 56.1624 148.099 56.3624 148.797 56.3624C149.692 56.3624 150.457 56.1832 151.093 55.8249V56.7499C150.44 57.0416 149.656 57.1874 148.743 57.1874C147.767 57.1874 147.006 56.9082 146.46 56.3499C145.914 55.7832 145.641 54.9582 145.641 53.8749C145.641 52.8166 145.896 52.0166 146.407 51.4749C146.926 50.9249 147.651 50.6499 148.582 50.6499ZM148.582 51.4749C147.991 51.4749 147.544 51.6041 147.239 51.8624C146.935 52.1124 146.742 52.5624 146.662 53.2124H150.489C150.444 52.6291 150.265 52.1957 149.952 51.9124C149.647 51.6207 149.191 51.4749 148.582 51.4749Z"/><path fill="#001C25" stroke="#09495C" stroke-miterlimit="2" stroke-width=".4" d="M156.345 50.6499C157.365 50.6499 158.113 50.9582 158.587 51.5749C159.062 52.1916 159.29 53.0124 159.272 54.0374H154.385C154.385 54.7874 154.573 55.3624 154.948 55.7624C155.324 56.1624 155.862 56.3624 156.56 56.3624C157.455 56.3624 158.22 56.1832 158.856 55.8249V56.7499C158.202 57.0416 157.419 57.1874 156.506 57.1874C155.53 57.1874 154.769 56.9082 154.223 56.3499C153.677 55.7832 153.404 54.9582 153.404 53.8749C153.404 52.8166 153.659 52.0166 154.17 51.4749C154.689 50.9249 155.414 50.6499 156.345 50.6499ZM156.345 51.4749C155.754 51.4749 155.307 51.6041 155.002 51.8624C154.698 52.1124 154.505 52.5624 154.425 53.2124H158.252C158.207 52.6291 158.028 52.1957 157.715 51.9124C157.41 51.6207 156.954 51.4749 156.345 51.4749Z"/><path fill="#001C25" stroke="#09495C" stroke-miterlimit="2" stroke-width=".4" d="M163.611 57.1C163.119 57.1 162.716 56.9625 162.403 56.6875C162.089 56.4042 161.933 56.0042 161.933 55.4875V51.5875H160.764V50.7625H161.933V49H162.899V50.7625H164.632V51.5875H162.899V55.2C162.899 55.5667 162.962 55.8333 163.087 56C163.213 56.1667 163.445 56.25 163.786 56.25C164.117 56.25 164.399 56.2 164.632 56.1V56.95C164.506 56.9917 164.345 57.025 164.148 57.05C163.96 57.0833 163.781 57.1 163.611 57.1Z"/><path fill="#001C25" stroke="#09495C" stroke-miterlimit="2" stroke-width=".4" d="M168.694 57.1874C168.237 57.1874 167.848 57.1457 167.526 57.0624C167.203 56.9791 166.85 56.8457 166.465 56.6624V55.7124C166.921 55.9541 167.293 56.1249 167.579 56.2249C167.875 56.3166 168.224 56.3624 168.627 56.3624C169.074 56.3624 169.437 56.2707 169.714 56.0874C170.001 55.9041 170.144 55.6666 170.144 55.3749C170.144 55.1166 170.059 54.9249 169.889 54.7999C169.719 54.6666 169.45 54.5332 169.083 54.3999L168.734 54.2624C168.224 54.1291 167.826 54.0082 167.539 53.8999C167.262 53.7916 167.015 53.6207 166.801 53.3874C166.595 53.1541 166.492 52.8374 166.492 52.4374C166.492 52.0374 166.604 51.7041 166.827 51.4374C167.051 51.1707 167.342 50.9749 167.7 50.8499C168.058 50.7166 168.434 50.6499 168.828 50.6499C169.186 50.6499 169.486 50.6874 169.728 50.7624C169.978 50.8374 170.319 50.9624 170.748 51.1374V52.0374C170.301 51.8291 169.956 51.6832 169.714 51.5999C169.482 51.5166 169.204 51.4749 168.882 51.4749C168.488 51.4749 168.152 51.5499 167.875 51.6999C167.597 51.8416 167.458 52.0457 167.458 52.3124C167.458 52.5291 167.526 52.7082 167.66 52.8499C167.803 52.9832 167.978 53.0916 168.184 53.1749C168.398 53.2499 168.685 53.3332 169.043 53.4249C169.491 53.5582 169.844 53.6791 170.104 53.7874C170.372 53.8957 170.605 54.0707 170.802 54.3124C171.008 54.5457 171.111 54.8624 171.111 55.2624C171.111 55.6874 170.994 56.0457 170.762 56.3374C170.529 56.6207 170.225 56.8332 169.849 56.9749C169.482 57.1166 169.097 57.1874 168.694 57.1874Z"/><path fill="#001C25" stroke="#09495C" stroke-miterlimit="2" stroke-width=".4" d="M179.965 57.1874C178.935 57.1874 178.161 56.9041 177.642 56.3374C177.132 55.7707 176.876 54.9582 176.876 53.8999C176.876 52.8249 177.136 52.0166 177.655 51.4749C178.183 50.9249 178.944 50.6499 179.938 50.6499C180.985 50.6499 181.764 50.9416 182.274 51.5249C182.785 52.0999 183.04 52.8916 183.04 53.8999C183.04 54.9332 182.771 55.7416 182.234 56.3249C181.697 56.8999 180.941 57.1874 179.965 57.1874ZM179.951 56.3624C181.366 56.3624 182.073 55.5416 182.073 53.8999C182.073 53.1166 181.907 52.5166 181.576 52.0999C181.245 51.6832 180.703 51.4749 179.951 51.4749C178.546 51.4749 177.843 52.2832 177.843 53.8999C177.843 55.5416 178.546 56.3624 179.951 56.3624Z"/><path fill="#001C25" stroke="#09495C" stroke-miterlimit="2" stroke-width=".4" d="M187.976 50.6499C188.871 50.6499 189.614 50.9207 190.205 51.4624C190.796 51.9957 191.091 52.8541 191.091 54.0374C191.091 55.0124 190.814 55.7791 190.259 56.3374C189.704 56.8957 188.916 57.1749 187.895 57.1749C187.663 57.1749 187.394 57.1416 187.09 57.0749C186.785 57.0082 186.499 56.9207 186.23 56.8124V59.7124H185.264V51.8874C185.264 51.4291 185.532 51.1124 186.069 50.9374C186.615 50.7541 187.251 50.6582 187.976 50.6499ZM187.895 56.3499C188.603 56.3499 189.14 56.1416 189.507 55.7249C189.883 55.3082 190.071 54.7457 190.071 54.0374C190.071 53.2541 189.919 52.6332 189.614 52.1749C189.31 51.7082 188.759 51.4749 187.963 51.4749C187.479 51.4749 187.067 51.5291 186.727 51.6374C186.396 51.7374 186.23 51.8749 186.23 52.0499V55.9124C186.768 56.2041 187.323 56.3499 187.895 56.3499Z"/><path fill="#001C25" stroke="#09495C" stroke-miterlimit="2" stroke-width=".4" d="M196.027 50.6499C196.923 50.6499 197.666 50.9207 198.256 51.4624C198.847 51.9957 199.143 52.8541 199.143 54.0374C199.143 55.0124 198.865 55.7791 198.31 56.3374C197.755 56.8957 196.967 57.1749 195.947 57.1749C195.714 57.1749 195.445 57.1416 195.141 57.0749C194.837 57.0082 194.55 56.9207 194.282 56.8124V59.7124H193.315V51.8874C193.315 51.4291 193.583 51.1124 194.121 50.9374C194.667 50.7541 195.302 50.6582 196.027 50.6499ZM195.947 56.3499C196.654 56.3499 197.191 56.1416 197.558 55.7249C197.934 55.3082 198.122 54.7457 198.122 54.0374C198.122 53.2541 197.97 52.6332 197.666 52.1749C197.361 51.7082 196.811 51.4749 196.014 51.4749C195.531 51.4749 195.119 51.5291 194.779 51.6374C194.447 51.7374 194.282 51.8749 194.282 52.0499V55.9124C194.819 56.2041 195.374 56.3499 195.947 56.3499Z"/><path fill="#001C25" stroke="#09495C" stroke-miterlimit="2" stroke-width=".4" d="M204.119 57.1874C203.09 57.1874 202.315 56.9041 201.796 56.3374C201.286 55.7707 201.031 54.9582 201.031 53.8999C201.031 52.8249 201.29 52.0166 201.81 51.4749C202.338 50.9249 203.099 50.6499 204.092 50.6499C205.14 50.6499 205.918 50.9416 206.429 51.5249C206.939 52.0999 207.194 52.8916 207.194 53.8999C207.194 54.9332 206.926 55.7416 206.388 56.3249C205.851 56.8999 205.095 57.1874 204.119 57.1874ZM204.106 56.3624C205.52 56.3624 206.227 55.5416 206.227 53.8999C206.227 53.1166 206.062 52.5166 205.73 52.0999C205.399 51.6832 204.858 51.4749 204.106 51.4749C202.7 51.4749 201.998 52.2832 201.998 53.8999C201.998 55.5416 202.7 56.3624 204.106 56.3624Z"/><path fill="#001C25" stroke="#09495C" stroke-miterlimit="2" stroke-width=".4" d="M209.418 51.2624C209.758 51.1291 210.206 50.9957 210.761 50.8624C211.325 50.7207 211.907 50.6499 212.506 50.6499C212.596 50.6499 212.739 50.6749 212.936 50.7249V51.5249C212.721 51.4999 212.506 51.4874 212.292 51.4874C211.996 51.4874 211.723 51.5041 211.472 51.5374C211.222 51.5707 210.859 51.6249 210.385 51.6999V56.9999H209.418V51.2624Z"/><path fill="#001C25" stroke="#09495C" stroke-miterlimit="2" stroke-width=".4" d="M217.007 57.1C216.515 57.1 216.112 56.9625 215.799 56.6875C215.486 56.4042 215.329 56.0042 215.329 55.4875V51.5875H214.161V50.7625H215.329V49H216.296V50.7625H218.028V51.5875H216.296V55.2C216.296 55.5667 216.358 55.8333 216.484 56C216.609 56.1667 216.842 56.25 217.182 56.25C217.513 56.25 217.795 56.2 218.028 56.1V56.95C217.903 56.9917 217.741 57.025 217.544 57.05C217.356 57.0833 217.177 57.1 217.007 57.1Z"/><path fill="#001C25" stroke="#09495C" stroke-miterlimit="2" stroke-width=".4" d="M223.003 57.1875C222.108 57.1875 221.414 56.975 220.922 56.55C220.438 56.1166 220.197 55.5041 220.197 54.7125V50.7625H221.164V54.5125C221.164 55.1458 221.311 55.6125 221.607 55.9125C221.902 56.2041 222.368 56.35 223.003 56.35C223.63 56.35 224.091 56.2041 224.386 55.9125C224.691 55.6125 224.843 55.1458 224.843 54.5125V50.7625H225.81V54.7125C225.81 55.5041 225.563 56.1166 225.071 56.55C224.588 56.975 223.898 57.1875 223.003 57.1875Z"/><path fill="#001C25" stroke="#09495C" stroke-miterlimit="2" stroke-width=".4" d="M228.379 51.2624C229.248 50.8541 230.192 50.6499 231.213 50.6499C232.153 50.6499 232.828 50.8416 233.24 51.2249C233.661 51.6082 233.871 52.1791 233.871 52.9374V56.9999H232.905V52.9374C232.905 51.9541 232.305 51.4624 231.105 51.4624C230.55 51.4624 229.964 51.5457 229.346 51.7124V56.9999H228.379V51.2624Z"/><path fill="#001C25" stroke="#09495C" stroke-miterlimit="2" stroke-width=".4" d="M236.431 48.6626H237.505V49.6501H236.431V48.6626ZM236.484 50.7626H237.451V57.0001H236.484V50.7626Z"/><path fill="#001C25" stroke="#09495C" stroke-miterlimit="2" stroke-width=".4" d="M242.184 57.1C241.692 57.1 241.289 56.9625 240.976 56.6875C240.663 56.4042 240.506 56.0042 240.506 55.4875V51.5875H239.338V50.7625H240.506V49H241.473V50.7625H243.205V51.5875H241.473V55.2C241.473 55.5667 241.535 55.8333 241.661 56C241.786 56.1667 242.019 56.25 242.359 56.25C242.69 56.25 242.972 56.2 243.205 56.1V56.95C243.08 56.9917 242.918 57.025 242.721 57.05C242.533 57.0833 242.354 57.1 242.184 57.1Z"/><path fill="#001C25" stroke="#09495C" stroke-miterlimit="2" stroke-width=".4" d="M251.081 50.7625L248.207 57.6125C247.93 58.2791 247.603 58.7458 247.227 59.0125C246.86 59.2791 246.484 59.4125 246.099 59.4125C245.884 59.4125 245.674 59.375 245.468 59.3V58.475C245.647 58.55 245.839 58.5875 246.045 58.5875C246.43 58.5875 246.73 58.4583 246.945 58.2C247.16 57.9416 247.361 57.55 247.549 57.025L244.77 50.7625H245.871L247.992 55.85L250.114 50.7625H251.081Z"/><path fill="#426394" d="M16 39.5562H20.0243V22.9478L16 18.0777V39.5562ZM38.8043 10.0441V33.0211L19.13 10.0024H16V12.2502L20.0243 16.9954L39.4303 39.5562H42.8286V10.0441H38.8043Z"/><path fill="#426394" d="M61.5385 39.9725C62.7011 39.9725 63.819 39.8476 64.8921 39.5562C65.9653 39.3065 66.9043 38.9319 67.7986 38.4324C68.6928 37.9329 69.453 37.3501 70.1237 36.6841C70.7944 36.0181 71.331 35.3105 71.7334 34.478L68.3351 33.6039C68.0668 34.1866 67.7091 34.6861 67.262 35.1024C66.8148 35.5602 66.2783 35.9349 65.697 36.2262C65.071 36.5592 64.445 36.809 63.7743 36.9755C63.0588 37.142 62.3881 37.2252 61.6727 37.2252C60.6443 37.2252 59.6605 37.0587 58.7663 36.6841C57.872 36.3511 57.0671 35.8516 56.3517 35.1856C55.6362 34.5612 55.055 33.812 54.6078 32.8962C54.1607 32.0221 53.8924 31.0231 53.803 29.9409H73.1643C73.1643 29.816 73.209 29.6079 73.209 29.3581C73.209 29.1084 73.2537 28.8586 73.2537 28.5256C73.2537 27.1104 72.9407 25.6951 72.4041 24.3631C71.8676 23.0311 71.0627 21.824 70.079 20.825C69.0506 19.826 67.7985 18.9935 66.3677 18.3691C64.9368 17.7864 63.3271 17.4534 61.5833 17.4534C59.7947 17.4534 58.185 17.7864 56.7541 18.3691C55.2785 18.9519 54.0265 19.7844 52.9534 20.7834C51.8803 21.824 51.0754 23.0311 50.4941 24.3631C49.9128 25.7367 49.6445 27.1936 49.6445 28.6921C49.6445 30.2322 49.9128 31.6891 50.4941 33.0627C51.0754 34.4364 51.8803 35.6435 52.9534 36.6425C53.9818 37.6831 55.2338 38.5156 56.7094 39.0984C58.1403 39.6811 59.75 39.9725 61.5385 39.9725ZM69.5424 27.2352H53.7135C53.803 26.2362 54.0265 25.2789 54.4737 24.4047C54.9208 23.5722 55.4574 22.823 56.1728 22.1986C56.8883 21.5742 57.6931 21.0747 58.6321 20.7417C59.5264 20.4087 60.5101 20.2006 61.5833 20.2006C62.6117 20.2006 63.5954 20.4087 64.5344 20.7417C65.4287 21.0747 66.2335 21.5742 66.949 22.157C67.6644 22.7814 68.2457 23.5306 68.6928 24.4047C69.14 25.2789 69.453 26.2362 69.5424 27.2352Z"/><path fill="#426394" d="M80.1814 17.8279H76.0677L84.787 28.7336L76.0229 39.5561H80.1814L86.5755 31.6058L86.9333 30.9814L87.3357 31.6058L93.7298 39.5561H97.8883L89.1243 28.7336L97.8436 17.8279H93.6851L87.3357 25.8199L86.9333 26.4859L86.5755 25.8199L80.1814 17.8279Z"/><path fill="#426394" d="M112.64 39.9725C114.383 39.9725 115.993 39.6811 117.424 39.0567C118.855 38.474 120.107 37.6415 121.18 36.6009C122.208 35.6019 123.013 34.3947 123.595 33.0211C124.131 31.6891 124.444 30.2322 124.444 28.7337C124.444 27.2352 124.131 25.7784 123.55 24.4047C122.969 23.0727 122.164 21.8656 121.135 20.825C120.107 19.826 118.855 18.9935 117.424 18.3691C115.948 17.7864 114.339 17.4534 112.64 17.4534C110.896 17.4534 109.286 17.7864 107.855 18.3691C106.424 18.9935 105.172 19.826 104.144 20.825C103.115 21.8656 102.31 23.0727 101.729 24.4047C101.148 25.7784 100.88 27.2352 100.88 28.7337C100.88 30.2322 101.148 31.6891 101.729 33.0211C102.266 34.3947 103.071 35.6019 104.099 36.6009C105.127 37.6415 106.38 38.474 107.81 39.0567C109.241 39.6811 110.851 39.9725 112.64 39.9725ZM104.904 28.7754C104.904 27.6515 105.083 26.6109 105.485 25.6119C105.888 24.6129 106.424 23.7804 107.14 23.0311C107.855 22.2819 108.66 21.6991 109.599 21.2829C110.538 20.8666 111.566 20.6169 112.64 20.6169C113.713 20.6169 114.696 20.825 115.635 21.2412C116.574 21.6575 117.424 22.2402 118.139 22.9895C118.855 23.7387 119.391 24.5712 119.794 25.5702C120.196 26.5692 120.42 27.6099 120.42 28.6921C120.42 29.8576 120.196 30.8982 119.794 31.8972C119.391 32.8962 118.855 33.7287 118.139 34.478C117.424 35.2272 116.574 35.7684 115.635 36.1846C114.696 36.6009 113.713 36.809 112.64 36.809C111.566 36.809 110.538 36.6009 109.599 36.1846C108.66 35.7684 107.855 35.2272 107.14 34.478C106.424 33.7704 105.888 32.9379 105.485 31.9389C105.083 30.9815 104.904 29.9409 104.904 28.7754Z"/><path fill="#426394" d="M128.105 39.5537H132.129V22.9454L128.105 18.0752V39.5537ZM150.909 10.0416V33.0186L131.235 10H128.105V12.2478L132.129 16.993L151.535 39.5537H154.933V10.0416H150.909Z"/><path fill="#426394" d="M168.156 39.5191C169.945 39.5191 171.644 39.1861 173.254 38.5201C174.863 37.8541 176.16 36.8551 177.233 35.5231L177.323 37.0632C177.412 37.6876 177.68 38.2287 178.128 38.645C178.575 39.0612 179.201 39.2694 180.006 39.2694C180.274 39.2694 180.587 39.2694 180.855 39.2277C181.123 39.2277 181.436 39.1861 181.884 39.1029V35.9394C181.034 35.9394 180.632 35.4815 180.632 34.6074V25.7412C180.632 22.994 179.737 20.8295 178.038 19.2894C176.339 17.7909 173.924 17 170.884 17C167.843 17 164.803 17.9574 161.807 19.8305L163.104 22.2031C165.697 20.5381 168.156 19.664 170.526 19.664C172.494 19.664 174.014 20.2051 175.087 21.2041C176.16 22.2031 176.697 23.6184 176.697 25.3666V27.1149C175.802 26.7819 174.774 26.5321 173.611 26.324C172.449 26.1575 171.286 26.0326 170.168 26.0326C168.738 26.0326 167.396 26.1991 166.189 26.5321C164.982 26.8651 163.953 27.323 163.059 27.9057C162.165 28.4885 161.494 29.1961 161.047 30.0286C160.555 30.8611 160.331 31.7352 160.331 32.7342C160.331 33.7332 160.51 34.6074 160.913 35.4399C161.315 36.2724 161.852 36.98 162.567 37.5627C163.282 38.1871 164.087 38.6866 165.071 39.0196C166.01 39.3526 167.038 39.5191 168.156 39.5191ZM169.185 36.7719C168.469 36.7719 167.799 36.6886 167.173 36.4389C166.547 36.2308 165.965 35.9394 165.518 35.5231C165.071 35.1485 164.713 34.6906 164.445 34.1495C164.177 33.65 164.087 33.0672 164.087 32.4429C164.087 31.1941 164.669 30.1951 165.921 29.4042C167.173 28.655 168.782 28.2387 170.75 28.2387C172.807 28.2387 174.774 28.6134 176.697 29.2794V32.4845C176.697 33.0672 176.384 33.6084 175.847 34.1079C175.221 34.9404 174.282 35.5647 173.075 36.0642C171.868 36.5637 170.571 36.7719 169.185 36.7719Z"/><path fill="#426394" d="M196.758 40.1445C198.77 40.1445 200.648 39.7282 202.347 38.8541C204.046 37.98 205.388 36.7312 206.461 35.0662L206.55 37.6054C206.55 38.2714 206.819 38.8125 207.355 39.2287C207.892 39.645 208.518 39.8531 209.322 39.8531C209.546 39.8531 209.77 39.8531 210.038 39.8531C210.306 39.8531 210.664 39.8115 211.111 39.7282V36.5647C210.262 36.5647 209.859 36.1069 209.859 35.2327V18H205.924V31.6114C205.209 33.2764 204.18 34.6084 202.749 35.5657C201.319 36.5231 199.843 36.981 198.233 36.981C194.925 36.981 193.27 34.7749 193.27 30.321V18H189.335V31.0286C189.335 34.0672 189.961 36.3566 191.213 37.8551C192.465 39.3952 194.298 40.1445 196.758 40.1445Z"/><path fill="#426394" d="M228.172 38.8887L227.233 35.975C226.965 36.1415 226.518 36.308 225.892 36.5578C225.266 36.8075 224.55 36.8908 223.79 36.8908C223.075 36.8908 222.493 36.7242 222.001 36.3496C221.465 36.0166 221.197 35.4339 221.152 34.6014V21.1149H226.383V18.2427H221.152V11H217.217V18.2427H214.042V21.1149H217.217V35.7252C217.217 37.307 217.709 38.4309 218.782 39.1801C219.81 39.9294 221.062 40.2624 222.493 40.2624C223.119 40.2624 223.701 40.2207 224.282 40.1375C224.863 40.0542 225.4 39.9294 225.892 39.7629C226.383 39.5964 226.831 39.4715 227.233 39.305C227.591 39.1385 227.904 39.0136 228.172 38.8887Z"/><path fill="#426394" d="M239.321 39.5191C242.138 39.5191 244.374 38.9364 246.073 37.7292C247.727 36.5637 248.577 34.9404 248.577 32.9007C248.577 31.985 248.353 31.2357 247.995 30.5697C247.638 29.9454 247.056 29.4042 246.296 28.9047C245.536 28.4469 244.597 28.0306 243.435 27.6976C242.272 27.3646 240.931 26.99 239.41 26.657C238.427 26.4489 237.577 26.2407 236.862 26.0326C236.146 25.8661 235.61 25.6164 235.162 25.3666C234.715 25.1169 234.358 24.8255 234.179 24.4925C234 24.1595 233.91 23.7432 233.91 23.2437C233.91 21.995 234.402 21.1209 235.386 20.5381C236.37 19.9554 237.622 19.664 239.053 19.664C240.305 19.664 241.557 19.8721 242.809 20.2884C244.016 20.7046 245.134 21.2874 246.117 22.0782L247.906 19.8721C246.833 19.0396 245.581 18.332 244.061 17.7909C242.54 17.2914 240.886 17 239.142 17C237.89 17 236.683 17.1665 235.61 17.4579C234.536 17.7492 233.597 18.1655 232.793 18.7482C231.988 19.331 231.317 20.0386 230.87 20.8711C230.423 21.7036 230.199 22.661 230.199 23.7432C230.199 24.6174 230.333 25.325 230.646 25.9077C230.915 26.4905 231.406 26.99 232.077 27.4062C232.703 27.8225 233.553 28.1971 234.581 28.4885C235.565 28.8215 236.772 29.1129 238.203 29.4459C239.276 29.6956 240.26 29.9454 241.109 30.1535C241.914 30.4032 242.63 30.653 243.166 30.9027C243.703 31.1941 244.105 31.5271 244.374 31.9017C244.642 32.2764 244.776 32.7342 244.776 33.2337C244.776 34.3992 244.239 35.2734 243.256 35.8977C242.272 36.5221 240.931 36.8135 239.231 36.8135C237.711 36.8135 236.236 36.6054 234.894 36.1059C233.508 35.6064 232.122 34.8987 230.78 33.8997L229.081 36.3556C230.378 37.3962 231.943 38.1871 233.776 38.7282C235.565 39.2694 237.443 39.5191 239.321 39.5191Z"/></svg>