
<svg width="256" height="70" viewBox="0 0 256 70" fill="none" xmlns="http://www.w3.org/2000/svg">
<path d="M26.2156 51.9475L23.5281 60.285H22.6156L20.4281 53.3725L18.2406 60.285H17.3156L14.6406 51.9475H15.5906L17.8406 59.06L19.9781 51.9475H20.8781L23.0531 59.06L25.2656 51.9475H26.2156Z" fill="#001C25" stroke="#0F4252" stroke-width="0.3" stroke-miterlimit="2"/>
<path d="M30.7133 53.9349C31.4966 53.9349 32.0925 54.1557 32.5008 54.5974C32.9091 55.0307 33.1133 55.6932 33.1133 56.5849V60.2849H32.2133V56.5849C32.2133 56.0016 32.0758 55.5516 31.8008 55.2349C31.5341 54.9182 31.1383 54.7599 30.6133 54.7599C30.0299 54.7599 29.4341 54.9266 28.8258 55.2599V60.2849H27.9258V51.2849H28.8258V54.4599C29.1341 54.2932 29.4508 54.1641 29.7758 54.0724C30.1091 53.9807 30.4216 53.9349 30.7133 53.9349Z" fill="#001C25" stroke="#0F4252" stroke-width="0.3" stroke-miterlimit="2"/>
<path d="M37.9191 53.9348C38.8691 53.9348 39.565 54.2431 40.0066 54.8598C40.4483 55.4765 40.6608 56.2973 40.6441 57.3223H36.0941C36.0941 58.0723 36.2691 58.6473 36.6191 59.0473C36.9691 59.4473 37.4691 59.6473 38.1191 59.6473C38.9525 59.6473 39.665 59.4681 40.2566 59.1098V60.0348C39.6483 60.3265 38.9191 60.4723 38.0691 60.4723C37.1608 60.4723 36.4525 60.1931 35.9441 59.6348C35.4358 59.0681 35.1816 58.2431 35.1816 57.1598C35.1816 56.1015 35.4191 55.3015 35.8941 54.7598C36.3775 54.2098 37.0525 53.9348 37.9191 53.9348ZM37.9191 54.7598C37.3691 54.7598 36.9525 54.889 36.6691 55.1473C36.3858 55.3973 36.2066 55.8473 36.1316 56.4973H39.6941C39.6525 55.914 39.4858 55.4806 39.1941 55.1973C38.9108 54.9056 38.4858 54.7598 37.9191 54.7598Z" fill="#001C25" stroke="#0F4252" stroke-width="0.3" stroke-miterlimit="2"/>
<path d="M42.7207 54.5473C43.0374 54.414 43.454 54.2806 43.9707 54.1473C44.4957 54.0056 45.0374 53.9348 45.5957 53.9348C45.679 53.9348 45.8124 53.9598 45.9957 54.0098V54.8098C45.7957 54.7848 45.5957 54.7723 45.3957 54.7723C45.1207 54.7723 44.8665 54.789 44.6332 54.8223C44.3999 54.8556 44.0624 54.9098 43.6207 54.9848V60.2848H42.7207V54.5473Z" fill="#001C25" stroke="#0F4252" stroke-width="0.3" stroke-miterlimit="2"/>
<path d="M49.8088 53.9348C50.7588 53.9348 51.4546 54.2431 51.8963 54.8598C52.338 55.4765 52.5504 56.2973 52.5338 57.3223H47.9838C47.9838 58.0723 48.1588 58.6473 48.5088 59.0473C48.8588 59.4473 49.3588 59.6473 50.0088 59.6473C50.8421 59.6473 51.5546 59.4681 52.1463 59.1098V60.0348C51.538 60.3265 50.8088 60.4723 49.9588 60.4723C49.0505 60.4723 48.3421 60.1931 47.8338 59.6348C47.3255 59.0681 47.0713 58.2431 47.0713 57.1598C47.0713 56.1015 47.3088 55.3015 47.7838 54.7598C48.2671 54.2098 48.9421 53.9348 49.8088 53.9348ZM49.8088 54.7598C49.2588 54.7598 48.8421 54.889 48.5588 55.1473C48.2754 55.3973 48.0963 55.8473 48.0213 56.4973H51.5838C51.5421 55.914 51.3755 55.4806 51.0838 55.1973C50.8005 54.9056 50.3755 54.7598 49.8088 54.7598Z" fill="#001C25" stroke="#0F4252" stroke-width="0.3" stroke-miterlimit="2"/>
<path d="M58.2236 51.9475H59.2236V52.935H58.2236V51.9475ZM58.2736 54.0475H59.1736V60.285H58.2736V54.0475Z" fill="#001C25" stroke="#0F4252" stroke-width="0.3" stroke-miterlimit="2"/>
<path d="M61.6172 54.5473C62.4255 54.139 63.3047 53.9348 64.2547 53.9348C65.1297 53.9348 65.7589 54.1265 66.1422 54.5098C66.5339 54.8931 66.7297 55.464 66.7297 56.2223V60.2848H65.8297V56.2223C65.8297 55.239 65.2714 54.7473 64.1547 54.7473C63.638 54.7473 63.0922 54.8306 62.5172 54.9973V60.2848H61.6172V54.5473Z" fill="#001C25" stroke="#0F4252" stroke-width="0.3" stroke-miterlimit="2"/>
<path d="M69.1123 54.5473C69.9206 54.139 70.7998 53.9348 71.7498 53.9348C72.6248 53.9348 73.254 54.1265 73.6373 54.5098C74.029 54.8931 74.2248 55.464 74.2248 56.2223V60.2848H73.3248V56.2223C73.3248 55.239 72.7665 54.7473 71.6498 54.7473C71.1331 54.7473 70.5873 54.8306 70.0123 54.9973V60.2848H69.1123V54.5473Z" fill="#001C25" stroke="#0F4252" stroke-width="0.3" stroke-miterlimit="2"/>
<path d="M79.1699 60.4723C78.2116 60.4723 77.4908 60.189 77.0074 59.6223C76.5324 59.0556 76.2949 58.2431 76.2949 57.1848C76.2949 56.1098 76.5366 55.3015 77.0199 54.7598C77.5116 54.2098 78.2199 53.9348 79.1449 53.9348C80.1199 53.9348 80.8449 54.2265 81.3199 54.8098C81.7949 55.3848 82.0324 56.1765 82.0324 57.1848C82.0324 58.2181 81.7824 59.0265 81.2824 59.6098C80.7824 60.1848 80.0782 60.4723 79.1699 60.4723ZM79.1574 59.6473C80.4741 59.6473 81.1324 58.8265 81.1324 57.1848C81.1324 56.4015 80.9782 55.8015 80.6699 55.3848C80.3616 54.9681 79.8574 54.7598 79.1574 54.7598C77.8491 54.7598 77.1949 55.5681 77.1949 57.1848C77.1949 58.8265 77.8491 59.6473 79.1574 59.6473Z" fill="#001C25" stroke="#0F4252" stroke-width="0.3" stroke-miterlimit="2"/>
<path d="M89.3006 54.0474L86.6506 60.2849H85.7381L83.1006 54.0474H84.0631L86.2756 59.2974L88.4006 54.0474H89.3006Z" fill="#001C25" stroke="#0F4252" stroke-width="0.3" stroke-miterlimit="2"/>
<path d="M93.5521 53.9348C94.2521 53.9348 94.8021 54.1056 95.2021 54.4473C95.6105 54.789 95.8146 55.2848 95.8146 55.9348V58.9598C95.8146 59.5598 95.5688 59.964 95.0771 60.1723C94.5855 60.3723 93.9063 60.4723 93.0396 60.4723C92.3813 60.4723 91.8146 60.3265 91.3396 60.0348C90.873 59.7431 90.6396 59.2556 90.6396 58.5723C90.6396 57.8306 90.8438 57.2931 91.2521 56.9598C91.6605 56.6181 92.223 56.4473 92.9396 56.4473C93.748 56.4473 94.4021 56.5931 94.9021 56.8848V56.1473C94.9021 55.214 94.3563 54.7473 93.2646 54.7473C92.9063 54.7473 92.5438 54.7973 92.1771 54.8973C91.8105 54.9973 91.5021 55.1473 91.2521 55.3473V54.4473C91.5021 54.289 91.8396 54.164 92.2646 54.0723C92.698 53.9806 93.1271 53.9348 93.5521 53.9348ZM93.2521 59.6723C93.8355 59.6723 94.2563 59.6306 94.5146 59.5473C94.773 59.4556 94.9021 59.2765 94.9021 59.0098V57.6098C94.6771 57.5015 94.4146 57.4181 94.1146 57.3598C93.8146 57.2931 93.5021 57.2598 93.1771 57.2598C92.6521 57.2598 92.248 57.3598 91.9646 57.5598C91.6813 57.7598 91.5396 58.0515 91.5396 58.4348C91.5396 58.8681 91.7063 59.1848 92.0396 59.3848C92.373 59.5765 92.7771 59.6723 93.2521 59.6723Z" fill="#001C25" stroke="#0F4252" stroke-width="0.3" stroke-miterlimit="2"/>
<path d="M100.176 60.3849C99.718 60.3849 99.343 60.2474 99.0514 59.9724C98.7597 59.6891 98.6139 59.2891 98.6139 58.7724V54.8724H97.5264V54.0474H98.6139V52.2849H99.5139V54.0474H101.126V54.8724H99.5139V58.4849C99.5139 58.8516 99.5722 59.1182 99.6889 59.2849C99.8055 59.4516 100.022 59.5349 100.339 59.5349C100.647 59.5349 100.91 59.4849 101.126 59.3849V60.2349C101.01 60.2766 100.86 60.3099 100.676 60.3349C100.501 60.3682 100.335 60.3849 100.176 60.3849Z" fill="#001C25" stroke="#0F4252" stroke-width="0.3" stroke-miterlimit="2"/>
<path d="M103.146 51.9475H104.146V52.935H103.146V51.9475ZM103.196 54.0475H104.096V60.285H103.196V54.0475Z" fill="#001C25" stroke="#0F4252" stroke-width="0.3" stroke-miterlimit="2"/>
<path d="M109.102 60.4723C108.143 60.4723 107.422 60.189 106.939 59.6223C106.464 59.0556 106.227 58.2431 106.227 57.1848C106.227 56.1098 106.468 55.3015 106.952 54.7598C107.443 54.2098 108.152 53.9348 109.077 53.9348C110.052 53.9348 110.777 54.2265 111.252 54.8098C111.727 55.3848 111.964 56.1765 111.964 57.1848C111.964 58.2181 111.714 59.0265 111.214 59.6098C110.714 60.1848 110.01 60.4723 109.102 60.4723ZM109.089 59.6473C110.406 59.6473 111.064 58.8265 111.064 57.1848C111.064 56.4015 110.91 55.8015 110.602 55.3848C110.293 54.9681 109.789 54.7598 109.089 54.7598C107.781 54.7598 107.127 55.5681 107.127 57.1848C107.127 58.8265 107.781 59.6473 109.089 59.6473Z" fill="#001C25" stroke="#0F4252" stroke-width="0.3" stroke-miterlimit="2"/>
<path d="M114.034 54.5473C114.843 54.139 115.722 53.9348 116.672 53.9348C117.547 53.9348 118.176 54.1265 118.559 54.5098C118.951 54.8931 119.147 55.464 119.147 56.2223V60.2848H118.247V56.2223C118.247 55.239 117.688 54.7473 116.572 54.7473C116.055 54.7473 115.509 54.8306 114.934 54.9973V60.2848H114.034V54.5473Z" fill="#001C25" stroke="#0F4252" stroke-width="0.3" stroke-miterlimit="2"/>
<path d="M131.705 53.9348C132.58 53.9348 133.209 54.1265 133.593 54.5098C133.984 54.8931 134.18 55.464 134.18 56.2223V60.2848H133.28V56.2223C133.28 55.239 132.722 54.7473 131.605 54.7473C131.072 54.7473 130.568 54.889 130.093 55.1723C130.201 55.464 130.255 55.814 130.255 56.2223V60.2848H129.355V56.2223C129.355 55.239 128.797 54.7473 127.68 54.7473C127.163 54.7473 126.618 54.8306 126.043 54.9973V60.2848H125.143V54.5473C125.951 54.139 126.83 53.9348 127.78 53.9348C128.588 53.9348 129.197 54.1056 129.605 54.4473C130.23 54.1056 130.93 53.9348 131.705 53.9348Z" fill="#001C25" stroke="#0F4252" stroke-width="0.3" stroke-miterlimit="2"/>
<path d="M138.993 53.9348C139.943 53.9348 140.639 54.2431 141.081 54.8598C141.523 55.4765 141.735 56.2973 141.718 57.3223H137.168C137.168 58.0723 137.343 58.6473 137.693 59.0473C138.043 59.4473 138.543 59.6473 139.193 59.6473C140.027 59.6473 140.739 59.4681 141.331 59.1098V60.0348C140.723 60.3265 139.993 60.4723 139.143 60.4723C138.235 60.4723 137.527 60.1931 137.018 59.6348C136.51 59.0681 136.256 58.2431 136.256 57.1598C136.256 56.1015 136.493 55.3015 136.968 54.7598C137.452 54.2098 138.127 53.9348 138.993 53.9348ZM138.993 54.7598C138.443 54.7598 138.027 54.889 137.743 55.1473C137.46 55.3973 137.281 55.8473 137.206 56.4973H140.768C140.727 55.914 140.56 55.4806 140.268 55.1973C139.985 54.9056 139.56 54.7598 138.993 54.7598Z" fill="#001C25" stroke="#0F4252" stroke-width="0.3" stroke-miterlimit="2"/>
<path d="M146.22 53.9348C147.17 53.9348 147.866 54.2431 148.307 54.8598C148.749 55.4765 148.962 56.2973 148.945 57.3223H144.395C144.395 58.0723 144.57 58.6473 144.92 59.0473C145.27 59.4473 145.77 59.6473 146.42 59.6473C147.253 59.6473 147.966 59.4681 148.557 59.1098V60.0348C147.949 60.3265 147.22 60.4723 146.37 60.4723C145.462 60.4723 144.753 60.1931 144.245 59.6348C143.737 59.0681 143.482 58.2431 143.482 57.1598C143.482 56.1015 143.72 55.3015 144.195 54.7598C144.678 54.2098 145.353 53.9348 146.22 53.9348ZM146.22 54.7598C145.67 54.7598 145.253 54.889 144.97 55.1473C144.687 55.3973 144.507 55.8473 144.432 56.4973H147.995C147.953 55.914 147.787 55.4806 147.495 55.1973C147.212 54.9056 146.787 54.7598 146.22 54.7598Z" fill="#001C25" stroke="#0F4252" stroke-width="0.3" stroke-miterlimit="2"/>
<path d="M152.984 60.3849C152.526 60.3849 152.151 60.2474 151.859 59.9724C151.567 59.6891 151.421 59.2891 151.421 58.7724V54.8724H150.334V54.0474H151.421V52.2849H152.321V54.0474H153.934V54.8724H152.321V58.4849C152.321 58.8516 152.38 59.1182 152.496 59.2849C152.613 59.4516 152.83 59.5349 153.146 59.5349C153.455 59.5349 153.717 59.4849 153.934 59.3849V60.2349C153.817 60.2766 153.667 60.3099 153.484 60.3349C153.309 60.3682 153.142 60.3849 152.984 60.3849Z" fill="#001C25" stroke="#0F4252" stroke-width="0.3" stroke-miterlimit="2"/>
<path d="M157.716 60.4723C157.291 60.4723 156.928 60.4306 156.628 60.3473C156.328 60.264 155.999 60.1306 155.641 59.9473V58.9973C156.066 59.239 156.411 59.4098 156.678 59.5098C156.953 59.6015 157.278 59.6473 157.653 59.6473C158.07 59.6473 158.407 59.5556 158.666 59.3723C158.932 59.189 159.066 58.9515 159.066 58.6598C159.066 58.4015 158.986 58.2098 158.828 58.0848C158.67 57.9515 158.42 57.8181 158.078 57.6848L157.753 57.5473C157.278 57.414 156.907 57.2931 156.641 57.1848C156.382 57.0765 156.153 56.9056 155.953 56.6723C155.761 56.439 155.666 56.1223 155.666 55.7223C155.666 55.3223 155.77 54.989 155.978 54.7223C156.186 54.4556 156.457 54.2598 156.791 54.1348C157.124 54.0015 157.474 53.9348 157.841 53.9348C158.174 53.9348 158.453 53.9723 158.678 54.0473C158.911 54.1223 159.228 54.2473 159.628 54.4223V55.3223C159.211 55.114 158.891 54.9681 158.666 54.8848C158.449 54.8015 158.191 54.7598 157.891 54.7598C157.524 54.7598 157.211 54.8348 156.953 54.9848C156.695 55.1265 156.566 55.3306 156.566 55.5973C156.566 55.814 156.628 55.9931 156.753 56.1348C156.886 56.2681 157.049 56.3765 157.241 56.4598C157.441 56.5348 157.707 56.6181 158.041 56.7098C158.457 56.8431 158.786 56.964 159.028 57.0723C159.278 57.1806 159.495 57.3556 159.678 57.5973C159.87 57.8306 159.966 58.1473 159.966 58.5473C159.966 58.9723 159.857 59.3306 159.641 59.6223C159.424 59.9056 159.141 60.1181 158.791 60.2598C158.449 60.4015 158.091 60.4723 157.716 60.4723Z" fill="#001C25" stroke="#0F4252" stroke-width="0.3" stroke-miterlimit="2"/>
<path d="M168.208 60.4723C167.25 60.4723 166.529 60.189 166.045 59.6223C165.57 59.0556 165.333 58.2431 165.333 57.1848C165.333 56.1098 165.575 55.3015 166.058 54.7598C166.55 54.2098 167.258 53.9348 168.183 53.9348C169.158 53.9348 169.883 54.2265 170.358 54.8098C170.833 55.3848 171.071 56.1765 171.071 57.1848C171.071 58.2181 170.821 59.0265 170.321 59.6098C169.821 60.1848 169.116 60.4723 168.208 60.4723ZM168.196 59.6473C169.512 59.6473 170.17 58.8265 170.17 57.1848C170.17 56.4015 170.016 55.8015 169.708 55.3848C169.4 54.9681 168.896 54.7598 168.196 54.7598C166.887 54.7598 166.233 55.5681 166.233 57.1848C166.233 58.8265 166.887 59.6473 168.196 59.6473Z" fill="#001C25" stroke="#0F4252" stroke-width="0.3" stroke-miterlimit="2"/>
<path d="M175.666 53.9348C176.499 53.9348 177.191 54.2056 177.741 54.7473C178.291 55.2806 178.566 56.139 178.566 57.3223C178.566 58.2973 178.307 59.064 177.791 59.6223C177.274 60.1806 176.541 60.4598 175.591 60.4598C175.374 60.4598 175.124 60.4265 174.841 60.3598C174.557 60.2931 174.291 60.2056 174.041 60.0973V62.9973H173.141V55.1723C173.141 54.714 173.391 54.3973 173.891 54.2223C174.399 54.039 174.991 53.9431 175.666 53.9348ZM175.591 59.6348C176.249 59.6348 176.749 59.4265 177.091 59.0098C177.441 58.5931 177.616 58.0306 177.616 57.3223C177.616 56.539 177.474 55.9181 177.191 55.4598C176.907 54.9931 176.395 54.7598 175.653 54.7598C175.203 54.7598 174.82 54.814 174.503 54.9223C174.195 55.0223 174.041 55.1598 174.041 55.3348V59.1973C174.541 59.489 175.057 59.6348 175.591 59.6348Z" fill="#001C25" stroke="#0F4252" stroke-width="0.3" stroke-miterlimit="2"/>
<path d="M183.161 53.9348C183.994 53.9348 184.686 54.2056 185.236 54.7473C185.786 55.2806 186.061 56.139 186.061 57.3223C186.061 58.2973 185.802 59.064 185.286 59.6223C184.769 60.1806 184.036 60.4598 183.086 60.4598C182.869 60.4598 182.619 60.4265 182.336 60.3598C182.052 60.2931 181.786 60.2056 181.536 60.0973V62.9973H180.636V55.1723C180.636 54.714 180.886 54.3973 181.386 54.2223C181.894 54.039 182.486 53.9431 183.161 53.9348ZM183.086 59.6348C183.744 59.6348 184.244 59.4265 184.586 59.0098C184.936 58.5931 185.111 58.0306 185.111 57.3223C185.111 56.539 184.969 55.9181 184.686 55.4598C184.402 54.9931 183.89 54.7598 183.148 54.7598C182.698 54.7598 182.315 54.814 181.998 54.9223C181.69 55.0223 181.536 55.1598 181.536 55.3348V59.1973C182.036 59.489 182.552 59.6348 183.086 59.6348Z" fill="#001C25" stroke="#0F4252" stroke-width="0.3" stroke-miterlimit="2"/>
<path d="M190.693 60.4723C189.735 60.4723 189.014 60.189 188.531 59.6223C188.056 59.0556 187.818 58.2431 187.818 57.1848C187.818 56.1098 188.06 55.3015 188.543 54.7598C189.035 54.2098 189.743 53.9348 190.668 53.9348C191.643 53.9348 192.368 54.2265 192.843 54.8098C193.318 55.3848 193.556 56.1765 193.556 57.1848C193.556 58.2181 193.306 59.0265 192.806 59.6098C192.306 60.1848 191.602 60.4723 190.693 60.4723ZM190.681 59.6473C191.998 59.6473 192.656 58.8265 192.656 57.1848C192.656 56.4015 192.502 55.8015 192.193 55.3848C191.885 54.9681 191.381 54.7598 190.681 54.7598C189.373 54.7598 188.718 55.5681 188.718 57.1848C188.718 58.8265 189.373 59.6473 190.681 59.6473Z" fill="#001C25" stroke="#0F4252" stroke-width="0.3" stroke-miterlimit="2"/>
<path d="M195.626 54.5473C195.943 54.414 196.359 54.2806 196.876 54.1473C197.401 54.0056 197.943 53.9348 198.501 53.9348C198.584 53.9348 198.718 53.9598 198.901 54.0098V54.8098C198.701 54.7848 198.501 54.7723 198.301 54.7723C198.026 54.7723 197.772 54.789 197.538 54.8223C197.305 54.8556 196.968 54.9098 196.526 54.9848V60.2848H195.626V54.5473Z" fill="#001C25" stroke="#0F4252" stroke-width="0.3" stroke-miterlimit="2"/>
<path d="M202.691 60.3849C202.233 60.3849 201.858 60.2474 201.566 59.9724C201.274 59.6891 201.129 59.2891 201.129 58.7724V54.8724H200.041V54.0474H201.129V52.2849H202.029V54.0474H203.641V54.8724H202.029V58.4849C202.029 58.8516 202.087 59.1182 202.204 59.2849C202.32 59.4516 202.537 59.5349 202.854 59.5349C203.162 59.5349 203.424 59.4849 203.641 59.3849V60.2349C203.524 60.2766 203.374 60.3099 203.191 60.3349C203.016 60.3682 202.849 60.3849 202.691 60.3849Z" fill="#001C25" stroke="#0F4252" stroke-width="0.3" stroke-miterlimit="2"/>
<path d="M208.273 60.4724C207.439 60.4724 206.794 60.2599 206.335 59.8349C205.885 59.4015 205.66 58.789 205.66 57.9974V54.0474H206.56V57.7974C206.56 58.4307 206.698 58.8974 206.973 59.1974C207.248 59.489 207.681 59.6349 208.273 59.6349C208.856 59.6349 209.285 59.489 209.56 59.1974C209.843 58.8974 209.985 58.4307 209.985 57.7974V54.0474H210.885V57.9974C210.885 58.789 210.656 59.4015 210.198 59.8349C209.748 60.2599 209.106 60.4724 208.273 60.4724Z" fill="#001C25" stroke="#0F4252" stroke-width="0.3" stroke-miterlimit="2"/>
<path d="M213.277 54.5473C214.086 54.139 214.965 53.9348 215.915 53.9348C216.79 53.9348 217.419 54.1265 217.802 54.5098C218.194 54.8931 218.39 55.464 218.39 56.2223V60.2848H217.49V56.2223C217.49 55.239 216.932 54.7473 215.815 54.7473C215.298 54.7473 214.752 54.8306 214.177 54.9973V60.2848H213.277V54.5473Z" fill="#001C25" stroke="#0F4252" stroke-width="0.3" stroke-miterlimit="2"/>
<path d="M220.772 51.9475H221.772V52.935H220.772V51.9475ZM220.822 54.0475H221.722V60.285H220.822V54.0475Z" fill="#001C25" stroke="#0F4252" stroke-width="0.3" stroke-miterlimit="2"/>
<path d="M226.129 60.3849C225.67 60.3849 225.295 60.2474 225.004 59.9724C224.712 59.6891 224.566 59.2891 224.566 58.7724V54.8724H223.479V54.0474H224.566V52.2849H225.466V54.0474H227.079V54.8724H225.466V58.4849C225.466 58.8516 225.524 59.1182 225.641 59.2849C225.758 59.4516 225.974 59.5349 226.291 59.5349C226.599 59.5349 226.862 59.4849 227.079 59.3849V60.2349C226.962 60.2766 226.812 60.3099 226.629 60.3349C226.454 60.3682 226.287 60.3849 226.129 60.3849Z" fill="#001C25" stroke="#0F4252" stroke-width="0.3" stroke-miterlimit="2"/>
<path d="M234.41 54.0474L231.735 60.8974C231.477 61.564 231.173 62.0307 230.823 62.2974C230.481 62.564 230.131 62.6974 229.773 62.6974C229.573 62.6974 229.377 62.6599 229.185 62.5849V61.7599C229.352 61.8349 229.531 61.8724 229.723 61.8724C230.081 61.8724 230.36 61.7432 230.56 61.4849C230.76 61.2265 230.948 60.8349 231.123 60.3099L228.535 54.0474H229.56L231.535 59.1349L233.51 54.0474H234.41Z" fill="#001C25" stroke="#0F4252" stroke-width="0.3" stroke-miterlimit="2"/>
<path d="M14.6406 40.5562H18.3869V23.9478L14.6406 19.0777V40.5562ZM35.8694 11.0441V34.0211L17.5544 11.0024H14.6406V13.2502L18.3869 17.9954L36.4521 40.5562H39.6156V11.0441H35.8694Z" fill="#426394"/>
<path d="M57.0329 40.9725C58.1152 40.9725 59.1558 40.8476 60.1548 40.5562C61.1538 40.3065 62.0279 39.9319 62.8604 39.4324C63.6929 38.9329 64.4006 38.3501 65.0249 37.6841C65.6493 37.0181 66.1488 36.3105 66.5234 35.478L63.3599 34.6039C63.1102 35.1866 62.7772 35.6861 62.3609 36.1024C61.9447 36.5602 61.4452 36.9349 60.9041 37.2262C60.3213 37.5592 59.7386 37.809 59.1142 37.9755C58.4482 38.142 57.8238 38.2252 57.1578 38.2252C56.2004 38.2252 55.2847 38.0587 54.4522 37.6841C53.6197 37.3511 52.8704 36.8516 52.2044 36.1856C51.5384 35.5612 50.9973 34.812 50.5811 33.8962C50.1648 33.0221 49.9151 32.0231 49.8318 30.9409H67.8554C67.8554 30.816 67.8971 30.6079 67.8971 30.3581C67.8971 30.1084 67.9387 29.8586 67.9387 29.5256C67.9387 28.1104 67.6473 26.6951 67.1478 25.3631C66.6483 24.0311 65.8991 22.824 64.9833 21.825C64.0259 20.826 62.8604 19.9935 61.5284 19.3691C60.1964 18.7864 58.6979 18.4534 57.0746 18.4534C55.4096 18.4534 53.9111 18.7864 52.5791 19.3691C51.2054 19.9519 50.0399 20.7844 49.0409 21.7834C48.0419 22.824 47.2927 24.0311 46.7516 25.3631C46.2104 26.7367 45.9607 28.1936 45.9607 29.6921C45.9607 31.2322 46.2104 32.6891 46.7516 34.0627C47.2927 35.4364 48.0419 36.6435 49.0409 37.6425C49.9983 38.6831 51.1638 39.5156 52.5374 40.0984C53.8694 40.6811 55.3679 40.9725 57.0329 40.9725ZM64.4838 28.2352H49.7486C49.8318 27.2362 50.0399 26.2789 50.4562 25.4047C50.8724 24.5722 51.3719 23.823 52.0379 23.1986C52.7039 22.5742 53.4532 22.0747 54.3273 21.7417C55.1598 21.4087 56.0756 21.2006 57.0746 21.2006C58.0319 21.2006 58.9477 21.4087 59.8218 21.7417C60.6543 22.0747 61.4036 22.5742 62.0696 23.157C62.7356 23.7814 63.2767 24.5306 63.6929 25.4047C64.1092 26.2789 64.4006 27.2362 64.4838 28.2352Z" fill="#426394"/>
<path d="M74.3877 18.8279H70.5582L78.6751 29.7336L70.5166 40.5561H74.3877L80.3401 32.6058L80.6731 31.9814L81.0477 32.6058L87.0001 40.5561H90.8712L82.7127 29.7336L90.8296 18.8279H86.9585L81.0477 26.8199L80.6731 27.4859L80.3401 26.8199L74.3877 18.8279Z" fill="#426394"/>
<path d="M104.603 40.9725C106.227 40.9725 107.725 40.6811 109.057 40.0567C110.389 39.474 111.555 38.6415 112.554 37.6009C113.511 36.6019 114.26 35.3947 114.801 34.0211C115.301 32.6891 115.592 31.2322 115.592 29.7337C115.592 28.2352 115.301 26.7784 114.76 25.4047C114.219 24.0727 113.47 22.8656 112.512 21.825C111.555 20.826 110.389 19.9935 109.057 19.3691C107.684 18.7864 106.185 18.4534 104.603 18.4534C102.98 18.4534 101.482 18.7864 100.15 19.3691C98.8175 19.9935 97.652 20.826 96.6946 21.825C95.7372 22.8656 94.988 24.0727 94.4469 25.4047C93.9057 26.7784 93.656 28.2352 93.656 29.7337C93.656 31.2322 93.9057 32.6891 94.4469 34.0211C94.9464 35.3947 95.6956 36.6019 96.653 37.6009C97.6104 38.6415 98.7759 39.474 100.108 40.0567C101.44 40.6811 102.938 40.9725 104.603 40.9725ZM97.4022 29.7754C97.4022 28.6515 97.5687 27.6109 97.9434 26.6119C98.318 25.6129 98.8175 24.7804 99.4835 24.0311C100.149 23.2819 100.899 22.6991 101.773 22.2829C102.647 21.8666 103.604 21.6169 104.603 21.6169C105.602 21.6169 106.518 21.825 107.392 22.2412C108.266 22.6575 109.057 23.2402 109.723 23.9895C110.389 24.7387 110.889 25.5712 111.263 26.5702C111.638 27.5692 111.846 28.6099 111.846 29.6921C111.846 30.8576 111.638 31.8982 111.263 32.8972C110.889 33.8962 110.389 34.7287 109.723 35.478C109.057 36.2272 108.266 36.7684 107.392 37.1846C106.518 37.6009 105.602 37.809 104.603 37.809C103.604 37.809 102.647 37.6009 101.773 37.1846C100.899 36.7684 100.149 36.2272 99.4835 35.478C98.8175 34.7704 98.318 33.9379 97.9434 32.9389C97.5687 31.9815 97.4022 30.9409 97.4022 29.7754Z" fill="#426394"/>
<path d="M119 40.5537H122.746V23.9454L119 19.0752V40.5537ZM140.229 11.0416V34.0186L121.914 11H119V13.2478L122.746 17.993L140.811 40.5537H143.975V11.0416H140.229Z" fill="#426394"/>
<path d="M156.284 40.5191C157.949 40.5191 159.531 40.1861 161.03 39.5201C162.528 38.8541 163.735 37.8551 164.734 36.5231L164.818 38.0632C164.901 38.6876 165.151 39.2287 165.567 39.645C165.983 40.0612 166.566 40.2694 167.315 40.2694C167.565 40.2694 167.856 40.2694 168.106 40.2277C168.356 40.2277 168.647 40.1861 169.063 40.1029V36.9394C168.272 36.9394 167.898 36.4815 167.898 35.6074V26.7412C167.898 23.994 167.065 21.8295 165.484 20.2894C163.902 18.7909 161.654 18 158.824 18C155.993 18 153.163 18.9574 150.374 20.8305L151.581 23.2031C153.995 21.5381 156.284 20.664 158.491 20.664C160.322 20.664 161.737 21.2051 162.736 22.2041C163.735 23.2031 164.235 24.6184 164.235 26.3666V28.1149C163.402 27.7819 162.445 27.5321 161.363 27.324C160.28 27.1575 159.198 27.0326 158.158 27.0326C156.826 27.0326 155.577 27.1991 154.453 27.5321C153.329 27.8651 152.372 28.323 151.539 28.9057C150.707 29.4885 150.082 30.1961 149.666 31.0286C149.208 31.8611 149 32.7352 149 33.7342C149 34.7332 149.167 35.6074 149.541 36.4399C149.916 37.2724 150.415 37.98 151.081 38.5627C151.747 39.1871 152.497 39.6866 153.412 40.0196C154.286 40.3526 155.244 40.5191 156.284 40.5191ZM157.242 37.7719C156.576 37.7719 155.951 37.6886 155.369 37.4389C154.786 37.2308 154.245 36.9394 153.829 36.5231C153.412 36.1485 153.079 35.6906 152.83 35.1495C152.58 34.65 152.497 34.0672 152.497 33.4429C152.497 32.1941 153.038 31.1951 154.203 30.4042C155.369 29.655 156.867 29.2387 158.699 29.2387C160.613 29.2387 162.445 29.6134 164.235 30.2794V33.4845C164.235 34.0672 163.943 34.6084 163.444 35.1079C162.861 35.9404 161.987 36.5647 160.863 37.0642C159.739 37.5637 158.532 37.7719 157.242 37.7719Z" fill="#426394"/>
<path d="M182.91 41.1445C184.783 41.1445 186.531 40.7282 188.113 39.8541C189.695 38.98 190.943 37.7312 191.942 36.0662L192.026 38.6054C192.026 39.2714 192.275 39.8125 192.775 40.2287C193.274 40.645 193.857 40.8531 194.606 40.8531C194.814 40.8531 195.023 40.8531 195.272 40.8531C195.522 40.8531 195.855 40.8115 196.271 40.7282V37.5647C195.48 37.5647 195.106 37.1069 195.106 36.2327V19H191.443V32.6114C190.777 34.2764 189.819 35.6084 188.487 36.5657C187.155 37.5231 185.782 37.981 184.283 37.981C181.203 37.981 179.663 35.7749 179.663 31.321V19H176V32.0286C176 35.0672 176.583 37.3566 177.748 38.8551C178.914 40.3952 180.62 41.1445 182.91 41.1445Z" fill="#426394"/>
<path d="M212.154 39.8887L211.279 36.975C211.03 37.1415 210.613 37.308 210.031 37.5578C209.448 37.8075 208.782 37.8908 208.074 37.8908C207.408 37.8908 206.867 37.7242 206.409 37.3496C205.91 37.0166 205.66 36.4339 205.618 35.6014V22.1149H210.489V19.2427H205.618V12H201.955V19.2427H199V22.1149H201.955V36.7252C201.955 38.307 202.413 39.4309 203.412 40.1801C204.37 40.9294 205.535 41.2624 206.867 41.2624C207.45 41.2624 207.991 41.2207 208.532 41.1375C209.073 41.0542 209.573 40.9294 210.031 40.7629C210.489 40.5964 210.905 40.4715 211.279 40.305C211.612 40.1385 211.904 40.0136 212.154 39.8887Z" fill="#426394"/>
<path d="M222.532 40.5191C225.155 40.5191 227.236 39.9364 228.817 38.7292C230.358 37.5637 231.149 35.9404 231.149 33.9007C231.149 32.985 230.94 32.2357 230.607 31.5697C230.274 30.9454 229.733 30.4042 229.026 29.9047C228.318 29.4469 227.444 29.0306 226.362 28.6976C225.279 28.3646 224.031 27.99 222.615 27.657C221.7 27.4489 220.909 27.2407 220.243 27.0326C219.577 26.8661 219.077 26.6164 218.661 26.3666C218.245 26.1169 217.912 25.8255 217.745 25.4925C217.579 25.1595 217.496 24.7432 217.496 24.2437C217.496 22.995 217.953 22.1209 218.869 21.5381C219.785 20.9554 220.95 20.664 222.282 20.664C223.448 20.664 224.613 20.8721 225.779 21.2884C226.903 21.7046 227.943 22.2874 228.859 23.0782L230.524 20.8721C229.525 20.0396 228.36 19.332 226.944 18.7909C225.529 18.2914 223.989 18 222.366 18C221.2 18 220.076 18.1665 219.077 18.4579C218.078 18.7492 217.204 19.1655 216.455 19.7482C215.706 20.331 215.081 21.0386 214.665 21.8711C214.249 22.7036 214.041 23.661 214.041 24.7432C214.041 25.6174 214.166 26.325 214.457 26.9077C214.707 27.4905 215.165 27.99 215.789 28.4062C216.372 28.8225 217.163 29.1971 218.12 29.4885C219.036 29.8215 220.159 30.1129 221.491 30.4459C222.49 30.6956 223.406 30.9454 224.197 31.1535C224.946 31.4032 225.612 31.653 226.112 31.9027C226.611 32.1941 226.986 32.5271 227.236 32.9017C227.486 33.2764 227.61 33.7342 227.61 34.2337C227.61 35.3992 227.111 36.2734 226.195 36.8977C225.279 37.5221 224.031 37.8135 222.449 37.8135C221.034 37.8135 219.66 37.6054 218.411 37.1059C217.121 36.6064 215.831 35.8987 214.582 34.8997L213 37.3556C214.207 38.3962 215.664 39.1871 217.371 39.7282C219.036 40.2694 220.784 40.5191 222.532 40.5191Z" fill="#426394"/>
<rect x="3" y="3" width="65.2969" height="26" rx="2" fill="#404040"/>
<rect x="3.5" y="3.5" width="64.2969" height="25" rx="1.5" stroke="black" stroke-opacity="0.14902"/>
<path d="M14.3125 11V19H13.375L9.01563 12.7187H8.9375V19H7.96875V11H8.90625L13.2813 17.2969H13.3594V11H14.3125ZM18.6416 19.125C18.0635 19.125 17.5648 18.9974 17.1455 18.7422C16.7288 18.4844 16.4072 18.125 16.1807 17.6641C15.9567 17.2005 15.8447 16.6615 15.8447 16.0469C15.8447 15.4323 15.9567 14.8906 16.1807 14.4219C16.4072 13.9505 16.7223 13.5833 17.126 13.3203C17.5322 13.0547 18.0062 12.9219 18.5479 12.9219C18.8604 12.9219 19.1689 12.974 19.4736 13.0781C19.7783 13.1823 20.0557 13.3516 20.3057 13.5859C20.5557 13.8177 20.7549 14.125 20.9033 14.5078C21.0518 14.8906 21.126 15.362 21.126 15.9219V16.3125H16.501V15.5156H20.1885C20.1885 15.1771 20.1208 14.875 19.9854 14.6094C19.8525 14.3437 19.6624 14.1341 19.415 13.9805C19.1702 13.8268 18.8812 13.75 18.5479 13.75C18.1807 13.75 17.863 13.8411 17.5947 14.0234C17.3291 14.2031 17.1247 14.4375 16.9814 14.7266C16.8382 15.0156 16.7666 15.3255 16.7666 15.6562V16.1875C16.7666 16.6406 16.8447 17.0247 17.001 17.3398C17.1598 17.6523 17.3799 17.8906 17.6611 18.0547C17.9424 18.2161 18.2692 18.2969 18.6416 18.2969C18.8838 18.2969 19.1025 18.263 19.2979 18.1953C19.4958 18.125 19.6663 18.0208 19.8096 17.8828C19.9528 17.7422 20.0635 17.5677 20.1416 17.3594L21.0322 17.6094C20.9385 17.9115 20.7809 18.1771 20.5596 18.4062C20.3382 18.6328 20.0648 18.8099 19.7393 18.9375C19.4137 19.0625 19.0479 19.125 18.6416 19.125ZM23.0547 13L24.4922 15.4531L25.9297 13H26.9922L25.0547 16L26.9922 19H25.9297L24.4922 16.6719L23.0547 19H21.9922L23.8984 16L21.9922 13H23.0547ZM30.498 19.125C29.9564 19.125 29.4811 18.9961 29.0723 18.7383C28.666 18.4805 28.3483 18.1198 28.1191 17.6562C27.8926 17.1927 27.7793 16.651 27.7793 16.0312C27.7793 15.4062 27.8926 14.8607 28.1191 14.3945C28.3483 13.9284 28.666 13.5664 29.0723 13.3086C29.4811 13.0508 29.9564 12.9219 30.498 12.9219C31.0397 12.9219 31.5137 13.0508 31.9199 13.3086C32.3288 13.5664 32.6465 13.9284 32.873 14.3945C33.1022 14.8607 33.2168 15.4062 33.2168 16.0312C33.2168 16.651 33.1022 17.1927 32.873 17.6562C32.6465 18.1198 32.3288 18.4805 31.9199 18.7383C31.5137 18.9961 31.0397 19.125 30.498 19.125ZM30.498 18.2969C30.9095 18.2969 31.248 18.1914 31.5137 17.9805C31.7793 17.7695 31.9759 17.4922 32.1035 17.1484C32.2311 16.8047 32.2949 16.4323 32.2949 16.0312C32.2949 15.6302 32.2311 15.2565 32.1035 14.9102C31.9759 14.5638 31.7793 14.2839 31.5137 14.0703C31.248 13.8568 30.9095 13.75 30.498 13.75C30.0866 13.75 29.748 13.8568 29.4824 14.0703C29.2168 14.2839 29.0202 14.5638 28.8926 14.9102C28.765 15.2565 28.7012 15.6302 28.7012 16.0312C28.7012 16.4323 28.765 16.8047 28.8926 17.1484C29.0202 17.4922 29.2168 17.7695 29.4824 17.9805C29.748 18.1914 30.0866 18.2969 30.498 18.2969ZM41.0928 11V19H40.1553L35.7959 12.7187H35.7178V19H34.749V11H35.6865L40.0615 17.2969H40.1396V11H41.0928ZM44.6719 19.1406C44.2917 19.1406 43.9466 19.069 43.6367 18.9258C43.3268 18.7799 43.0807 18.5703 42.8984 18.2969C42.7161 18.0208 42.625 17.6875 42.625 17.2969C42.625 16.9531 42.6927 16.6745 42.8281 16.4609C42.9635 16.2448 43.1445 16.0755 43.3711 15.9531C43.5977 15.8307 43.8477 15.7396 44.1211 15.6797C44.3971 15.6172 44.6745 15.5677 44.9531 15.5313C45.3177 15.4844 45.6133 15.4492 45.8398 15.4258C46.069 15.3997 46.2357 15.3568 46.3398 15.2969C46.4466 15.237 46.5 15.1328 46.5 14.9844V14.9531C46.5 14.5677 46.3945 14.2682 46.1836 14.0547C45.9753 13.8411 45.6589 13.7344 45.2344 13.7344C44.7943 13.7344 44.4492 13.8307 44.1992 14.0234C43.9492 14.2161 43.7734 14.4219 43.6719 14.6406L42.7969 14.3281C42.9531 13.9635 43.1615 13.6797 43.4219 13.4766C43.6849 13.2708 43.9714 13.1276 44.2813 13.0469C44.5938 12.9635 44.901 12.9219 45.2031 12.9219C45.3958 12.9219 45.6172 12.9453 45.8672 12.9922C46.1198 13.0365 46.3633 13.1289 46.5977 13.2695C46.8346 13.4102 47.0313 13.6224 47.1875 13.9062C47.3438 14.1901 47.4219 14.5703 47.4219 15.0469V19H46.5V18.1875H46.4531C46.3906 18.3177 46.2865 18.457 46.1406 18.6055C45.9948 18.7539 45.8008 18.8802 45.5586 18.9844C45.3164 19.0885 45.0208 19.1406 44.6719 19.1406ZM44.8125 18.3125C45.1771 18.3125 45.4844 18.2409 45.7344 18.0977C45.987 17.9544 46.1771 17.7695 46.3047 17.543C46.4349 17.3164 46.5 17.0781 46.5 16.8281V15.9844C46.4609 16.0312 46.375 16.0742 46.2422 16.1133C46.112 16.1497 45.9609 16.1823 45.7891 16.2109C45.6198 16.237 45.4544 16.2604 45.293 16.2812C45.1341 16.2995 45.0052 16.3151 44.9063 16.3281C44.6667 16.3594 44.4427 16.4102 44.2344 16.4805C44.0286 16.5482 43.862 16.651 43.7344 16.7891C43.6094 16.9245 43.5469 17.1094 43.5469 17.3437C43.5469 17.6641 43.6654 17.9062 43.9023 18.0703C44.1419 18.2318 44.4453 18.3125 44.8125 18.3125ZM52.8857 16.5469V13H53.8076V19H52.8857V17.9844H52.8232C52.6826 18.2891 52.4639 18.5482 52.167 18.7617C51.8701 18.9727 51.4951 19.0781 51.042 19.0781C50.667 19.0781 50.3337 18.9961 50.042 18.832C49.7503 18.6654 49.5212 18.4154 49.3545 18.082C49.1878 17.7461 49.1045 17.3229 49.1045 16.8125V13H50.0264V16.75C50.0264 17.1875 50.1488 17.5365 50.3936 17.7969C50.641 18.0573 50.9561 18.1875 51.3389 18.1875C51.568 18.1875 51.8011 18.1289 52.0381 18.0117C52.2777 17.8945 52.4782 17.7148 52.6396 17.4727C52.8037 17.2305 52.8857 16.9219 52.8857 16.5469ZM58.1055 13V13.7812H54.9961V13H58.1055ZM55.9023 11.5625H56.8242V17.2812C56.8242 17.5417 56.862 17.737 56.9375 17.8672C57.0156 17.9948 57.1146 18.0807 57.2344 18.125C57.3568 18.1667 57.4857 18.1875 57.6211 18.1875C57.7227 18.1875 57.806 18.1823 57.8711 18.1719C57.9362 18.1589 57.9883 18.1484 58.0273 18.1406L58.2148 18.9687C58.1523 18.9922 58.0651 19.0156 57.9531 19.0391C57.8411 19.0651 57.6992 19.0781 57.5273 19.0781C57.2669 19.0781 57.0117 19.0221 56.7617 18.9102C56.5143 18.7982 56.3086 18.6276 56.1445 18.3984C55.9831 18.1693 55.9023 17.8802 55.9023 17.5312V11.5625ZM63.6348 14.3437L62.8066 14.5781C62.7546 14.4401 62.6777 14.306 62.5762 14.1758C62.4772 14.043 62.3418 13.9336 62.1699 13.8477C61.998 13.7617 61.778 13.7187 61.5098 13.7187C61.1426 13.7187 60.8366 13.8034 60.5918 13.9727C60.3496 14.1393 60.2285 14.3516 60.2285 14.6094C60.2285 14.8385 60.3118 15.0195 60.4785 15.1523C60.6452 15.2852 60.9056 15.3958 61.2598 15.4844L62.1504 15.7031C62.6868 15.8333 63.0866 16.0326 63.3496 16.3008C63.6126 16.5664 63.7441 16.9089 63.7441 17.3281C63.7441 17.6719 63.6452 17.9792 63.4473 18.25C63.252 18.5208 62.9785 18.7344 62.627 18.8906C62.2754 19.0469 61.8665 19.125 61.4004 19.125C60.7884 19.125 60.2819 18.9922 59.8809 18.7266C59.4798 18.4609 59.2259 18.0729 59.1191 17.5625L59.9941 17.3437C60.0775 17.6667 60.235 17.9089 60.4668 18.0703C60.7012 18.2318 61.0072 18.3125 61.3848 18.3125C61.8145 18.3125 62.1556 18.2214 62.4082 18.0391C62.6634 17.8542 62.791 17.6328 62.791 17.375C62.791 17.1667 62.7181 16.9922 62.5723 16.8516C62.4264 16.7083 62.2025 16.6016 61.9004 16.5312L60.9004 16.2969C60.3509 16.1667 59.9473 15.9648 59.6895 15.6914C59.4342 15.4154 59.3066 15.0703 59.3066 14.6562C59.3066 14.3177 59.4017 14.0182 59.5918 13.7578C59.7845 13.4974 60.0462 13.293 60.377 13.1445C60.7103 12.9961 61.0879 12.9219 61.5098 12.9219C62.1035 12.9219 62.5697 13.0521 62.9082 13.3125C63.2493 13.5729 63.4915 13.9167 63.6348 14.3437Z" fill="white"/>
</svg>
