<?xml version="1.0" standalone="no"?>
<!DOCTYPE svg PUBLIC "-//W3C//DTD SVG 20010904//EN"
 "http://www.w3.org/TR/2001/REC-SVG-20010904/DTD/svg10.dtd">
<svg version="1.0" xmlns="http://www.w3.org/2000/svg"
 width="113.000000pt" height="113.000000pt" viewBox="0 0 113.000000 113.000000"
 preserveAspectRatio="xMidYMid meet">
<metadata>
Created by potrace 1.16, written by Peter Selinger 2001-2019
</metadata>
<g transform="translate(0.000000,113.000000) scale(0.100000,-0.100000)"
fill="#000000" stroke="none">
<path d="M600 683 c-44 -23 -96 -91 -111 -146 -6 -23 -21 -66 -32 -95 -19 -48
-27 -57 -87 -89 -36 -20 -76 -46 -88 -57 -22 -19 -52 -66 -52 -81 0 -3 115 -5
255 -5 178 0 255 3 255 11 0 26 -36 69 -62 74 -31 7 -35 17 -13 35 18 15 9 34
-12 25 -9 -3 -24 2 -33 10 -17 15 -17 18 7 43 16 18 23 34 20 50 -4 20 2 27
30 39 19 8 54 13 76 11 37 -3 42 -6 45 -30 3 -24 0 -28 -21 -28 -14 0 -30 7
-37 15 -21 25 -32 17 -13 -9 10 -14 27 -26 38 -28 11 -2 20 -10 20 -18 0 -9
-7 -14 -19 -12 -20 4 -65 -42 -66 -65 0 -21 16 -15 27 9 8 19 10 20 16 5 3 -9
2 -17 -3 -17 -6 0 -10 -9 -10 -21 0 -20 0 -20 31 2 38 27 109 134 109 164 0
12 -11 32 -25 45 -14 13 -25 30 -25 37 0 8 -12 25 -26 38 -35 32 -81 32 -128
0 -42 -29 -54 -32 -35 -9 10 13 10 17 -2 25 -10 6 -6 9 16 9 17 0 41 7 54 14
14 8 42 12 65 10 l41 -5 -50 25 c-72 35 -113 40 -155 19z"/>
</g>
</svg>
