<svg xmlns="http://www.w3.org/2000/svg" width="258" height="50" version="1.1"><path fill="#000" d="M 33.6 36.8 l -4.8 0 l -5.2 -8.4 l -1.8 1.3 l 0 7.1 l -4.2 0 l 0 -20 l 4.2 0 l 0 9.1 l 1.7 -2.4 l 5.4 -6.8 l 4.7 0 l -7 8.8 z M 63.3 36.8 l -4.8 0 l -5.2 -8.4 l -1.8 1.3 l 0 7.1 l -4.2 0 l 0 -20 l 4.2 0 l 0 9.1 l 1.7 -2.4 l 5.4 -6.8 l 4.7 0 l -7 8.8 z"/><path fill="#279df2" d="M 88.8 21.4 l 0 8.8 c 0 3.2 0.9 4.5 3.7 4.5 c 3 0 3.6 -1.6 3.6 -4.9 l 0 -8.4 l -2.2 -0.8 l 0 -2.4 l 8.6 -0.1 l 0 2.5 l -2.1 0.8 l 0 8.4 c 0 5.4 -2.1 8.3 -8.1 8.3 c -5.6 0 -7.9 -2.5 -7.9 -7.9 l 0 -8.8 l -2.1 -0.8 l 0 -2.4 l 8.6 -0.1 l 0 2.5 z M 106.5 37.8 l 0 -2.4 l 2.1 -0.8 l 0 -13.2 l -2.1 -0.8 l 0 -2.4 l 6.4 -0.1 l 2.7 0 c 4.3 0 6.8 2.2 6.8 5.9 c 0 4.7 -2.9 7 -8 7 l -1.5 0 l 0 3.6 l 2.1 0.8 l 0 2.4 l -8.5 0 z M 112.9 27.7 l 1.5 0 c 2.3 0 3.6 -1.1 3.6 -3.2 c 0 -1.8 -1 -3.1 -2.9 -3.1 l -2.2 0 l 0 6.2 z M 139.6 24.1 l -0.7 -2.4 s -1.3 -0.4 -3.2 -0.4 c -3 0 -4.7 2.2 -4.7 6.9 c 0 4.5 1.8 6.5 4.8 6.5 c 1.5 0 3.1 -0.5 3.1 -0.5 l 0 -3.5 l -2.1 -0.6 l 0 -2.3 l 8.1 -0.1 l 0 2.4 l -1.9 0.6 l 0 5.7 s -2.9 1.9 -7.6 1.9 c -5.7 0 -9 -3.4 -9 -9.9 c 0 -6.6 3.7 -10.5 9.4 -10.5 c 3.4 0 6.5 1.3 6.5 1.3 l -0.1 5 l -2.6 0 z M 148.8 37.8 l 0 -2.4 l 2.1 -0.8 l 0 -13.2 l -2.1 -0.8 l 0 -2.4 l 6.4 -0.1 l 2.1 0 c 4.6 0 7.3 1.9 7.3 5.7 c 0 2.6 -1.3 4.3 -3.2 5.3 c 0.3 0.4 0.7 0.9 1.2 1.8 l 1.9 3.8 l 1.9 0.7 l 0 2.4 l -5.2 0 l -2.4 -5.2 c -1 -2.1 -1.2 -2.6 -2.7 -2.6 l -1 0 l 0 4.5 l 2 0.8 l 0 2.4 l -8.5 0 z M 155.2 27.1 l 1.6 0 c 2.2 0 3.5 -1.1 3.5 -2.9 c 0 -1.6 -1.1 -2.7 -2.8 -2.7 l -2.3 0 l 0 5.7 z M 189.5 35.4 l 0 2.4 l -8.9 0 l 0 -2.4 l 2.1 -0.8 l -0.7 -2 l -6.2 0 l -0.7 2 l 2.2 0.8 l 0 2.4 l -8.5 0 l 0 -2.4 l 2 -0.8 l 6.2 -16.5 l 4.5 -0.1 l 6 16.6 z M 181.1 29.6 l -2.1 -6.6 l -2.2 6.6 l 4.3 0 z M 194.8 34.6 l 0 -13.2 l -2.1 -0.8 l 0 -2.4 l 6.4 -0.1 l 2.7 0 c 5.6 0 8.9 3.3 8.9 9.6 s -3.6 10.1 -9.3 10.1 l -8.7 0 l 0 -2.4 z M 199.1 34.4 l 2.3 0 c 2.7 0 4.5 -1.6 4.5 -6.6 c 0 -4.7 -1.6 -6.4 -4.3 -6.4 l -2.5 0 l 0 13 z M 227.4 26 l 0 3.1 l -5.7 0 l 0 5.3 l 5 0 l 0.6 -2.3 l 2.5 0 l 0 5.7 l -14.6 0 l 0 -2.4 l 2.1 -0.8 l 0 -13.2 l -2.1 -0.8 l 0 -2.4 l 6.4 -0.1 l 7.8 0 l 0 5.4 l -2.5 0 l -0.7 -2 l -4.6 0 l 0 4.6 l 5.7 0 z M 234.4 37.8 l 0 -2.4 l 2.1 -0.8 l 0 -13.2 l -2.1 -0.8 l 0 -2.4 l 6.4 -0.1 l 2.1 0 c 4.6 0 7.3 1.9 7.3 5.7 c 0 2.6 -1.3 4.3 -3.2 5.3 c 0.3 0.4 0.7 0.9 1.2 1.8 l 1.9 3.8 l 1.9 0.7 l 0 2.4 l -5.2 0 l -2.4 -5.2 c -1 -2.1 -1.2 -2.6 -2.7 -2.6 l -1 0 l 0 4.5 l 2 0.8 l 0 2.4 l -8.5 0 z M 240.8 27.1 l 1.6 0 c 2.2 0 3.5 -1.1 3.5 -2.9 c 0 -1.6 -1.1 -2.7 -2.8 -2.7 l -2.3 0 l 0 5.7 z"/></svg>