<svg xmlns="http://www.w3.org/2000/svg" width="251" height="50" fill="none" viewBox="0 0 251 50"><path fill="#24221B" stroke-width="4" d="M10 39.5562H14.0243V22.9478L10 18.0777V39.5562ZM32.8043 10.0441V33.0211L13.13 10.0024H10V12.2502L14.0243 16.9954L33.4303 39.5562H36.8286V10.0441H32.8043Z"/><path fill="#24221B" stroke-width="4" d="M55.5385 39.9725C56.7011 39.9725 57.819 39.8476 58.8921 39.5562C59.9653 39.3065 60.9043 38.9319 61.7986 38.4324C62.6928 37.9329 63.453 37.3501 64.1237 36.6841C64.7944 36.0181 65.331 35.3105 65.7334 34.478L62.3351 33.6039C62.0668 34.1866 61.7091 34.6861 61.262 35.1024C60.8148 35.5602 60.2783 35.9349 59.697 36.2262C59.071 36.5592 58.445 36.809 57.7743 36.9755C57.0588 37.142 56.3881 37.2252 55.6727 37.2252C54.6443 37.2252 53.6605 37.0587 52.7663 36.6841C51.872 36.3511 51.0671 35.8516 50.3517 35.1856C49.6362 34.5612 49.055 33.812 48.6078 32.8962C48.1607 32.0221 47.8924 31.0231 47.803 29.9409H67.1643C67.1643 29.816 67.209 29.6079 67.209 29.3581C67.209 29.1084 67.2537 28.8586 67.2537 28.5256C67.2537 27.1104 66.9407 25.6951 66.4041 24.3631C65.8676 23.0311 65.0627 21.824 64.079 20.825C63.0506 19.826 61.7985 18.9935 60.3677 18.3691C58.9368 17.7864 57.3271 17.4534 55.5833 17.4534C53.7947 17.4534 52.185 17.7864 50.7541 18.3691C49.2785 18.9519 48.0265 19.7844 46.9534 20.7834C45.8803 21.824 45.0754 23.0311 44.4941 24.3631C43.9128 25.7367 43.6445 27.1936 43.6445 28.6921C43.6445 30.2322 43.9128 31.6891 44.4941 33.0627C45.0754 34.4364 45.8803 35.6435 46.9534 36.6425C47.9818 37.6831 49.2338 38.5156 50.7094 39.0984C52.1403 39.6811 53.75 39.9725 55.5385 39.9725ZM63.5424 27.2352H47.7135C47.803 26.2362 48.0265 25.2789 48.4737 24.4047C48.9208 23.5722 49.4574 22.823 50.1728 22.1986C50.8883 21.5742 51.6931 21.0747 52.6321 20.7417C53.5264 20.4087 54.5101 20.2006 55.5833 20.2006C56.6117 20.2006 57.5954 20.4087 58.5344 20.7417C59.4287 21.0747 60.2335 21.5742 60.949 22.157C61.6644 22.7814 62.2457 23.5306 62.6928 24.4047C63.14 25.2789 63.453 26.2362 63.5424 27.2352Z"/><path fill="#24221B" stroke-width="4" d="M74.1814 17.8279H70.0677L78.787 28.7336L70.0229 39.5561H74.1814L80.5755 31.6058L80.9333 30.9814L81.3357 31.6058L87.7298 39.5561H91.8883L83.1243 28.7336L91.8436 17.8279H87.6851L81.3357 25.8199L80.9333 26.4859L80.5755 25.8199L74.1814 17.8279Z"/><path fill="#24221B" stroke-width="4" d="M106.64 39.9725C108.383 39.9725 109.993 39.6811 111.424 39.0567C112.855 38.474 114.107 37.6415 115.18 36.6009C116.208 35.6019 117.013 34.3947 117.595 33.0211C118.131 31.6891 118.444 30.2322 118.444 28.7337C118.444 27.2352 118.131 25.7784 117.55 24.4047C116.969 23.0727 116.164 21.8656 115.135 20.825C114.107 19.826 112.855 18.9935 111.424 18.3691C109.948 17.7864 108.339 17.4534 106.64 17.4534C104.896 17.4534 103.286 17.7864 101.855 18.3691C100.424 18.9935 99.1722 19.826 98.1438 20.825C97.1153 21.8656 96.3105 23.0727 95.7292 24.4047C95.1479 25.7784 94.8796 27.2352 94.8796 28.7337C94.8796 30.2322 95.1479 31.6891 95.7292 33.0211C96.2658 34.3947 97.0706 35.6019 98.0991 36.6009C99.1275 37.6415 100.38 38.474 101.81 39.0567C103.241 39.6811 104.851 39.9725 106.64 39.9725ZM98.9039 28.7754C98.9039 27.6515 99.0828 26.6109 99.4852 25.6119C99.8876 24.6129 100.424 23.7804 101.14 23.0311C101.855 22.2819 102.66 21.6991 103.599 21.2829C104.538 20.8666 105.566 20.6169 106.64 20.6169C107.713 20.6169 108.696 20.825 109.635 21.2412C110.574 21.6575 111.424 22.2402 112.139 22.9895C112.855 23.7387 113.391 24.5712 113.794 25.5702C114.196 26.5692 114.42 27.6099 114.42 28.6921C114.42 29.8576 114.196 30.8982 113.794 31.8972C113.391 32.8962 112.855 33.7287 112.139 34.478C111.424 35.2272 110.574 35.7684 109.635 36.1846C108.696 36.6009 107.713 36.809 106.64 36.809C105.566 36.809 104.538 36.6009 103.599 36.1846C102.66 35.7684 101.855 35.2272 101.14 34.478C100.424 33.7704 99.8876 32.9379 99.4852 31.9389C99.0828 30.9815 98.9039 29.9409 98.9039 28.7754Z"/><path fill="#24221B" stroke-width="4" d="M122.105 39.5537H126.129V22.9454L122.105 18.0752V39.5537ZM144.909 10.0416V33.0186L125.235 10H122.105V12.2478L126.129 16.993L145.535 39.5537H148.933V10.0416H144.909Z"/><path fill="#24221B" stroke-width="4" d="M162.156 39.5191C163.945 39.5191 165.644 39.1861 167.254 38.5201C168.863 37.8541 170.16 36.8551 171.233 35.5231L171.323 37.0632C171.412 37.6876 171.68 38.2287 172.128 38.645C172.575 39.0612 173.201 39.2694 174.006 39.2694C174.274 39.2694 174.587 39.2694 174.855 39.2277C175.123 39.2277 175.436 39.1861 175.884 39.1029V35.9394C175.034 35.9394 174.632 35.4815 174.632 34.6074V25.7412C174.632 22.994 173.737 20.8295 172.038 19.2894C170.339 17.7909 167.924 17 164.884 17C161.843 17 158.803 17.9574 155.807 19.8305L157.104 22.2031C159.697 20.5381 162.156 19.664 164.526 19.664C166.494 19.664 168.014 20.2051 169.087 21.2041C170.16 22.2031 170.697 23.6184 170.697 25.3666V27.1149C169.802 26.7819 168.774 26.5321 167.611 26.324C166.449 26.1575 165.286 26.0326 164.168 26.0326C162.738 26.0326 161.396 26.1991 160.189 26.5321C158.982 26.8651 157.953 27.323 157.059 27.9057C156.165 28.4885 155.494 29.1961 155.047 30.0286C154.555 30.8611 154.331 31.7352 154.331 32.7342C154.331 33.7332 154.51 34.6074 154.913 35.4399C155.315 36.2724 155.852 36.98 156.567 37.5627C157.282 38.1871 158.087 38.6866 159.071 39.0196C160.01 39.3526 161.038 39.5191 162.156 39.5191ZM163.185 36.7719C162.469 36.7719 161.799 36.6886 161.173 36.4389C160.547 36.2308 159.965 35.9394 159.518 35.5231C159.071 35.1485 158.713 34.6906 158.445 34.1495C158.177 33.65 158.087 33.0672 158.087 32.4429C158.087 31.1941 158.669 30.1951 159.921 29.4042C161.173 28.655 162.782 28.2387 164.75 28.2387C166.807 28.2387 168.774 28.6134 170.697 29.2794V32.4845C170.697 33.0672 170.384 33.6084 169.847 34.1079C169.221 34.9404 168.282 35.5647 167.075 36.0642C165.868 36.5637 164.571 36.7719 163.185 36.7719Z"/><path fill="#24221B" stroke-width="4" d="M190.758 40.1445C192.77 40.1445 194.648 39.7282 196.347 38.8541C198.046 37.98 199.388 36.7312 200.461 35.0662L200.55 37.6054C200.55 38.2714 200.819 38.8125 201.355 39.2287C201.892 39.645 202.518 39.8531 203.322 39.8531C203.546 39.8531 203.77 39.8531 204.038 39.8531C204.306 39.8531 204.664 39.8115 205.111 39.7282V36.5647C204.262 36.5647 203.859 36.1069 203.859 35.2327V18H199.924V31.6114C199.209 33.2764 198.18 34.6084 196.749 35.5657C195.319 36.5231 193.843 36.981 192.233 36.981C188.925 36.981 187.27 34.7749 187.27 30.321V18H183.335V31.0286C183.335 34.0672 183.961 36.3566 185.213 37.8551C186.465 39.3952 188.298 40.1445 190.758 40.1445Z"/><path fill="#24221B" stroke-width="4" d="M222.172 38.8887L221.233 35.975C220.965 36.1415 220.518 36.308 219.892 36.5578C219.266 36.8075 218.55 36.8908 217.79 36.8908C217.075 36.8908 216.493 36.7242 216.001 36.3496C215.465 36.0166 215.197 35.4339 215.152 34.6014V21.1149H220.383V18.2427H215.152V11H211.217V18.2427H208.042V21.1149H211.217V35.7252C211.217 37.307 211.709 38.4309 212.782 39.1801C213.81 39.9294 215.062 40.2624 216.493 40.2624C217.119 40.2624 217.701 40.2207 218.282 40.1375C218.863 40.0542 219.4 39.9294 219.892 39.7629C220.383 39.5964 220.831 39.4715 221.233 39.305C221.591 39.1385 221.904 39.0136 222.172 38.8887Z"/><path fill="#24221B" stroke-width="4" d="M233.321 39.5191C236.138 39.5191 238.374 38.9364 240.073 37.7292C241.727 36.5637 242.577 34.9404 242.577 32.9007C242.577 31.985 242.353 31.2357 241.995 30.5697C241.638 29.9454 241.056 29.4042 240.296 28.9047C239.536 28.4469 238.597 28.0306 237.435 27.6976C236.272 27.3646 234.931 26.99 233.41 26.657C232.427 26.4489 231.577 26.2407 230.862 26.0326C230.146 25.8661 229.61 25.6164 229.162 25.3666C228.715 25.1169 228.358 24.8255 228.179 24.4925C228 24.1595 227.91 23.7432 227.91 23.2437C227.91 21.995 228.402 21.1209 229.386 20.5381C230.37 19.9554 231.622 19.664 233.053 19.664C234.305 19.664 235.557 19.8721 236.809 20.2884C238.016 20.7046 239.134 21.2874 240.117 22.0782L241.906 19.8721C240.833 19.0396 239.581 18.332 238.061 17.7909C236.54 17.2914 234.886 17 233.142 17C231.89 17 230.683 17.1665 229.61 17.4579C228.536 17.7492 227.597 18.1655 226.793 18.7482C225.988 19.331 225.317 20.0386 224.87 20.8711C224.423 21.7036 224.199 22.661 224.199 23.7432C224.199 24.6174 224.333 25.325 224.646 25.9077C224.915 26.4905 225.406 26.99 226.077 27.4062C226.703 27.8225 227.553 28.1971 228.581 28.4885C229.565 28.8215 230.772 29.1129 232.203 29.4459C233.276 29.6956 234.26 29.9454 235.109 30.1535C235.914 30.4032 236.63 30.653 237.166 30.9027C237.703 31.1941 238.105 31.5271 238.374 31.9017C238.642 32.2764 238.776 32.7342 238.776 33.2337C238.776 34.3992 238.239 35.2734 237.256 35.8977C236.272 36.5221 234.931 36.8135 233.231 36.8135C231.711 36.8135 230.236 36.6054 228.894 36.1059C227.508 35.6064 226.122 34.8987 224.78 33.8997L223.081 36.3556C224.378 37.3962 225.943 38.1871 227.776 38.7282C229.565 39.2694 231.443 39.5191 233.321 39.5191Z"/></svg>