<svg width="382" height="286" viewBox="0 0 382 286" fill="none" xmlns="http://www.w3.org/2000/svg">
<path d="M202.832 208.052H166.088L84.1641 167.394H120.87L202.832 208.052Z" fill="url(#paint0_linear_136_15910)"/>
<path d="M270.392 208.052H233.686L151.724 167.394H188.468L270.392 208.052Z" fill="url(#paint1_linear_136_15910)"/>
<path d="M337.992 208.052H301.286L219.324 167.394H256.068L337.992 208.052Z" fill="url(#paint2_linear_136_15910)"/>
<path d="M354.218 182.556V200.794L286.922 167.394H323.666L354.218 182.556Z" fill="url(#paint3_linear_136_15910)"/>
<path d="M292.774 113.664L289.824 118.718L283.426 107.622L271.418 128.446H301.286L292.774 113.664Z" fill="url(#paint4_linear_136_15910)"/>
<path d="M135.234 208.052H98.4879L66.1899 192.016V173.816L135.234 208.052Z" fill="url(#paint5_linear_136_15910)"/>
<path d="M301.514 284.618H271.456V277.816H301.514V284.618Z" fill="#8646F4"/>
<path d="M297.334 275.614L277.65 265.886L279.816 256.006L294.028 263.074L297.334 275.614Z" fill="#8646F4"/>
<path d="M290.798 250.61L281.944 246.202L283.426 239.286H287.834L290.798 250.61Z" fill="#8646F4"/>
<path d="M299.006 112.714C300.412 112.714 301.552 111.574 301.552 110.168C301.552 108.762 300.412 107.622 299.006 107.622C297.6 107.622 296.46 108.762 296.46 110.168C296.46 111.574 297.6 112.714 299.006 112.714Z" fill="#8646F4"/>
<path d="M120.072 81.5942L122.58 85.9262C122.808 84.7482 123.074 83.6462 123.18 83.3042C122.108 82.8026 121.07 82.2314 120.072 81.5942Z" fill="#8646F4"/>
<path d="M131.852 60.544L127.976 61.986C127.469 60.7208 126.677 59.5894 125.661 58.68C124.645 57.7704 123.434 57.1074 122.12 56.742C122.367 56.5858 122.563 56.3602 122.682 56.0934C122.801 55.8266 122.838 55.5304 122.79 55.2422C122.741 54.9542 122.608 54.687 122.408 54.474C122.208 54.2612 121.949 54.1124 121.664 54.046C119.542 53.6176 117.344 53.7536 115.29 54.4404C113.236 55.1272 111.398 56.3408 109.96 57.96C109.773 58.171 109.65 58.431 109.605 58.7094C109.561 58.9878 109.596 59.2732 109.708 59.5322C109.819 59.7912 110.003 60.013 110.236 60.1718C110.469 60.3304 110.742 60.4192 111.024 60.428C109.867 61.8524 109.135 63.5746 108.913 65.3964C108.691 67.2182 108.989 69.0656 109.77 70.726L111.982 69.884C112.868 73.182 115.134 77.51 116.268 80.72C116.53 78.0508 116.285 75.3562 115.546 72.778C115.162 72.7346 114.789 72.6144 114.452 72.4246C114.115 72.2348 113.819 71.9792 113.582 71.673C113.345 71.3668 113.171 71.0162 113.072 70.642C112.973 70.2678 112.95 69.8774 113.004 69.494L115.658 68.494C116.086 68.7394 116.547 68.9188 117.028 69.026C117.628 69.168 117.708 68.17 117.746 67.698L132.418 62.11C133.706 61.458 132.494 60.092 131.852 60.544Z" fill="#8646F4"/>
<path d="M128.28 167.394H131.358L133.144 155.272L128.28 167.394Z" fill="#8646F4"/>
<path d="M175.93 282.148C170.554 277.402 162.33 271.748 155.03 269.61C148.513 271.49 141.599 271.49 135.082 269.61C133.719 273.456 132.888 277.47 132.612 281.54C132.587 281.91 132.639 282.282 132.763 282.632C132.888 282.982 133.084 283.302 133.338 283.574C133.592 283.844 133.899 284.06 134.24 284.206C134.581 284.354 134.949 284.43 135.32 284.428C148.12 284.466 159.144 284.58 175.028 284.618C175.315 284.618 175.595 284.53 175.83 284.366C176.065 284.2 176.244 283.968 176.342 283.698C176.441 283.428 176.454 283.136 176.38 282.858C176.306 282.582 176.149 282.334 175.93 282.148Z" fill="#8646F4"/>
<path d="M41.3019 158.464C40.8659 158.284 40.3793 158.272 39.9339 158.426C30.5499 161.742 17.2319 164.49 2.134 172.41C1.79994 172.588 1.52682 172.862 1.34982 173.196C1.17282 173.53 1.10008 173.91 1.14098 174.286C1.18186 174.662 1.33452 175.018 1.57924 175.306C1.82396 175.596 2.14954 175.804 2.514 175.906C13.7217 178.838 25.2423 180.408 36.8259 180.58C40.7779 171.232 43.6639 166.824 48.4539 163.98C46.5531 161.588 44.0985 159.694 41.3019 158.464Z" fill="#8646F4"/>
<path d="M356.08 152.84C356.08 153.344 355.88 153.828 355.524 154.184C355.168 154.54 354.684 154.74 354.18 154.74C353.676 154.74 353.192 154.54 352.836 154.184C352.48 153.828 352.28 153.344 352.28 152.84C352.28 152.336 352.48 151.852 352.836 151.496C353.192 151.14 353.676 150.94 354.18 150.94C354.684 150.94 355.168 151.14 355.524 151.496C355.88 151.852 356.08 152.336 356.08 152.84Z" fill="#8646F4"/>
<path d="M68.0144 152.84C68.0144 153.344 67.8142 153.828 67.4578 154.184C67.1016 154.54 66.6184 154.74 66.1144 154.74C65.6104 154.74 65.1272 154.54 64.7708 154.184C64.4146 153.828 64.2144 153.344 64.2144 152.84C64.2144 152.336 64.4146 151.852 64.7708 151.496C65.1272 151.14 65.6104 150.94 66.1144 150.94C66.6184 150.94 67.1016 151.14 67.4578 151.496C67.8142 151.852 68.0144 152.336 68.0144 152.84Z" fill="#8646F4"/>
<path d="M66.1902 170.51V201.554L47.7202 191.486C48.9452 182.206 53.579 173.712 60.7202 167.66L66.1902 170.51Z" fill="#8646F4"/>
<path d="M139.603 208.028L134.665 253.19C142.709 257.99 151.511 258.564 160.503 256.534L168.597 208.028H139.603Z" fill="#8646F4"/>
<path d="M77.856 208.052L86.672 212.992C89.7894 214.746 93.3364 215.59 96.9096 215.43C100.483 215.268 103.939 214.108 106.886 212.08C108.529 210.982 109.98 209.622 111.18 208.052H77.856Z" fill="#8646F4"/>
<path d="M129.12 138.174L126.422 130.042H111.294C107.988 134.042 100.236 144.642 98.8302 155.5C98.3742 158.92 97.3102 163.784 96.5122 167.394H152.674L141.426 146.534C138.74 146.692 136.077 145.958 133.852 144.446C131.626 142.934 129.963 140.729 129.12 138.174Z" fill="#8646F4"/>
<path fill-rule="evenodd" clip-rule="evenodd" d="M177.64 119.936C180.958 118.971 184.044 117.304 186.682 115.032C193.396 109.164 194.732 110.881 187.932 119.481C192.534 118.744 196.872 117.418 201.12 115.488C204.014 114.288 204.882 115.906 201.956 117.958C200.088 119.216 197.978 120.435 195.954 121.416C198.966 120.803 201.936 120.002 204.846 119.016C207.778 117.89 208.374 119.844 205.34 121.676C203.034 122.894 200.562 124.099 198.158 125.102C200.328 124.846 202.484 124.478 204.618 124C207.65 123.246 208.034 125.322 204.808 126.698C202.512 127.585 199.928 128.43 197.55 129.054C199.046 129.068 200.544 129.004 202.034 128.864C205.072 128.464 205.072 130.036 201.844 131.22C199.06 132.239 196.146 133.01 193.284 133.768C192.856 133.881 192.428 133.994 192.002 134.108C187.925 135.195 182.168 136.357 177.64 137.156V138.554H242.806V97.44H177.64V119.936Z" fill="#8646F4"/>
<path fill-rule="evenodd" clip-rule="evenodd" d="M270.706 277.816C270.706 277.402 271.042 277.066 271.456 277.066H301.514C301.928 277.066 302.264 277.402 302.264 277.816V284.618C302.264 285.032 301.928 285.368 301.514 285.368H271.456C271.042 285.368 270.706 285.032 270.706 284.618V277.816ZM272.206 278.566V283.868H300.764V278.566H272.206Z" fill="#9186CD"/>
<path fill-rule="evenodd" clip-rule="evenodd" d="M279.492 255.33C279.7 255.23 279.943 255.232 280.15 255.334L294.362 262.402C294.555 262.499 294.698 262.674 294.753 262.883L298.059 275.423C298.134 275.707 298.036 276.009 297.808 276.195C297.581 276.381 297.265 276.417 297.002 276.286L277.318 266.558C277.009 266.406 276.844 266.062 276.917 265.725L279.083 255.845C279.133 255.62 279.284 255.429 279.492 255.33ZM280.343 257.106L278.508 265.474L296.189 274.211L293.389 263.594L280.343 257.106Z" fill="#9186CD"/>
<path fill-rule="evenodd" clip-rule="evenodd" d="M282.693 239.129C282.767 238.783 283.072 238.536 283.426 238.536H287.834C288.175 238.536 288.473 238.766 288.559 239.096L291.523 250.42C291.598 250.705 291.499 251.007 291.271 251.192C291.043 251.378 290.727 251.413 290.464 251.281L281.61 246.873C281.303 246.721 281.139 246.38 281.211 246.045L282.693 239.129ZM284.032 240.036L282.799 245.79L289.654 249.203L287.255 240.036H284.032Z" fill="#9186CD"/>
<path fill-rule="evenodd" clip-rule="evenodd" d="M281.619 245.526C281.828 245.426 282.071 245.427 282.278 245.531L291.132 249.939C291.327 250.035 291.47 250.212 291.524 250.422L294.754 262.886C294.828 263.17 294.729 263.471 294.5 263.657C294.272 263.842 293.957 263.876 293.694 263.746L279.482 256.678C279.175 256.525 279.01 256.182 279.083 255.847L281.211 246.043C281.26 245.817 281.411 245.626 281.619 245.526ZM282.472 247.303L280.673 255.594L292.889 261.67L290.158 251.129L282.472 247.303Z" fill="#9186CD"/>
<path fill-rule="evenodd" clip-rule="evenodd" d="M277.325 265.21C277.533 265.11 277.775 265.111 277.982 265.214L297.666 274.942C297.86 275.037 298.002 275.211 298.058 275.42L298.628 277.546C298.689 277.771 298.641 278.012 298.499 278.197C298.357 278.382 298.137 278.49 297.904 278.49H275.066C274.839 278.49 274.624 278.387 274.482 278.21C274.339 278.034 274.285 277.802 274.333 277.58L276.917 265.726C276.966 265.501 277.117 265.31 277.325 265.21ZM278.178 266.984L275.997 276.99H296.926L296.697 276.136L278.178 266.984Z" fill="#9186CD"/>
<path d="M130.066 62.998C130.929 63.329 131.671 63.9148 132.194 64.6774C132.717 65.44 132.995 66.3436 132.992 67.268C132.989 68.2296 132.688 69.1664 132.13 69.9492C131.572 70.7322 130.784 71.3222 129.876 71.638" stroke="#9186CD" stroke-width="1.5" stroke-linecap="round" stroke-linejoin="round"/>
<path d="M116.272 80.72C115.13 77.484 112.872 73.182 112.012 69.874" stroke="#9186CD" stroke-width="1.5" stroke-linecap="round" stroke-linejoin="round"/>
<path d="M115.74 68.484C116.094 68.7012 116.477 68.8668 116.878 68.976C117.678 69.176 117.606 68.552 117.678 67.762" stroke="#9186CD" stroke-width="1.5" stroke-linecap="round" stroke-linejoin="round"/>
<path d="M138.12 97.44H163.77V112.714" stroke="#9186CD" stroke-width="1.5" stroke-linecap="round" stroke-linejoin="round"/>
<path d="M136.79 95.426L150.166 115.07L177.64 110.32" stroke="#9186CD" stroke-width="1.5" stroke-linecap="round" stroke-linejoin="round"/>
<path d="M330.374 167.394V76.92C330.378 69.0108 327.242 61.4238 321.654 55.8266C316.066 50.2294 308.484 47.0806 300.574 47.072H119.882C115.966 47.0702 112.088 47.8398 108.469 49.337C104.851 50.8342 101.562 53.0298 98.7925 55.798C96.0225 58.5662 93.8251 61.853 92.3257 65.4706C90.8263 69.0884 90.0543 72.966 90.0537 76.882V167.394" stroke="#9186CD" stroke-width="1.5" stroke-linecap="round" stroke-linejoin="round"/>
<path d="M100.008 215.044C105.474 219.928 112.552 222.622 119.882 222.606H137.816" stroke="#9186CD" stroke-width="1.5" stroke-linecap="round" stroke-linejoin="round"/>
<path d="M326.174 208.052C323.53 212.484 319.78 216.156 315.294 218.706C310.806 221.256 305.736 222.6 300.574 222.606H166.278" stroke="#9186CD" stroke-width="1.5" stroke-linecap="round" stroke-linejoin="round"/>
<path d="M127.596 83.304H330.354" stroke="#9186CD" stroke-width="1.5" stroke-linecap="round" stroke-linejoin="round"/>
<path d="M90.0537 83.304H115.664" stroke="#9186CD" stroke-width="1.5" stroke-linecap="round" stroke-linejoin="round"/>
<path d="M147.354 67.268C147.353 68.1848 147.081 69.0808 146.571 69.8428C146.061 70.6046 145.336 71.1982 144.489 71.5484C143.642 71.8988 142.71 71.9898 141.81 71.8104C140.911 71.6308 140.086 71.1888 139.438 70.54C138.79 69.8914 138.349 69.0652 138.171 68.1658C137.992 67.2664 138.085 66.3344 138.436 65.4876C138.787 64.6408 139.382 63.917 140.144 63.4082C140.907 62.8992 141.803 62.6276 142.72 62.628C143.329 62.6276 143.933 62.7472 144.495 62.9802C145.058 63.2134 145.57 63.5552 146 63.9862C146.431 64.4174 146.772 64.929 147.004 65.4922C147.236 66.0554 147.355 66.6588 147.354 67.268Z" stroke="#9186CD" stroke-width="1.5" stroke-linecap="round" stroke-linejoin="round"/>
<path d="M177.64 119.972V97.44H242.806V138.554H177.64V137.072" stroke="#9186CD" stroke-width="1.5" stroke-linecap="round" stroke-linejoin="round"/>
<path d="M316.294 138.554H256.676V97.44H316.294V138.554Z" stroke="#9186CD" stroke-width="1.5" stroke-linecap="round" stroke-linejoin="round"/>
<path d="M105.138 138.554H104.112V97.44H111.636" stroke="#9186CD" stroke-width="1.5" stroke-linecap="round" stroke-linejoin="round"/>
<path d="M177.64 167.394V152.726H242.806V167.394" stroke="#9186CD" stroke-width="1.5" stroke-linecap="round" stroke-linejoin="round"/>
<path d="M256.676 167.394V152.726H316.294V167.394" stroke="#9186CD" stroke-width="1.5" stroke-linecap="round" stroke-linejoin="round"/>
<path d="M144.77 152.726H163.77V167.394" stroke="#9186CD" stroke-width="1.5" stroke-linecap="round" stroke-linejoin="round"/>
<path d="M242.806 97.44L207.202 119.896" stroke="#9186CD" stroke-width="1.5" stroke-linecap="round" stroke-linejoin="round"/>
<path d="M177.64 97.44L242.806 138.554" stroke="#9186CD" stroke-width="1.5" stroke-linecap="round" stroke-linejoin="round"/>
<path d="M283.426 107.622L271.418 128.446H295.434L283.426 107.622Z" stroke="#9186CD" stroke-width="1.5" stroke-linecap="round" stroke-linejoin="round"/>
<path d="M292.774 113.664L289.848 118.718L295.434 128.446H301.286L292.774 113.664Z" stroke="#9186CD" stroke-width="1.5" stroke-linecap="round" stroke-linejoin="round"/>
<path d="M299.006 112.714C300.412 112.714 301.552 111.574 301.552 110.168C301.552 108.762 300.412 107.622 299.006 107.622C297.6 107.622 296.46 108.762 296.46 110.168C296.46 111.574 297.6 112.714 299.006 112.714Z" stroke="#9186CD" stroke-width="1.5" stroke-linecap="round" stroke-linejoin="round"/>
<path d="M185.808 119.782C191.102 119.141 196.266 117.693 201.12 115.488C204.014 114.288 204.882 115.906 201.956 117.958C199.246 119.782 196.356 121.324 193.33 122.558" stroke="#9186CD" stroke-width="1.5" stroke-linecap="round" stroke-linejoin="round"/>
<path d="M195.954 121.416C198.966 120.803 201.936 120.002 204.846 119.016C207.778 117.89 208.374 119.844 205.34 121.676C201.654 123.624 197.832 125.3 193.902 126.692" stroke="#9186CD" stroke-width="1.5" stroke-linecap="round" stroke-linejoin="round"/>
<path d="M198.158 125.102C200.328 124.846 202.484 124.478 204.618 124C207.65 123.246 208.034 125.322 204.808 126.698C201.404 128.014 197.896 129.044 194.32 129.776" stroke="#9186CD" stroke-width="1.5" stroke-linecap="round" stroke-linejoin="round"/>
<path d="M197.55 129.054C199.046 129.068 200.544 129.004 202.034 128.864C205.072 128.464 205.072 130.036 201.844 131.22C198.644 132.392 195.27 133.236 192.002 134.108C187.862 135.212 182.274 136.308 177.716 137.108" stroke="#9186CD" stroke-width="1.5" stroke-linecap="round" stroke-linejoin="round"/>
<path d="M188.24 119.454C195.04 110.854 193.396 109.164 186.682 115.032C183.175 118.052 178.877 120.004 174.296 120.656" stroke="#9186CD" stroke-width="1.5" stroke-linecap="round" stroke-linejoin="round"/>
<path d="M122.56 85.854L120.072 81.594C121.089 82.214 122.142 82.7724 123.226 83.266" stroke="#9186CD" stroke-width="1.5" stroke-linecap="round" stroke-linejoin="round"/>
<path d="M127.294 64.054C131.548 71.296 131.528 85.054 124.974 83.76L123.226 83.266L122.542 85.926C122.253 87.0942 122.305 88.321 122.694 89.46L114.334 88.016C115.143 85.6302 115.79 83.1926 116.272 80.72C116.547 78.0532 116.315 75.3584 115.588 72.778C113.402 72.242 112.764 70.66 113.05 69.48" stroke="#9186CD" stroke-width="1.5" stroke-linecap="round" stroke-linejoin="round"/>
<path d="M131.852 60.544C131.64 60.618 127.976 61.986 127.976 61.986C127.469 60.7208 126.677 59.5894 125.661 58.68C124.645 57.7704 123.434 57.1074 122.12 56.742C122.367 56.5858 122.563 56.3602 122.682 56.0934C122.801 55.8264 122.838 55.5304 122.79 55.2422C122.741 54.9542 122.608 54.6868 122.408 54.474C122.208 54.2612 121.949 54.1124 121.664 54.046C119.542 53.6106 117.342 53.7432 115.286 54.4304C113.231 55.1176 111.394 56.3352 109.96 57.96C109.773 58.171 109.65 58.431 109.605 58.7094C109.561 58.9878 109.596 59.2732 109.708 59.5322C109.819 59.7912 110.003 60.013 110.236 60.1716C110.469 60.3304 110.742 60.4192 111.024 60.428C109.867 61.8524 109.135 63.5746 108.913 65.3964C108.691 67.2182 108.989 69.0656 109.77 70.726L132.418 62.1C132.522 62.0642 132.618 62.0082 132.7 61.935C132.782 61.8618 132.849 61.773 132.896 61.6738C132.944 61.5744 132.971 61.4668 132.976 61.357C132.981 61.2472 132.965 61.1374 132.927 61.034C132.89 60.9308 132.832 60.8358 132.757 60.7552C132.682 60.6744 132.593 60.6092 132.492 60.5636C132.392 60.518 132.284 60.4928 132.174 60.4894C132.064 60.486 131.955 60.5046 131.852 60.544Z" stroke="#9186CD" stroke-width="1.5" stroke-linecap="round" stroke-linejoin="round"/>
<path d="M133.144 155.272L131.358 167.394H128.28L133.144 155.272Z" stroke="#9186CD" stroke-width="1.5" stroke-linecap="round" stroke-linejoin="round"/>
<path d="M111.142 208.052C108.325 211.674 104.302 214.164 99.8045 215.07C95.3071 215.976 90.6337 215.24 86.6339 212.992L77.8179 208.052" stroke="#9186CD" stroke-width="1.5" stroke-linecap="round" stroke-linejoin="round"/>
<path d="M66.1897 170.51L60.7197 167.66C53.6977 173.164 49.6317 181.318 47.7197 191.486L66.1837 201.516" stroke="#9186CD" stroke-width="1.5" stroke-linecap="round" stroke-linejoin="round"/>
<path d="M96.7397 167.394C97.5757 163.518 98.3058 159.414 98.8298 155.5C100.678 141.748 111.256 130.042 111.256 130.042H126.418" stroke="#9186CD" stroke-width="1.5" stroke-linecap="round" stroke-linejoin="round"/>
<path d="M139.564 208.09L134.664 253.194C141.958 257.754 150.664 258.628 160.502 256.538L168.14 211.586C168.33 210.408 168.482 209.23 168.558 208.052" stroke="#9186CD" stroke-width="1.5" stroke-linecap="round" stroke-linejoin="round"/>
<path d="M141.464 146.608L152.674 167.356" stroke="#9186CD" stroke-width="1.5" stroke-linecap="round" stroke-linejoin="round"/>
<path d="M175.018 284.628C159.136 284.376 148.114 284.458 135.31 284.438C134.94 284.436 134.574 284.36 134.234 284.212C133.895 284.064 133.589 283.848 133.337 283.578C133.084 283.306 132.889 282.988 132.765 282.638C132.64 282.29 132.588 281.92 132.612 281.55C132.897 277.48 133.727 273.468 135.082 269.62C141.598 271.502 148.514 271.502 155.03 269.62C162.326 271.748 170.554 277.42 175.93 282.158C176.15 282.344 176.308 282.592 176.381 282.87C176.454 283.148 176.44 283.442 176.341 283.712C176.241 283.982 176.061 284.216 175.824 284.38C175.587 284.544 175.306 284.63 175.018 284.628Z" stroke="#9186CD" stroke-width="1.5" stroke-linecap="round" stroke-linejoin="round"/>
<path d="M135.044 269.648L137.436 254.714" stroke="#9186CD" stroke-width="1.5" stroke-linecap="round" stroke-linejoin="round"/>
<path d="M156.664 257.222L154.878 269.648" stroke="#9186CD" stroke-width="1.5" stroke-linecap="round" stroke-linejoin="round"/>
<path d="M41.3019 158.464C40.8659 158.284 40.3793 158.272 39.9339 158.426C30.5499 161.742 17.2319 164.49 2.134 172.41C1.79994 172.588 1.52682 172.862 1.34982 173.196C1.17282 173.53 1.10008 173.91 1.14098 174.286C1.18186 174.662 1.33452 175.018 1.57924 175.306C1.82396 175.596 2.14954 175.804 2.514 175.906C13.7217 178.838 25.2423 180.408 36.8259 180.58C40.7779 171.232 43.6639 166.824 48.4539 163.98C46.5531 161.588 44.0985 159.694 41.3019 158.464Z" stroke="#9186CD" stroke-width="1.5" stroke-linecap="round" stroke-linejoin="round"/>
<path d="M48.4443 163.822L58.5143 169.446" stroke="#9186CD" stroke-width="1.5" stroke-linecap="round" stroke-linejoin="round"/>
<path d="M36.8184 180.58L48.7104 187.078" stroke="#9186CD" stroke-width="1.5" stroke-linecap="round" stroke-linejoin="round"/>
<path fill-rule="evenodd" clip-rule="evenodd" d="M66.1899 152.508C66.6042 152.508 66.9399 152.844 66.9399 153.258V284.656C66.9399 285.07 66.6042 285.406 66.1899 285.406C65.7757 285.406 65.4399 285.07 65.4399 284.656V153.258C65.4399 152.844 65.7757 152.508 66.1899 152.508Z" fill="#9186CD"/>
<path fill-rule="evenodd" clip-rule="evenodd" d="M354.218 152.506C354.632 152.506 354.968 152.842 354.968 153.256V284.656C354.968 285.07 354.632 285.406 354.218 285.406C353.804 285.406 353.468 285.07 353.468 284.656V153.256C353.468 152.842 353.804 152.506 354.218 152.506Z" fill="#9186CD"/>
<path fill-rule="evenodd" clip-rule="evenodd" d="M35.688 284.618C35.688 284.204 36.0238 283.868 36.438 283.868H381.12C381.534 283.868 381.87 284.204 381.87 284.618C381.87 285.032 381.534 285.368 381.12 285.368H36.438C36.0238 285.368 35.688 285.032 35.688 284.618Z" fill="#9186CD"/>
<path d="M354.218 167.394H66.1899" stroke="#9186CD" stroke-width="1.5" stroke-linecap="round" stroke-linejoin="round"/>
<path fill-rule="evenodd" clip-rule="evenodd" d="M65.4399 208.052C65.4399 207.638 65.7757 207.302 66.1899 207.302H354.218C354.632 207.302 354.968 207.638 354.968 208.052C354.968 208.466 354.632 208.802 354.218 208.802H66.1899C65.7757 208.802 65.4399 208.466 65.4399 208.052Z" fill="#9186CD"/>
<path d="M62.2003 122.688H44.9883" stroke="url(#paint6_linear_136_15910)" stroke-width="1.5" stroke-linecap="round" stroke-linejoin="round"/>
<path d="M53.5938 131.296V114.044" stroke="url(#paint7_linear_136_15910)" stroke-width="1.5" stroke-linecap="round" stroke-linejoin="round"/>
<path d="M368.466 87.56C368.552 88.5484 368.344 89.54 367.866 90.4098C367.39 91.2796 366.664 91.9882 365.784 92.4464C364.904 92.9044 363.908 93.0912 362.922 92.9832C361.936 92.8752 361.004 92.477 360.244 91.8394C359.484 91.2016 358.93 90.3528 358.654 89.4004C358.376 88.448 358.386 87.4346 358.686 86.4884C358.984 85.5424 359.556 84.706 360.33 84.085C361.104 83.464 362.044 83.0864 363.032 83C363.688 82.9404 364.35 83.0114 364.98 83.2086C365.608 83.406 366.192 83.7256 366.698 84.1496C367.202 84.5734 367.618 85.0928 367.922 85.6782C368.226 86.2634 368.41 86.903 368.466 87.56Z" stroke="url(#paint8_linear_136_15910)" stroke-width="1.5" stroke-linecap="round" stroke-linejoin="round"/>
<path d="M241.818 1L237.562 10.518H245.314L241.058 19.998" stroke="url(#paint9_linear_136_15910)" stroke-width="1.5" stroke-linecap="round" stroke-linejoin="round"/>
<path d="M109.698 150.94C115.739 149.366 121.021 145.688 124.594 140.568" stroke="#9186CD" stroke-width="1.5" stroke-linecap="round" stroke-linejoin="round"/>
<path d="M136.146 241.148C144.599 244.23 153.654 245.298 162.592 244.264" stroke="#9186CD" stroke-width="1.5" stroke-linecap="round" stroke-linejoin="round"/>
<path fill-rule="evenodd" clip-rule="evenodd" d="M113.624 87.7958C113.739 87.4403 114.098 87.2234 114.466 87.287L122.816 88.7292C128.06 89.488 131.695 90.5181 134.356 92.2237C137.051 93.952 138.671 96.3245 139.993 99.5883M114.853 88.8761L122.57 90.2091L122.591 90.2123C127.786 90.9634 131.162 91.958 133.546 93.4864C135.896 94.993 137.353 97.0655 138.603 100.152C139.613 102.644 140.456 105.749 141.523 109.702L141.56 109.841C142.616 113.752 143.882 118.447 145.729 124.082C145.845 124.435 146.203 124.65 146.57 124.587L173.114 120.002C174.373 122.254 175.537 125.398 176.246 128.766C176.965 132.185 177.2 135.77 176.626 138.836L142.954 145.569C140.212 146.123 137.362 145.651 134.944 144.246C132.526 142.84 130.707 140.596 129.832 137.939L121.696 113.428C121.565 113.035 121.141 112.822 120.748 112.952C120.355 113.083 120.142 113.507 120.272 113.9L128.408 138.409C128.408 138.409 128.408 138.409 128.408 138.409C129.397 141.414 131.455 143.952 134.19 145.542C136.925 147.133 140.149 147.666 143.25 147.039L177.409 140.209C177.701 140.151 177.931 139.925 177.995 139.634C178.749 136.188 178.496 132.177 177.713 128.457C176.931 124.735 175.603 121.232 174.146 118.79C173.987 118.523 173.68 118.382 173.374 118.435L146.954 122.999C145.228 117.675 144.023 113.21 143.007 109.444L142.971 109.311C141.912 105.387 141.045 102.184 139.993 99.5883M114.853 88.8761C114.565 89.7828 114.271 90.7332 113.962 91.7327C113.934 91.8246 113.905 91.9169 113.876 92.0096C110.094 104.286 109.447 117.313 111.995 129.903C112.077 130.309 111.815 130.705 111.409 130.787C111.003 130.869 110.607 130.607 110.525 130.201C107.927 117.365 108.587 104.083 112.443 91.5672C112.472 91.4738 112.501 91.3799 112.53 91.2872C112.909 90.0599 113.269 88.896 113.624 87.7958" fill="#9186CD"/>
<path d="M202.832 208.052H166.088L84.1641 167.394H120.87L202.832 208.052Z" stroke="#9186CD" stroke-width="1.5" stroke-linecap="round" stroke-linejoin="round"/>
<path d="M270.392 208.052H233.686L151.724 167.394H188.468L270.392 208.052Z" stroke="#9186CD" stroke-width="1.5" stroke-linecap="round" stroke-linejoin="round"/>
<path d="M337.992 208.052H301.286L219.324 167.394H256.068L337.992 208.052Z" fill="url(#paint10_linear_136_15910)" stroke="#9186CD" stroke-width="1.5" stroke-linecap="round" stroke-linejoin="round"/>
<path d="M354.218 182.556V200.794L286.922 167.394H323.666L354.218 182.556Z" stroke="#9186CD" stroke-width="1.5" stroke-linecap="round" stroke-linejoin="round"/>
<path d="M135.234 208.052H98.4879L66.1899 192.016V173.816L135.234 208.052Z" stroke="#9186CD" stroke-width="1.5" stroke-linecap="round" stroke-linejoin="round"/>
<defs>
<linearGradient id="paint0_linear_136_15910" x1="84.1641" y1="167.394" x2="202.834" y2="167.398" gradientUnits="userSpaceOnUse">
<stop offset="0.0001" stop-color="#E59CFF"/>
<stop offset="0.5001" stop-color="#BA9CFF"/>
<stop offset="1" stop-color="#9CB2FF"/>
</linearGradient>
<linearGradient id="paint1_linear_136_15910" x1="151.724" y1="167.394" x2="270.394" y2="167.398" gradientUnits="userSpaceOnUse">
<stop offset="0.0001" stop-color="#E59CFF"/>
<stop offset="0.5001" stop-color="#BA9CFF"/>
<stop offset="1" stop-color="#9CB2FF"/>
</linearGradient>
<linearGradient id="paint2_linear_136_15910" x1="219.324" y1="187.723" x2="337.992" y2="187.723" gradientUnits="userSpaceOnUse">
<stop stop-color="#FC72FF"/>
<stop offset="0.25" stop-color="#8F68FF"/>
<stop offset="0.5" stop-color="#487BFF"/>
<stop offset="0.75" stop-color="#2CD9FF"/>
<stop offset="1" stop-color="#2CFFCC"/>
</linearGradient>
<linearGradient id="paint3_linear_136_15910" x1="286.922" y1="167.394" x2="354.219" y2="167.396" gradientUnits="userSpaceOnUse">
<stop offset="0.0001" stop-color="#E59CFF"/>
<stop offset="0.5001" stop-color="#BA9CFF"/>
<stop offset="1" stop-color="#9CB2FF"/>
</linearGradient>
<linearGradient id="paint4_linear_136_15910" x1="271.418" y1="118.034" x2="301.286" y2="118.034" gradientUnits="userSpaceOnUse">
<stop stop-color="#FC72FF"/>
<stop offset="0.25" stop-color="#8F68FF"/>
<stop offset="0.5" stop-color="#487BFF"/>
<stop offset="0.75" stop-color="#2CD9FF"/>
<stop offset="1" stop-color="#2CFFCC"/>
</linearGradient>
<linearGradient id="paint5_linear_136_15910" x1="66.1899" y1="173.816" x2="135.235" y2="173.818" gradientUnits="userSpaceOnUse">
<stop offset="0.0001" stop-color="#E59CFF"/>
<stop offset="0.5001" stop-color="#BA9CFF"/>
<stop offset="1" stop-color="#9CB2FF"/>
</linearGradient>
<linearGradient id="paint6_linear_136_15910" x1="44.9883" y1="122.688" x2="62.2005" y2="122.692" gradientUnits="userSpaceOnUse">
<stop offset="0.0001" stop-color="#E59CFF"/>
<stop offset="0.5001" stop-color="#BA9CFF"/>
<stop offset="1" stop-color="#9CB2FF"/>
</linearGradient>
<linearGradient id="paint7_linear_136_15910" x1="53.5938" y1="114.044" x2="54.5938" y2="114.044" gradientUnits="userSpaceOnUse">
<stop offset="0.0001" stop-color="#E59CFF"/>
<stop offset="0.5001" stop-color="#BA9CFF"/>
<stop offset="1" stop-color="#9CB2FF"/>
</linearGradient>
<linearGradient id="paint8_linear_136_15910" x1="358.453" y1="82.9796" x2="368.485" y2="82.9797" gradientUnits="userSpaceOnUse">
<stop offset="0.0001" stop-color="#E59CFF"/>
<stop offset="0.5001" stop-color="#BA9CFF"/>
<stop offset="1" stop-color="#9CB2FF"/>
</linearGradient>
<linearGradient id="paint9_linear_136_15910" x1="237.562" y1="1" x2="245.314" y2="1.00004" gradientUnits="userSpaceOnUse">
<stop offset="0.0001" stop-color="#E59CFF"/>
<stop offset="0.5001" stop-color="#BA9CFF"/>
<stop offset="1" stop-color="#9CB2FF"/>
</linearGradient>
<linearGradient id="paint10_linear_136_15910" x1="219.324" y1="167.394" x2="337.994" y2="167.398" gradientUnits="userSpaceOnUse">
<stop offset="0.0001" stop-color="#E59CFF"/>
<stop offset="0.5001" stop-color="#BA9CFF"/>
<stop offset="1" stop-color="#9CB2FF"/>
</linearGradient>
</defs>
</svg>
