<svg xmlns="http://www.w3.org/2000/svg" width="48" height="48" fill="none" viewBox="0 0 48 48" id="gumroad"><path fill="#FF90E8" d="M24 48C37.2548 48 48 37.2548 48 24C48 10.7452 37.2548 0 24 0C10.7452 0 0 10.7452 0 24C0 37.2548 10.7452 48 24 48Z"></path><path fill="#000" d="M21.9162 36.0953C14.8859 36.0953 10.7505 30.4565 10.7505 23.4423C10.7505 16.1532 15.2996 10.2393 23.984 10.2393C32.9441 10.2393 35.9768 16.2906 36.1146 19.7289H29.6358C29.498 17.8035 27.8438 14.9153 23.8461 14.9153C19.5728 14.9153 16.8158 18.6287 16.8158 23.1672C16.8158 27.7058 19.5728 31.4192 23.8461 31.4192C27.7059 31.4192 29.3601 28.3935 30.0494 25.3677H23.8461V22.8923H36.8625V35.5452H31.152V27.5684C30.7385 30.4565 28.9466 36.0953 21.9162 36.0953Z"></path></svg>