<svg xmlns="http://www.w3.org/2000/svg" xmlns:xlink="http://www.w3.org/1999/xlink" x="0" y="0" version="1.1" viewBox="0 0 3710 3710" style="enable-background:new 0 0 3710 3710" xml:space="preserve"><g id="Background"><g><g><rect style="fill:transparent" width="3710" height="3710"/></g></g></g><g id="Illustration"><g><linearGradient id="SVGID_1_" x1="3599.525" x2="1147.842" y1="4040.092" y2="995.256" gradientUnits="userSpaceOnUse"><stop offset="0" style="stop-color:#dae3fe"/><stop offset="1" style="stop-color:#e9effd"/></linearGradient><path style="fill:url(#SVGID_1_)" d="M2925.052,2839.319c-56.314,59.285-109.598,97.517-151.697,127.724 c-494.861,355.068-1080.412,251.568-1204.859,226.292c-183.768-37.324-538.988-109.471-795.805-411.483 c-388.543-456.919-328.041-1176.782-26.661-1651.974c55.127-86.921,346.325-569.351,938.184-646.717 c358.186-46.821,775.717,47.612,1078.081,300.933C3396.983,1315.836,3351.8,2390.052,2925.052,2839.319z"/><g><g><path style="fill:#bdd0fb" d="M1229.955,2279.909c0,0,8.504-357.533-156.172-453.225 C909.107,1730.992,596,1671.166,584.264,1157.783c-6.872-300.557-14.308-431.966-19.293-489.266 c-1.944-22.352,17.918-40.393,39.966-36.241c155.962,29.381,662.614,150.313,768.838,496.126 C1499.704,1538.368,1229.955,2279.909,1229.955,2279.909z"/><path style="opacity:.5;fill:#fff" d="M725.554,775.115c171.199,152.686,369.16,422.908,474.675,693.131 c13.544,44.534,53.162,139.241,70.366,307.511c15.366,140.34,7.727,288.636-10.905,386.801 c-1.178,6.206-7.164,10.282-13.37,9.104c-10.671-2.024-9.252-13.502-9.156-13.14c21.279-167.717,12.447-376.469-36.313-564.824 c-62.294-231.278-201.235-455.51-344.945-645.691l-14.789-18.727c-111.341-142.988-134.78-144.041-124.372-154.009 C719.204,772.917,723.052,772.895,725.554,775.115z"/></g><g><path style="fill:#91b3fa" d="M1494.596,2967.314c22.28,10.925-210.925-282.332-283.977-742.914 c-34.424-217.038-34.873-488.968-158.507-593.761c-102.897-87.215-453.042-32.153-567.609-11.228 c-14.316,2.614-19.135,20.698-7.992,30.058c54.942,46.141,172.471,154.977,203.094,264.664 c40.364,144.575,177.815,236.532,300.867,261.419c123.053,24.886,191.505,49.038,251.453,245.827 C1291.872,2618.168,1431.289,2936.272,1494.596,2967.314z"/><path style="opacity:.5;fill:#fff" d="M645.634,1680.497c146.17,6.122,303.073,72.8,382.695,197.874l7.515,11.935 c17.357,27.985,115.728,226.926,170.363,391.836c0.68,2.056-0.434,4.275-2.49,4.956c-3.492,1.156-5.241-2.687-4.908-2.347 c-38.065-93.163-92.737-211.278-136.279-299.605c-46.695-96.383-79.373-161.657-185.883-224.18 c-118.549-67.334-231.805-74.266-231.465-74.196c-1.728-0.177-2.987-1.721-2.81-3.449 C642.543,1681.659,643.988,1680.432,645.634,1680.497z"/></g><g><path style="fill:#bdd0fb" d="M1394.624,3005.892c13.222,6.971-74.474-143.972-81.203-276.954 c-6.729-132.983-36.73-359.954-151.408-495.727c-114.678-135.773-240.262-148.16-398.504-24.73 c-131.868,102.857-214.124,154.766-262.364,164.416c-11.945,2.389-18.041,15.874-12.228,26.579 c30.941,56.978,118.416,187.858,265.293,178.644c187.351-11.753,414.406-133.544,483.609-31.945 c69.204,101.6,60.317,158.448,62.443,206.598C1302.388,2800.923,1307.127,2959.76,1394.624,3005.892z"/><path style="opacity:.5;fill:#fff" d="M816.67,2371.507c57.395-55.024,150.87-109.095,232.563-99.013 c106.289,17.121,177.094,88.1,215.716,193.759c15.098,44.863,21.309,68.812,30.235,123.804c0.713,4.391-5.765,5.703-6.843,1.416 c-6.495-25.83-12.929-52.876-22.553-80.849c-56.024-180.473-175.616-204.781-180.268-208.475 c-9.041,0.892-63.853-40.14-193.91,29.844c-24.286,13.219-47.927,28.309-70.122,44.953l-0.123,0.092 c-1.606,1.204-3.884,0.879-5.088-0.727C815.163,2374.823,815.36,2372.76,816.67,2371.507z"/></g></g><g><g><linearGradient id="SVGID_00000108281456781205541160000005752897383710690952_" x1="2542.812" x2="1723.825" y1="3844.371" y2="1103.915" gradientUnits="userSpaceOnUse"><stop offset="0" style="stop-color:#09005d"/><stop offset="1" style="stop-color:#1a0f91"/></linearGradient><path style="fill:url(#SVGID_00000108281456781205541160000005752897383710690952_)" d="M1285.134,670.018 c-61.964,5.389-109.472,57.284-109.649,119.482c-1.079,380.368-2.858,1692.359,21.933,2156.73 c2.626,49.196,42.959,87.843,92.222,88.374c243.657,2.623,944.53,7.443,1342.418-18.008 c82.874-5.301,147.363-73.939,147.263-156.982c-0.483-399.21-6.862-1521.925-61.547-2035.105 c-6.552-61.487-55.979-109.481-117.626-114.284C2334.403,689.519,1628.711,640.138,1285.134,670.018z"/><linearGradient id="SVGID_00000178173232607449141360000005272891802200461741_" x1="1552.325" x2="3043.293" y1="941.559" y2="4059.997" gradientUnits="userSpaceOnUse"><stop offset="0" style="stop-color:#febbba"/><stop offset="1" style="stop-color:#ff928e"/></linearGradient><path style="fill:url(#SVGID_00000178173232607449141360000005272891802200461741_)" d="M1273.292,889.183 c-4.785,325.371-18.409,1407.746,5.374,1807.231c3.476,58.39,48.832,104.489,104.837,106.441 c230.587,8.036,821.89,23.586,1158.825-13.488c60.671-6.676,107.04-59.264,108.656-122.941 c8.428-332.041,31.194-1340.147,8.079-1735.166c-3.688-63.016-51.832-113.299-112.182-117.365 c-249.671-16.823-890.797-55.621-1177.315-31.761C1315.781,786.613,1274.12,832.853,1273.292,889.183z"/><linearGradient id="SVGID_00000126295588653286961620000004587250287085109643_" x1="2033.643" x2="1974.581" y1="-179.332" y2="549.094" gradientUnits="userSpaceOnUse"><stop offset="0" style="stop-color:#09005d"/><stop offset="1" style="stop-color:#1a0f91"/></linearGradient><path style="fill:url(#SVGID_00000126295588653286961620000004587250287085109643_)" d="M1830.418,726.591 c0.197,8.989,7.366,16.249,16.353,16.522c44.369,1.348,169.357,5.174,225.223,7.187c11.015,0.397,19.432-9.682,17.108-20.456 c-0.191-0.339-1.622-14.154-15.731-15.135c-37.79-2.628-151.801-9.712-227.143-5.366 C1830.757,710.237,1829.916,727.831,1830.418,726.591z"/></g></g><g><circle style="fill:#fff" cx="1698.087" cy="1241.464" r="333.347"/><g><defs><circle id="SVGID_00000088825240282722898460000000366115568227525274_" cx="1698.087" cy="1241.464" r="296.872"/></defs><clipPath id="SVGID_00000108277814174737761990000018355398830625589387_"><use xlink:href="#SVGID_00000088825240282722898460000000366115568227525274_" style="overflow:visible"/></clipPath><linearGradient id="SVGID_00000147934990456028504590000005666629929612902022_" x1="2160.817" x2="2431.188" y1="2312.522" y2="2984.509" gradientUnits="userSpaceOnUse"><stop offset="0" style="stop-color:#ff928e"/><stop offset="1" style="stop-color:#fe7062"/></linearGradient><circle style="clip-path:url(#SVGID_00000108277814174737761990000018355398830625589387_);fill:url(#SVGID_00000147934990456028504590000005666629929612902022_)" cx="1699.376" cy="1165.639" r="130.101"/><linearGradient id="SVGID_00000092444082978333709310000002451575826209529783_" x1="1430.501" x2="2143.573" y1="1019.715" y2="2299.296" gradientUnits="userSpaceOnUse"><stop offset="0" style="stop-color:#ff928e"/><stop offset="1" style="stop-color:#fe7062"/></linearGradient><path style="clip-path:url(#SVGID_00000108277814174737761990000018355398830625589387_);fill:url(#SVGID_00000092444082978333709310000002451575826209529783_)" d="M1501.762,1556.32h414.484c25.411,0,40.637-32.838,26.953-57.895c-35.206-64.469-108.867-159.181-236.436-154.906 c-122.952,4.119-195.826,89.67-232.461,151.025C1458.749,1520.59,1474.61,1556.32,1501.762,1556.32z"/></g></g><g style="opacity:.8"><path style="fill:#fff" d="M2541.472,1131.304l-381.051-5.817c-6.582-0.1-11.885-5.568-11.785-12.15l0.874-57.218 c0.101-6.582,5.568-11.885,12.15-11.785l381.051,5.817c6.582,0.1,11.885,5.568,11.785,12.15l-0.874,57.218 C2553.522,1126.101,2548.054,1131.404,2541.472,1131.304z"/><path style="fill:#fff" d="M2539.082,1297.531l-381.051-5.817c-6.582-0.1-11.885-5.568-11.785-12.15l0.874-57.218 c0.1-6.582,5.568-11.885,12.15-11.785l381.051,5.817c6.582,0.1,11.885,5.568,11.785,12.15l-0.874,57.218 C2551.131,1292.329,2545.664,1297.632,2539.082,1297.531z"/><path style="fill:#fff" d="M2536.397,1463.759l-381.051-5.817c-6.582-0.101-11.885-5.568-11.785-12.15l0.874-57.218 c0.1-6.582,5.568-11.885,12.15-11.785l381.051,5.817c6.582,0.1,11.885,5.568,11.785,12.15l-0.874,57.218 C2548.447,1458.556,2542.979,1463.859,2536.397,1463.759z"/></g><g><g><g><path style="fill:#bdd0fb" d="M2206.659,877.44c-1.297-0.49-2.262-1.685-2.37-3.131c-0.356-4.77-0.617-9.628-0.776-14.437 c-0.065-1.976,1.51-3.604,3.519-3.638c4.87-0.109,3.552,4.75,4.516,17.659c0.148,1.972-1.358,3.665-3.363,3.779 C2207.649,877.702,2207.133,877.619,2206.659,877.44z"/><path style="fill:#bdd0fb" d="M2204.961,814.895c0.891-9.147,2.165-18.37,3.785-27.411c0.348-1.941,2.235-3.213,4.214-2.841 c5.39,1.045,1.875,4.083-0.754,31.041c-0.192,1.964-1.968,3.379-3.969,3.161 C2206.209,818.622,2204.771,816.835,2204.961,814.895z M2219.475,743.883c2.774-8.802,5.95-17.658,9.337-26.012 c1.814-4.493,8.513-1.572,6.767,2.731c-3.369,8.331-6.433,16.876-9.148,25.491c-0.592,1.88-2.63,2.907-4.55,2.297 C2219.939,747.772,2218.89,745.743,2219.475,743.883z M2248.299,677.434c4.513-7.989,9.409-15.899,14.556-23.514 c2.656-3.923,8.721,0.116,6.082,4.021c-5.042,7.46-9.841,15.212-14.261,23.037 C2252.349,685.096,2245.979,681.539,2248.299,677.434z M2290.825,623.414c-1.525-1.309-1.699-3.57-0.388-5.049 c6.099-6.888,12.561-13.624,19.206-20.021c3.417-3.287,8.547,1.862,5.134,5.149c-6.51,6.267-12.844,12.868-18.821,19.615 C2294.647,624.59,2292.346,624.726,2290.825,623.414z M2343.441,574.205c-1.226-1.584-0.929-3.825,0.665-5.007 c7.424-5.505,15.162-10.785,22.999-15.695c4.035-2.515,8.01,3.523,3.977,6.052c-7.68,4.811-15.263,9.984-22.537,15.378 C2346.955,576.114,2344.668,575.789,2343.441,574.205z M2407.285,538.503c-0.852-0.322-1.585-0.951-2.012-1.823 c-0.878-1.789-0.125-3.92,1.684-4.756c8.431-3.898,17.116-7.511,25.817-10.743c1.872-0.695,3.982,0.24,4.719,2.091 c0.734,1.85-0.186,3.912-2.057,4.607c-8.527,3.165-17.039,6.709-25.301,10.528 C2409.207,538.836,2408.182,538.841,2407.285,538.503z M2475.988,514.873c-1.089-0.411-1.966-1.322-2.272-2.513 c-0.493-1.923,0.689-3.851,2.636-4.307c9.07-2.121,18.346-3.914,27.57-5.328c1.979-0.308,3.863,1.029,4.201,2.985 c0.339,1.951-0.992,3.781-2.973,4.084c-9.037,1.387-18.125,3.144-27.012,5.222 C2477.398,515.19,2476.653,515.124,2475.988,514.873z M2545.981,502.321c-0.084-1.976,1.476-3.618,3.484-3.672 c9.341-0.246,18.826-0.128,28.192,0.349c4.824,0.259,4.531,7.388-0.268,7.145c-9.174-0.468-18.467-0.581-27.619-0.341 C2547.767,505.856,2546.065,504.3,2545.981,502.321z M2779.136,580.036c-21.798-16.647-26.7-16.377-23.709-20.89 c1.088-1.646,3.338-2.085,5.029-0.996c7.869,5.098,15.637,10.57,23.09,16.261 C2787.373,577.33,2782.975,582.961,2779.136,580.036z M2619.036,507.077c0.329-1.944,2.201-3.235,4.184-2.882 c9.223,1.639,18.512,3.654,27.608,5.993c4.675,1.204,2.927,8.121-1.741,6.92c-8.915-2.291-18.018-4.268-27.055-5.874 C2620.027,510.876,2618.711,509.001,2619.036,507.077z M2717.313,542.048c-24.67-11.925-29.472-10.699-27.486-15.749 c1.26-3.203,5.14-2.005,4.703-1.987c8.763,3.438,17.482,7.249,25.913,11.322c1.815,0.877,2.584,3.024,1.719,4.794 C2721.337,542.119,2719.244,542.951,2717.313,542.048z"/><path style="fill:#bdd0fb" d="M2823.219,619.906c-8.358-8.928-13.545-11.952-10.068-15.359 c1.41-1.383,3.715-1.373,5.146,0.047c9.015,8.884,13.537,12.427,10.066,15.561 C2827.322,621.095,2824.589,621.364,2823.219,619.906z"/></g><g><path style="fill:#bdd0fb" d="M2920.561,880.641c-1.455-0.55-2.458-1.979-2.372-3.58c0.253-4.7,0.41-9.457,0.467-14.142 c0.024-1.975,1.673-3.532,3.684-3.479c2.005,0.059,3.619,1.696,3.596,3.674c-0.059,4.781-0.22,9.635-0.478,14.432 c-0.106,1.971-1.82,3.461-3.826,3.327C2921.257,880.848,2920.896,880.768,2920.561,880.641z"/><path style="fill:#bdd0fb" d="M2429.748,1181.066c-9.363-3.831-18.675-8.094-27.677-12.675 c-1.797-0.913-2.521-3.074-1.618-4.826c2.546-4.934,4.608-0.307,32.004,10.902c1.866,0.763,2.772,2.859,2.022,4.681 C2433.172,1182.332,2429.31,1181.08,2429.748,1181.066z M2474,1192.351c1.379-5.368,4.563-1.267,33.529,3.854 c1.989,0.341,3.326,2.213,3,4.155c-0.327,1.945-2.199,3.237-4.182,2.887c-9.912-1.752-19.907-3.944-29.706-6.515 C2474.677,1196.214,2473.512,1194.248,2474,1192.351z M2359.629,1143.077c-8.293-5.741-16.454-11.902-24.252-18.314 c-1.552-1.277-1.778-3.535-0.501-5.043c3.597-4.251,4.568,0.699,28.883,17.526c1.655,1.146,2.072,3.38,0.933,4.99 C2363.55,1143.844,2361.286,1144.219,2359.629,1143.077z M2554.252,1208.331c-1.422-0.537-2.418-1.913-2.377-3.485 c0.052-1.974,1.723-3.508,3.732-3.427c9.887,0.4,19.89,0.389,29.729-0.032c2.012-0.085,3.729,1.444,3.847,3.417 c0.119,1.975-1.412,3.644-3.418,3.73c-10.045,0.43-20.255,0.441-30.347,0.032 C2555.009,1208.55,2554.615,1208.468,2554.252,1208.331z M2632.66,1202.937c-1.148-0.434-2.056-1.424-2.313-2.697 c-0.39-1.942,0.891-3.806,2.864-4.161c9.677-1.74,19.398-3.912,28.896-6.456c1.933-0.518,3.947,0.61,4.503,2.516 c0.554,1.907-0.562,3.872-2.492,4.389c-9.693,2.596-19.616,4.812-29.494,6.59 C2633.944,1203.241,2633.269,1203.167,2632.66,1202.937z M2707.714,1180.744c-0.892-0.337-1.654-1.012-2.069-1.941 c-0.812-1.819,0.021-3.919,1.859-4.69c9.031-3.787,18.007-8,26.68-12.523c1.766-0.917,3.973-0.247,4.938,1.5 c0.962,1.749,0.313,3.912-1.452,4.832c-8.85,4.615-18.009,8.913-27.226,12.779 C2709.544,1181.078,2708.569,1181.067,2707.714,1180.744z M2775.817,1142.921c-0.643-0.243-1.228-0.667-1.666-1.257 c-1.193-1.608-0.848-3.843,0.771-4.99c7.949-5.64,15.748-11.688,23.182-17.974c1.512-1.279,3.809-1.099,5.135,0.411 c1.325,1.505,1.173,3.763-0.34,5.041c-7.586,6.416-15.544,12.588-23.657,18.345 C2778.216,1143.224,2776.928,1143.34,2775.817,1142.921z M2832.561,1090.603c-4.27-3.706,0.756-4.447,18.164-27.651 c2.834-3.781,8.719,0.519,5.88,4.302c-5.939,7.917-12.302,15.679-18.911,23.066 C2836.382,1091.787,2834.087,1091.928,2832.561,1090.603z M2877.934,1027.981c-4.985-2.699-0.288-4.481,11.45-30.985 c1.904-4.297,8.597-1.383,6.681,2.937c-4.005,9.045-8.448,18.015-13.205,26.66 C2881.896,1028.346,2879.658,1028.932,2877.934,1027.981z M2907.747,956.821c-1.76-0.665-2.756-2.552-2.24-4.352 c2.673-9.353,4.971-18.894,6.825-28.357c0.38-1.934,2.287-3.176,4.262-2.775c1.979,0.414,3.266,2.296,2.888,4.231 c-1.893,9.657-4.236,19.391-6.966,28.933c-0.54,1.894-2.549,2.975-4.485,2.413 C2907.933,956.888,2907.838,956.856,2907.747,956.821z"/><path style="fill:#bdd0fb" d="M2299.354,1090.789c-8.607-9.294-12.948-13.024-9.33-15.992 c3.763-3.09,5.869,1.701,14.679,11.221c1.364,1.472,1.27,3.734-0.207,5.051 C2303.019,1092.386,2300.716,1092.26,2299.354,1090.789z"/></g><g><path style="fill:#91b3fa" d="M2339.147,1000.358l51.723-6.405c15.758,18.536,34.599,34.782,56.09,47.856 c2.018,49.874-1.375,53.514,3.955,55.291l59.609,19.859c1.742,0.579,3.65,0.015,4.75-1.406l31.393-40.526 c25.019,2.418,49.804,0.708,73.486-4.69l37.628,36.171c1.319,1.267,3.299,1.585,4.928,0.791l55.8-27.184 c1.631-0.794,2.553-2.526,2.297-4.311l-7.298-50.946c18.621-15.211,34.864-33.489,47.842-54.417l52.193-0.194 c1.831-0.006,3.438-1.154,4.002-2.858l19.302-58.302c0.564-1.704-0.039-3.589-1.502-4.692l-41.708-31.475 c2.083-24.559-0.032-48.95-5.883-72.314c34.627-36.338,39.495-36.37,36.963-41.278c-28.906-53.718-27.259-58.29-32.923-57.591 l-51.723,6.405c-15.758-18.537-34.6-34.782-56.09-47.856c-2.016-49.844,1.378-53.513-3.954-55.292 c-59.564-18.712-60.987-22.81-64.361-18.452l-31.393,40.527c-25.018-2.42-49.804-0.71-73.487,4.689 c-37.039-34.17-37.525-39.414-42.556-36.962c-54.741,27.871-58.884,25.992-58.096,31.495l7.298,50.945 c-18.622,15.211-34.864,33.489-47.841,54.418c-49.821,1.207-54.435-2.272-56.195,3.052 c-18.059,58.018-22.312,59.587-17.801,62.993l41.708,31.476c-2.082,24.557,0.033,48.95,5.883,72.314 c-34.51,36.215-39.504,36.343-36.962,41.278C2335.13,996.485,2333.483,1001.058,2339.147,1000.358z"/><path style="fill:#fff" d="M2504.509,846.187c2.218-33.005,31.37-57.677,64.984-54.997 c33.61,2.69,59.157,31.712,56.941,64.718c-2.22,33.005-31.37,57.677-64.985,54.999l0,0 C2527.827,908.227,2502.292,879.185,2504.509,846.187z M2561.809,905.557l0.033,0.013L2561.809,905.557z M2568.775,801.887 c-27.284-2.177-51.523,17.653-53.37,45.167c-1.823,27.107,19.155,50.96,46.763,53.153c27.607,2.2,51.55-18.063,53.371-45.169 C2617.363,827.891,2596.333,804.078,2568.775,801.887z"/><path style="fill:#fff" d="M2512.291,993.98L2512.291,993.98c-8.47-3.199-16.658-7.098-24.41-11.631 c-2.331-1.363-3.289-4.139-2.388-6.528c0.108-0.285,0.242-0.564,0.403-0.835c1.512-2.542,4.862-3.36,7.461-1.84 c8.917,5.213,18.459,9.524,28.353,12.828l0,0c74.545,24.832,154.685-12.687,181.581-83.893 c0.687-1.818,1.338-3.659,1.956-5.521c24.904-75.226-17.429-156.338-93.749-181.786 c-76.215-25.391-158.661,14.395-183.536,89.413c-14.782,44.66-1.863,74.629-3.599,79.227 c-1.876,4.968-9.228,4.387-10.442-0.802c-6.635-28.345-5.159-58.917,5.758-87.821 c47.11-124.713,224.584-132.308,286.429-12.379c19.034,36.906,22.417,78.674,9.525,117.608 c-0.666,2.014-1.373,4.009-2.117,5.984c-13.657,36.167-40.32,65.326-75.654,82.541c-37.263,18.151-79.707,20.845-119.514,7.584 C2516.313,995.454,2514.293,994.736,2512.291,993.98z"/></g></g><g><path style="fill:#91b3fa" d="M2948.291,735.012c9.506,9.723,20.632,18.001,33.1,24.356l2.637,28.979 c0.291,3.216,2.957,1.775,35.725,10.453c3.029,0.744,2.506-1.997,18.367-25.471c13.993,0.156,27.688-2.011,40.622-6.211 l22.371,18.639c2.487,2.068,3.346-0.836,32.653-17.871c0.874-0.529,1.315-1.553,1.101-2.55l-6.128-28.466 c9.723-9.506,18-20.632,24.355-33.1c27.641-3.098,30.326-1.363,31.086-4.448c7.675-33.727,9.962-34.792,7.322-36.496 l-24.446-15.786c0.157-13.993-2.01-27.689-6.211-40.622l18.639-22.371c2.067-2.48-0.836-3.345-17.87-32.652 c-1.605-2.658-3.063-0.384-31.016,5.027c-9.506-9.724-20.632-18-33.1-24.356l-2.637-28.98 c-0.293-3.219-2.958-1.775-35.726-10.453c-3.012-0.742-2.425,1.879-18.366,25.471c-13.993-0.158-27.69,2.011-40.623,6.211 l-22.37-18.639c-0.784-0.654-1.897-0.737-2.77-0.209l-29.883,18.079c-0.873,0.528-1.315,1.552-1.101,2.551l6.128,28.465 c-9.723,9.506-18,20.632-24.355,33.1c-27.641,3.098-30.329,1.363-31.085,4.448c-7.672,33.714-9.964,34.788-7.322,36.496 l24.445,15.785c-0.156,13.993,2.011,27.689,6.211,40.622c-17.355,21.735-20.498,22.413-18.848,25.14l18.08,29.883 C2918.892,742.71,2920.48,740.395,2948.291,735.012z"/><g><path style="fill:#fff" d="M3003.001,645.935c-0.118-20.142,16.082-36.542,36.228-36.66 c20.136-0.121,36.54,16.081,36.659,36.224c0.119,20.094-16.132,36.542-36.227,36.662l0,0 C3019.566,682.278,3003.122,666.033,3003.001,645.935z M3039.628,676.731l0.033,0.013L3039.628,676.731z M3013.862,645.869 c0.087,14.108,11.635,25.514,25.733,25.431l0,0c22.651-0.138,34-27.8,17.831-43.779 C3041.328,611.616,3013.727,623.071,3013.862,645.869z"/><g><path style="fill:#bdd0fb" d="M2860.829,713.016c-1.728-4.578-3.297-9.288-4.665-14.002 c-0.558-1.921,0.546-3.928,2.467-4.486c4.833-1.404,4.522,4.126,8.972,15.933c0.707,1.872-0.239,3.96-2.11,4.665 C2863.632,715.83,2861.538,714.896,2860.829,713.016z"/><path style="fill:#bdd0fb" d="M2848.69,651.19c-0.274-9.61,0.164-19.666,1.452-29.789c0.605-4.762,7.786-3.823,7.184,0.914 c-3.337,26.228,1.142,32.225-4.916,32.393C2850.395,654.762,2848.746,653.178,2848.69,651.19z M2864.321,579.259 c-1.855-0.746-2.754-2.854-2.01-4.711c3.701-9.202,8.162-18.193,13.266-26.721c2.462-4.107,8.675-0.394,6.215,3.719 c-4.909,8.203-9.203,16.851-12.76,25.703C2867.721,580.507,2863.884,579.279,2864.321,579.259z M2906.73,515.747 c-0.475-0.179-0.918-0.46-1.297-0.843c-1.405-1.424-1.388-3.716,0.035-5.121c7.071-6.973,14.742-13.442,22.8-19.226 c1.623-1.164,3.89-0.793,5.052,0.829c1.167,1.624,0.795,3.888-0.829,5.052c-7.753,5.567-15.133,11.792-21.937,18.501 C2909.513,515.963,2908.011,516.232,2906.73,515.747z M2970.85,474.317c-0.931-0.352-1.714-1.084-2.1-2.086 c-0.72-1.865,0.209-3.962,2.075-4.68c9.26-3.571,18.879-6.433,28.591-8.506c1.958-0.415,3.88,0.83,4.298,2.787 c0.416,1.955-0.83,3.878-2.787,4.296c-9.34,1.992-18.592,4.744-27.498,8.178C2972.567,474.64,2971.652,474.62,2970.85,474.317 z M3043.86,458.47c0.085-1.997,1.772-3.551,3.77-3.467c9.949,0.418,19.913,1.619,29.617,3.568 c4.684,0.919,3.283,8.044-1.427,7.1c-9.334-1.876-18.921-3.03-28.493-3.431C3045.281,462.147,3043.78,460.428,3043.86,458.47z"/><path style="fill:#bdd0fb" d="M3132.576,487.401c-11.443-6.746-16.305-7.182-14.157-11.572 c0.879-1.796,3.007-2.566,4.844-1.661c4.382,2.142,8.752,4.496,12.992,6.995c1.722,1.015,2.295,3.235,1.28,4.959 C3136.534,487.817,3134.338,488.429,3132.576,487.401z"/></g><g><path style="fill:#bdd0fb" d="M3219.51,609.468c-2.62-13.074-5.532-16.946-0.826-18.273c1.927-0.544,3.925,0.577,4.468,2.5 c1.327,4.697,2.491,9.525,3.457,14.349c0.393,1.961-0.878,3.87-2.838,4.261C3221.817,612.7,3219.903,611.432,3219.51,609.468z"/><path style="fill:#bdd0fb" d="M2989.65,826.26c1.48-5.829,6.169-0.266,32.209,2.21c4.756,0.442,4.096,7.663-0.686,7.21 c-9.738-0.926-19.464-2.615-28.907-5.018C2990.359,830.182,2989.149,828.224,2989.65,826.26z M3064.61,831.281 c-0.303-1.976,1.051-3.825,3.03-4.128c26.072-4.01,30.186-9.831,32.018-4.078c0.604,1.907-0.45,3.942-2.355,4.548 c-9.296,2.952-18.906,5.204-28.564,6.688C3066.76,834.612,3064.915,833.257,3064.61,831.281z M3135.499,806.493 c-3.194-5.115,4.008-4.601,23.864-21.738c3.628-3.124,8.362,2.352,4.732,5.484c-7.4,6.384-15.343,12.242-23.607,17.405 C3138.794,808.703,3136.558,808.191,3135.499,806.493z M3190.947,755.816c-4.953-3.464,1.902-5.81,13.454-29.346 c2.106-4.295,8.614-1.115,6.502,3.189c-4.297,8.756-9.314,17.255-14.913,25.264 C3194.841,756.565,3192.583,756.957,3190.947,755.816z M3219.255,683.158c5.354-25.81,1.344-31.736,7.385-31.428 c2,0.1,3.534,1.802,3.434,3.799c-0.497,9.781-1.751,19.571-3.729,29.101c-0.406,1.957-2.322,3.216-4.281,2.809 C3220.111,687.034,3218.848,685.12,3219.255,683.158z"/><path style="fill:#bdd0fb" d="M2947.817,813.136c-4.299-2.358-8.556-4.912-12.653-7.589 c-1.673-1.095-2.143-3.338-1.049-5.013c2.756-4.213,6.102,0.174,17.185,6.252c1.753,0.963,2.394,3.163,1.433,4.916 C2951.757,813.481,2949.536,814.084,2947.817,813.136z"/></g><path style="fill:#fff" d="M3000.843,725.99c-3.096-1.49-3.936-4.811-2.695-7.356c1.315-2.697,4.594-3.811,7.262-2.501 c5.005,2.44,10.317,4.363,15.792,5.712c1.18,0.058,29.488,9.094,59.656-9.1c59.821-36.197,46-127.305-21.97-144.024 c-39.104-9.622-78.706,11.883-92.591,48.657c-13.988,37.035,6.014,54.375-5.232,57.829c-2.866,0.885-5.905-0.724-6.789-3.592 c-4.764-15.463-5.226-31.98-1.339-47.77c11.791-47.949,60.444-77.508,108.548-65.671c51.762,12.734,81.638,68.12,62.428,118.98 c-15.489,41.02-59.958,66.4-105.307,55.239c0,0,0,0-0.002-0.001C3012.469,730.879,3006.49,728.727,3000.843,725.99z"/></g></g></g><linearGradient id="SVGID_00000006700918982384469020000016651222316323369090_" x1="1778.158" x2="2831.428" y1="2485.296" y2="3206.102" gradientUnits="userSpaceOnUse"><stop offset="0" style="stop-color:#e1473d"/><stop offset="1" style="stop-color:#e9605a"/></linearGradient><path style="fill:url(#SVGID_00000006700918982384469020000016651222316323369090_)" d="M2202.254,2717.267h-414.59 c-13.562,0-24.657-11.096-24.657-24.657v-117.891c0-13.562,11.096-24.657,24.657-24.657h414.59 c13.562,0,24.658,11.096,24.658,24.657v117.891C2226.912,2706.171,2215.816,2717.267,2202.254,2717.267z"/><g style="opacity:.8"><g><path style="fill:#fff" d="M2512.631,1944.614h-935.379c-7.439,0-13.525-6.086-13.525-13.525v-65.014 c0-7.438,6.086-13.524,13.525-13.524h935.379c7.438,0,13.524,6.086,13.524,13.524v65.014 C2526.156,1938.527,2520.07,1944.614,2512.631,1944.614z"/><circle style="fill:#fff" cx="1440.276" cy="1898.302" r="55.813"/></g><g><path style="fill:#fff" d="M2512.631,2117.369h-935.379c-7.439,0-13.525-6.086-13.525-13.525v-65.014 c0-7.438,6.086-13.525,13.525-13.525h935.379c7.438,0,13.524,6.086,13.524,13.525v65.014 C2526.156,2111.283,2520.07,2117.369,2512.631,2117.369z"/><ellipse transform="matrix(0.9239 -0.3827 0.3827 0.9239 -682.925 708.8198)" style="fill:#fff" cx="1440.276" cy="2071.057" rx="55.813" ry="55.813"/></g><g><path style="fill:#fff" d="M2512.631,2290.125h-935.379c-7.439,0-13.525-6.086-13.525-13.525v-65.014 c0-7.438,6.086-13.524,13.525-13.524h935.379c7.438,0,13.524,6.086,13.524,13.524v65.014 C2526.156,2284.039,2520.07,2290.125,2512.631,2290.125z"/><circle style="fill:#fff" cx="1440.276" cy="2243.813" r="55.813"/></g><g><path style="fill:#fff" d="M2512.631,2462.881h-935.379c-7.439,0-13.525-6.086-13.525-13.525v-65.014 c0-7.438,6.086-13.525,13.525-13.525h935.379c7.438,0,13.524,6.086,13.524,13.525v65.014 C2526.156,2456.795,2520.07,2462.881,2512.631,2462.881z"/><ellipse transform="matrix(0.9239 -0.3827 0.3827 0.9239 -815.1467 735.1204)" style="fill:#fff" cx="1440.276" cy="2416.569" rx="55.813" ry="55.813"/></g></g><g><path style="fill:#fff" d="M1131.374,1046.411l-18.734,14.473l-0.048,0.038c-1.336,1.031-3.253,0.785-4.285-0.55 s-0.785-3.253,0.55-4.284c0.01-0.008,0.035-0.026,0.045-0.034l19.092-14.196c1.256-0.934,3.033-0.673,3.967,0.584 c0.924,1.242,0.679,2.991-0.54,3.933L1131.374,1046.411z"/><path style="fill:#fff" d="M1065.999,1099.663c-11.839,10.348-23.459,20.944-34.919,31.705 c-1.622,1.525-4.174,1.445-5.698-0.178c-1.525-1.623-1.445-4.174,0.179-5.699c0.008-0.008,0.033-0.031,0.041-0.039 c11.683-10.666,23.601-21.073,35.69-31.272c1.525-1.287,3.804-1.094,5.091,0.432 C1067.657,1096.12,1067.479,1098.369,1065.999,1099.663z"/><path style="fill:#fff" d="M987.881,1173.899c-10.937,11.288-21.664,22.774-32.174,34.452 c-1.765,1.959-4.783,2.118-6.741,0.355c-1.96-1.764-2.119-4.782-0.356-6.741c0.01-0.01,0.036-0.038,0.045-0.048 c10.749-11.619,21.713-23.039,32.879-34.252c1.733-1.741,4.549-1.747,6.291-0.014 C989.55,1169.369,989.568,1172.155,987.881,1173.899z"/><path style="fill:#fff" d="M916.262,1254.337c-9.935,12.163-19.641,24.511-29.106,37.037 c-1.836,2.43-5.294,2.912-7.725,1.075c-2.43-1.836-2.912-5.294-1.076-7.724c0.01-0.012,0.038-0.048,0.046-0.06 c9.723-12.506,19.683-24.825,29.868-36.95c1.844-2.195,5.117-2.48,7.313-0.636 C917.757,1248.907,918.053,1252.143,916.262,1254.337z"/><path style="fill:#fff" d="M851.869,1340.566c-8.824,12.977-17.393,26.124-25.694,39.435 c-1.828,2.932-5.687,3.826-8.619,1.998c-2.932-1.828-3.828-5.687-1.998-8.619c0.008-0.014,0.036-0.058,0.046-0.072 c8.572-13.337,17.41-26.5,26.5-39.481c1.881-2.684,5.579-3.335,8.263-1.456C853.027,1334.233,853.689,1337.888,851.869,1340.566z"/><path style="fill:#fff" d="M795.46,1432.109c-7.626,13.7-14.97,27.555-22.017,41.556c-1.69,3.357-5.781,4.708-9.139,3.019 c-3.357-1.69-4.708-5.782-3.018-9.139l0.025-0.051c7.253-14.111,14.801-28.067,22.631-41.86c1.801-3.173,5.834-4.285,9.008-2.484 C796.106,1424.941,797.221,1428.944,795.46,1432.109z"/><path style="fill:#fff" d="M747.742,1528.373c-6.271,14.36-12.234,28.852-17.88,43.465c-1.445,3.74-5.647,5.6-9.387,4.155 c-3.74-1.444-5.601-5.647-4.156-9.386l0.022-0.057c5.846-14.761,12.011-29.393,18.484-43.884c1.591-3.56,5.766-5.157,9.327-3.566 C747.694,1520.682,749.29,1524.825,747.742,1528.373z"/><path style="fill:#fff" d="M709.683,1628.776c-4.814,14.902-9.301,29.909-13.453,45.005c-1.129,4.107-5.374,6.52-9.48,5.391 c-4.107-1.13-6.521-5.374-5.39-9.481l0.016-0.063c4.341-15.279,9.018-30.461,14.026-45.532c1.31-3.938,5.563-6.069,9.499-4.76 C708.819,1620.637,710.948,1624.856,709.683,1628.776z"/><path style="fill:#fff" d="M681.878,1732.428c-3.288,15.305-6.238,30.681-8.851,46.113c-0.752,4.446-4.967,7.44-9.412,6.688 c-4.447-0.752-7.44-4.967-6.688-9.413l0.012-0.068c2.783-15.645,5.909-31.228,9.375-46.733c0.96-4.294,5.22-6.996,9.513-6.036 C680.098,1723.935,682.793,1728.158,681.878,1732.428z"/><path style="fill:#fff" d="M665.063,1838.303c-1.622,15.583-2.967,31.202-4.059,46.839c-0.331,4.748-4.448,8.328-9.197,7.997 c-4.748-0.331-8.329-4.448-7.998-9.196l0.007-0.074c1.238-15.815,2.73-31.611,4.508-47.384c0.52-4.621,4.689-7.944,9.309-7.424 C662.228,1829.579,665.541,1833.712,665.063,1838.303z"/><path style="fill:#fff" d="M658.033,1945.536c-0.465,15.671-0.626,31.347-0.644,47.021c-0.005,4.993-4.056,9.036-9.049,9.031 s-9.036-4.057-9.031-9.05v-0.007c0.028-15.867,0.412-31.729,0.988-47.581c0.179-4.897,4.291-8.723,9.188-8.545 C654.363,1936.582,658.175,1940.666,658.033,1945.536z"/><path style="fill:#fff" d="M658.642,2052.989c0.654,15.655,1.569,31.296,2.756,46.914c0.386,5.061-3.405,9.475-8.466,9.86 c-5.061,0.385-9.476-3.406-9.86-8.467l-0.002-0.026c-1.16-15.835-2.043-31.686-2.662-47.546 c-0.197-5.035,3.725-9.277,8.761-9.474C654.204,2044.054,658.445,2047.952,658.642,2052.989z"/><path style="fill:#fff" d="M667.364,2160c1.912,15.536,4.117,31.032,6.63,46.474c0.829,5.092-2.626,9.891-7.718,10.72 c-5.091,0.829-9.89-2.626-10.72-7.718l-0.003-0.026c-2.51-15.695-4.705-31.436-6.604-47.209 c-0.611-5.085,3.015-9.704,8.101-10.316C662.136,2151.314,666.751,2154.915,667.364,2160z"/><path style="fill:#fff" d="M685.267,2265.727c3.341,15.271,7.016,30.464,11.046,45.556c1.352,5.063-1.657,10.264-6.72,11.617 c-5.064,1.352-10.266-1.657-11.617-6.721l-0.007-0.026c-4.064-15.392-7.765-30.874-11.122-46.425 c-1.099-5.088,2.136-10.102,7.223-11.201C679.158,2257.43,684.168,2260.639,685.267,2265.727z"/><path style="fill:#fff" d="M713.664,2368.942c4.978,14.789,10.339,29.444,16.102,43.931 c1.967,4.947-0.447,10.552-5.394,12.52c-4.948,1.968-10.554-0.447-12.521-5.394l-0.01-0.025 c-5.856-14.838-11.292-29.831-16.334-44.949c-1.674-5.016,1.036-10.439,6.053-12.112 C706.577,2361.24,711.991,2363.926,713.664,2368.942z"/><path style="fill:#fff" d="M754.03,2467.842c6.827,13.996,14.08,27.777,21.772,41.301c2.674,4.699,1.03,10.677-3.67,13.35 c-4.698,2.673-10.677,1.03-13.349-3.67l-0.013-0.024c-7.864-13.916-15.269-28.081-22.232-42.453 c-2.341-4.833-0.321-10.649,4.513-12.991C745.883,2461.013,751.687,2463.008,754.03,2467.842z"/><path style="fill:#fff" d="M807.655,2559.937c8.827,12.789,18.1,25.264,27.812,37.381c3.434,4.284,2.745,10.539-1.538,13.973 c-4.285,3.434-10.539,2.744-13.973-1.539l-0.018-0.022c-9.98-12.522-19.499-25.404-28.552-38.597 c-3.084-4.497-1.94-10.643,2.556-13.728C798.438,2554.318,804.569,2555.44,807.655,2559.937z"/><path style="fill:#fff" d="M875.078,2642.182c10.821,11.124,22.059,21.837,33.69,32.103 c4.179,3.688,4.576,10.063,0.887,14.241c-3.687,4.178-10.062,4.575-14.241,0.888l-0.02-0.019 c-11.988-10.64-23.567-21.738-34.707-33.256c-3.849-3.979-3.743-10.326,0.235-14.174 C864.904,2638.115,871.231,2638.202,875.078,2642.182z"/><path style="fill:#fff" d="M955.502,2711.622c6.275,4.559,12.637,9.001,19.08,13.323c6.425,4.352,13.046,8.405,19.572,12.603 l0.303,0.195c4.682,3.011,6.036,9.246,3.025,13.927c-3.01,4.682-9.21,6.059-13.89,3.049c-6.756-4.304-13.604-8.467-20.256-12.936 c-6.67-4.438-13.258-9-19.759-13.686c-4.556-3.285-5.586-9.639-2.303-14.195c3.285-4.556,9.64-5.587,14.196-2.302 L955.502,2711.622z"/><path style="fill:#fff" d="M1046.52,2766.495c13.933,6.842,28.125,13.159,42.534,18.94c5.063,2.031,7.521,7.781,5.492,12.844 c-2.031,5.063-7.748,7.534-12.811,5.503c-14.887-5.908-29.558-12.371-43.966-19.38c-4.95-2.407-7.01-8.371-4.602-13.321 s8.37-7.01,13.32-4.603L1046.52,2766.495z"/><path style="fill:#fff" d="M1145.628,2805.081c14.902,4.407,29.964,8.282,45.148,11.637 c5.217,1.153,8.511,6.316,7.359,11.533c-1.152,5.217-6.281,8.519-11.498,7.366c-15.628-3.392-31.148-7.322-46.511-11.803 c-5.177-1.51-8.149-6.929-6.639-12.105c1.51-5.176,6.929-8.149,12.105-6.639L1145.628,2805.081z"/><path style="fill:#fff" d="M1249.861,2827.133c15.431,2.056,30.936,3.621,46.478,4.721c5.218,0.368,9.149,4.897,8.779,10.115 s-4.862,9.15-10.081,8.782c-15.925-1.068-31.824-2.612-47.666-4.662c-5.236-0.677-8.932-5.47-8.253-10.706 c0.677-5.237,5.47-8.932,10.706-8.254L1249.861,2827.133z"/><path style="fill:#fff" d="M1356.432,2833.856c15.6-0.045,31.205-0.518,46.796-1.388c5.109-0.285,9.483,3.626,9.769,8.737 c0.285,5.11-3.593,9.482-8.703,9.768c-15.9,0.946-31.831,1.489-47.772,1.596c-5.167,0.035-9.384-4.126-9.418-9.293 c-0.035-5.167,4.126-9.385,9.293-9.419H1356.432z"/><path style="fill:#fff" d="M1463.244,2827.205c15.521-1.844,31.003-4.049,46.436-6.587c4.94-0.813,9.604,2.533,10.417,7.472 c0.813,4.94-2.5,9.598-7.438,10.411c-15.681,2.64-31.426,4.942-47.221,6.879c-5.016,0.616-9.584-2.954-10.198-7.971 c-0.616-5.018,2.954-9.584,7.97-10.2L1463.244,2827.205z"/><path style="fill:#fff" d="M1568.971,2809.366c15.304-3.302,30.545-6.908,45.72-10.797c4.563-1.17,9.211,1.58,10.38,6.144 c1.162,4.53-1.546,9.144-6.049,10.356c-15.334,4.116-30.75,7.949-46.241,11.476c-4.738,1.078-9.453-1.887-10.531-6.626 c-1.079-4.737,1.887-9.453,6.624-10.531C1568.89,2809.383,1568.954,2809.369,1568.971,2809.366z"/><path style="fill:#fff" d="M1672.87,2782.194c14.988-4.593,29.899-9.446,44.729-14.546c4.134-1.423,8.639,0.775,10.061,4.909 c1.412,4.104-0.75,8.575-4.826,10.031c-14.936,5.328-29.965,10.409-45.082,15.229c-4.306,1.374-8.91-1.005-10.283-5.311 c-1.374-4.306,1.005-8.91,5.311-10.283C1672.795,2782.216,1672.853,2782.198,1672.87,2782.194z"/><path style="fill:#fff" d="M1774.381,2746.762c14.609-5.724,29.128-11.683,43.547-17.871c3.707-1.591,8,0.122,9.591,3.828 c1.579,3.678-0.104,7.939-3.753,9.557c-14.493,6.415-29.09,12.6-43.782,18.55c-3.874,1.569-8.288-0.3-9.857-4.175 c-1.57-3.876,0.3-8.289,4.175-9.859C1774.315,2746.788,1774.368,2746.767,1774.381,2746.762z"/><path style="fill:#fff" d="M1873.04,2703.861c14.155-6.786,28.162-13.833,42.125-21.073c3.278-1.7,7.316-0.421,9.016,2.859 c1.687,3.255,0.434,7.26-2.793,8.98c-13.956,7.438-28.047,14.729-42.256,21.74c-3.444,1.704-7.616,0.293-9.319-3.15 c-1.704-3.444-0.293-7.616,3.15-9.32C1872.975,2703.892,1873.028,2703.866,1873.04,2703.861z"/><path style="fill:#fff" d="M1968.113,2653.577c13.537-7.922,26.909-16.131,40.106-24.619c2.708-1.743,6.318-0.96,8.061,1.749 c1.723,2.678,0.972,6.239-1.662,8.005c-13.177,8.814-26.542,17.354-40.086,25.61c-2.95,1.799-6.801,0.865-8.6-2.086 c-1.8-2.952-0.866-6.803,2.086-8.601C1968.038,2653.621,1968.09,2653.591,1968.113,2653.577z"/><path style="fill:#fff" d="M2058.224,2594.857c12.728-9.188,25.269-18.643,37.612-28.353c2.109-1.66,5.165-1.296,6.826,0.814 c1.641,2.085,1.298,5.098-0.747,6.771c-12.271,10.013-24.749,19.779-37.426,29.282c-2.336,1.751-5.649,1.277-7.4-1.059 c-1.752-2.335-1.278-5.649,1.058-7.399C2058.167,2594.9,2058.206,2594.87,2058.224,2594.857z"/><path style="fill:#fff" d="M2142.455,2527.808c11.834-10.339,23.419-20.961,34.869-31.733 c1.551-1.459,3.992-1.386,5.45,0.166c1.435,1.525,1.384,3.915-0.093,5.381c-11.238,11.14-22.775,21.978-34.487,32.627 c-1.763,1.603-4.491,1.472-6.094-0.291c-1.603-1.762-1.473-4.491,0.29-6.093 C2142.407,2527.85,2142.439,2527.821,2142.455,2527.808z"/><path style="fill:#fff" d="M2220.4,2453.339l16.216-17.253l0.038-0.04c1.071-1.141,2.866-1.197,4.007-0.125 c1.124,1.056,1.192,2.814,0.17,3.958l-15.87,17.725c-1.151,1.285-3.124,1.393-4.409,0.243c-1.285-1.151-1.394-3.124-0.243-4.409 c0.013-0.015,0.027-0.03,0.04-0.045L2220.4,2453.339z"/></g><path style="fill:#fff" d="M2132.335,1764.683h-733.682c-6.6,0-12-5.4-12-12v-68.063c0-6.6,5.4-12,12-12h733.682 c6.6,0,12,5.4,12,12v68.063C2144.335,1759.283,2138.935,1764.683,2132.335,1764.683z"/><g><linearGradient id="SVGID_00000151515925517650735170000006737991215837327509_" x1="1990.035" x2="2218.405" y1="1359.58" y2="2015.816" gradientUnits="userSpaceOnUse"><stop offset="0" style="stop-color:#4f52ff"/><stop offset="1" style="stop-color:#4042e2"/></linearGradient><polygon style="fill:url(#SVGID_00000151515925517650735170000006737991215837327509_)" points="2160.44 2163.328 2306.16 2374.623 2386.613 2185.094"/><linearGradient id="SVGID_00000091009778780662815660000012458621554511105181_" x1="2405.391" x2="4809.839" y1="1719.507" y2="2475.49" gradientUnits="userSpaceOnUse"><stop offset="0" style="stop-color:#4f52ff"/><stop offset="1" style="stop-color:#4042e2"/></linearGradient><path style="fill:url(#SVGID_00000091009778780662815660000012458621554511105181_)" d="M3026.953,1386.776l-225.437,894.04 c-4.317,17.117-15.413,31.74-30.736,40.505c-15.323,8.764-33.554,10.915-50.496,5.958l-889.107-260.161 c-10.18-2.979-17.535-11.835-18.595-22.39c-1.059-10.554,4.389-20.695,13.775-25.639L3026.953,1386.776z"/><linearGradient id="SVGID_00000173841451685740144120000009120708864326482060_" x1="2399.564" x2="2627.935" y1="1217.064" y2="1873.302" gradientUnits="userSpaceOnUse"><stop offset="0" style="stop-color:#4f52ff"/><stop offset="1" style="stop-color:#4042e2"/></linearGradient><polygon style="fill:url(#SVGID_00000173841451685740144120000009120708864326482060_)" points="2160.526 2163.305 3026.953 1386.776 2303.882 2205.735 2341.798 2266.052"/><linearGradient id="SVGID_00000065792304142575988320000006357792933021357960_" x1="2870.927" x2="2408.936" y1="1338.429" y2="2115.413" gradientUnits="userSpaceOnUse"><stop offset="0" style="stop-color:#09005d"/><stop offset="1" style="stop-color:#1a0f91"/></linearGradient><polygon style="fill:url(#SVGID_00000065792304142575988320000006357792933021357960_)" points="2389.07 2230.248 2306.16 2374.623 2303.882 2205.735"/></g></g></g></svg>